<svg xmlns="http://www.w3.org/2000/svg" version="1.1" xmlns:xlink="http://www.w3.org/1999/xlink" xmlns:svgjs="http://svgjs.dev/svgjs" width="100%" height="100%" viewBox="0 0 1000 600"><rect width="1000" height="600" x="0" y="0" fill="#1f242d"/><g><rect width="333.3333333333333" height="333.3333333333333" rx="13.333333333333334" ry="13.333333333333334" y="452.41495657678723" fill="#00eeff" transform="matrix(0.29056739107056084,0,0,0.2905673910705609,0,120.11505667021524)" x="430.19290161132807"/><path d="M539.2256510133918 544.2899622569448L558.0649361573112 544.2899622569448L558.0649361573112 661.0756730069279Q558.0649361573112 677.355434418814 550.6839839998199 685.7185294037134Q543.2732699384678 694.0816243886128 529.3446989315889 694.0816243886128L529.3446989315889 694.0816243886128Q526.5768418725297 694.0816243886128 522.8268419860624 693.7542434461434Q519.0768420995951 693.4268625036741 515.5351755401537 692.8018625225961Q511.99350898071236 692.1471006376573 509.642318575705 691.2840054256927L509.642318575705 691.2840054256927L511.7851756536864 678.0101963037528L522.4994610435931 678.0101963037528Q539.2256510133918 678.0101963037528 539.2256510133918 661.7304348918667L539.2256510133918 661.7304348918667L539.2256510133918 544.2899622569448ZM622.7970770546642 544.0816289299189L622.7970770546642 544.0816289299189Q633.0649338866581 544.0816289299189 643.5708859495389 544.1709146415014Q654.0768380124196 544.2899622569448 664.3446948444134 544.4982955839708Q674.6423135802684 544.7066289109969 684.0768371041584 545.5697241229615L684.0768371041584 545.5697241229615L683.0054085651677 560.1530570147789L627.4994578646788 560.1530570147789Q619.9994580917441 560.1530570147789 616.5768391477461 563.4566283433335Q613.1542202037481 566.789961575749 613.1542202037481 574.2899613486836L613.1542202037481 574.2899613486836L613.1542202037481 692.1471006376573L594.2851731559681 692.1471006376573L594.2851731559681 570.6590090776597Q594.2851731559681 558.0101999367976 601.9935062559287 551.0459144333583Q609.7018393558894 544.0816289299189 622.7970770546642 544.0816289299189ZM597.916125426992 623.7840074692805L597.916125426992 608.5756745963852L674.8506469072943 608.5756745963852L674.8506469072943 623.7840074692805L597.916125426992 623.7840074692805Z " fill="#2b3252" transform="matrix(0.29056739107056084,0,0,0.2905673910705609,0,120.11505667021524)"/><path d="M884.0368923187492 544.0816195959853L884.0368923187492 544.0816195959853Q892.1730322250535 544.2429594808129 900.7931917858403 544.9113675750986Q909.4133513466273 545.5567271144088 918.0565594623897 547.4006115124381L918.0565594623897 547.4006115124381L917.065471598449 558.0029468011065Q909.9204195560854 557.6802670314514 901.3002599952985 557.4267329267224Q892.6570518795362 557.1731988219933 884.7053004130347 557.1731988219933L884.7053004130347 557.1731988219933Q878.551336234612 557.1731988219933 874.1490622343171 557.58807281155Q869.7698367889974 558.0029468011065 866.9348645270273 559.5932970944068Q864.1229408200328 561.1605988327317 862.8783188513629 564.7331248539135Q861.6336968826932 568.3056508750952 861.6336968826932 574.5979063833703L861.6336968826932 574.5979063833703Q861.6336968826932 584.0708624782458 865.021834464072 587.8047283842551Q868.4330206004262 591.5385942902644 876.0620922972724 593.3594301333184L876.0620922972724 593.3594301333184L899.2950357124416 599.1676659871107Q912.5710033782526 602.3253180187359 917.4803455880057 610.2079238203112Q922.3666392427832 618.0905296218864 922.3666392427832 631.3664972876973L922.3666392427832 631.3664972876973Q922.3666392427832 641.3234730370555 920.1309294101727 647.4543886605029Q917.8952195775622 653.6083528389257 913.2394114725382 656.835150535477Q908.5836033675142 660.0619482320283 901.3002599952985 661.306570200698Q893.9938680681074 662.5511921693678 884.0368923187492 662.5511921693678L884.0368923187492 662.5511921693678Q878.3899963497844 662.5511921693678 869.3549627994408 662.0671725148852Q860.2968806941219 661.5601043054271 848.5190691017098 659.416588692718L848.5190691017098 659.416588692718L849.5101569656505 648.6298649642466Q859.3057928301812 648.9525447339017 865.275368568801 649.2060788386308Q871.244944307421 649.4596129433598 875.5780726427898 649.4596129433598Q879.8881524231832 649.4596129433598 884.5209119732318 649.4596129433598L884.5209119732318 649.4596129433598Q893.3254599738217 649.4596129433598 898.3961420684024 648.1227967547886Q903.4437756080075 646.7859805662173 905.5181455557905 642.8216291104543Q907.5925155035735 638.8342290997159 907.5925155035735 631.0207689630668L907.5925155035735 631.0207689630668Q907.5925155035735 624.3827851301613 906.0943594301747 620.7411134440536Q904.6192519117512 617.0994417579457 901.3694056602245 615.1864116949903Q898.1426079636733 613.2733816320348 893.1641200889942 612.1209538832666L893.1641200889942 612.1209538832666L869.4241084643669 606.1283295896712Q856.9778887776691 602.9937261130215 851.930255238064 595.1802659763723Q846.8595731434834 587.3898543946985 846.8595731434834 574.2752266137152L846.8595731434834 574.2752266137152Q846.8595731434834 564.318250864357 849.0952829760939 558.2564809058356Q851.3309928087045 552.1947109473142 855.894606693827 549.1292531355905Q860.4582205789495 546.0637953238668 867.4419327364855 545.072707459926Q874.402596339046 544.0816195959853 884.0368923187492 544.0816195959853ZM977.9597538433666 577.7555584149954L977.9597538433666 577.7555584149954Q991.9041296034632 577.7555584149954 1000.2707550595211 581.9042983105613Q1008.6604290705544 586.0530382061272 1012.3021007566623 595.4338000811013Q1015.9668209977456 604.8145619560754 1015.9668209977456 620.2340452345954L1015.9668209977456 620.2340452345954Q1015.9668209977456 635.6765770680909 1012.3021007566623 645.0573389430649Q1008.6604290705544 654.438100818039 1000.2707550595211 658.5868407136048Q991.9041296034632 662.7355806091707 977.9597538433666 662.7355806091707L977.9597538433666 662.7355806091707Q964.1767179680976 662.7355806091707 955.8100925120397 658.5868407136048Q947.4204185010063 654.438100818039 943.686552594997 645.0573389430649Q939.9526866889877 635.6765770680909 939.9526866889877 620.2340452345954L939.9526866889877 620.2340452345954Q939.9526866889877 604.8145619560754 943.686552594997 595.4338000811013Q947.4204185010063 586.0530382061272 955.8100925120397 581.9042983105613Q964.1767179680976 577.7555584149954 977.9597538433666 577.7555584149954ZM977.9597538433666 589.7177584472106L977.9597538433666 589.7177584472106Q969.1552058427767 589.7177584472106 964.1075723031715 592.4374879343037Q959.0368902085909 595.1802659763723 956.8933745958818 601.8182498092779Q954.7268104281975 608.4562336421833 954.7268104281975 620.2340452345954L954.7268104281975 620.2340452345954Q954.7268104281975 632.034905381983 956.8933745958818 638.6728892148884Q959.0368902085909 645.3108730477938 964.1075723031715 648.0306025348871Q969.1552058427767 650.7733805769557 977.9597538433666 650.7733805769557L977.9597538433666 650.7733805769557Q986.7643018439566 650.7733805769557 991.9041296034632 648.0306025348871Q997.0439573629699 645.3108730477938 999.2105215306543 638.6728892148884Q1001.3540371433634 632.034905381983 1001.3540371433634 620.2340452345954L1001.3540371433634 620.2340452345954Q1001.3540371433634 608.4562336421833 999.2105215306543 601.8182498092779Q997.0439573629699 595.1802659763723 991.9041296034632 592.4374879343037Q986.7643018439566 589.7177584472106 977.9597538433666 589.7177584472106ZM1038.208676548974 544.4042993656404L1052.3143921938981 544.4042993656404L1052.1300037540955 638.3271608902579Q1052.1300037540955 643.6513770895675 1055.0341216809916 646.3711065766607Q1057.9382396078877 649.1138846187293 1063.262455807197 649.1138846187293L1063.262455807197 649.1138846187293L1071.0528673888712 649.1138846187293L1072.7123633470974 659.9006083472007Q1071.2142072736983 660.5690164414864 1068.4944777866053 661.0760846509444Q1065.7516997445368 661.5601043054271 1062.8475818176407 661.8136384101562Q1059.9434638907446 662.0671725148852 1057.9382396078877 662.0671725148852L1057.9382396078877 662.0671725148852Q1048.9954002774452 662.0671725148852 1043.6020384132098 656.7429563155756Q1038.208676548974 651.4417886712413 1038.208676548974 641.4848129218831L1038.208676548974 641.4848129218831L1038.208676548974 544.4042993656404ZM1144.2320294356587 579.7607826978523L1159.167493059696 579.7607826978523L1129.642294136252 657.0886846402061Q1128.9738860419661 658.7481805984324 1127.7292640732967 659.6470742424717Q1126.4846421046268 660.5690164414864 1124.663806261573 660.5690164414864L1124.663806261573 660.5690164414864L1111.8718582502447 660.5690164414864Q1110.212362292018 660.5690164414864 1108.8985946584226 659.6470742424717Q1107.561778469851 658.7481805984324 1106.8933703755656 657.0886846402061L1106.8933703755656 657.0886846402061L1077.3681714521213 579.7607826978523L1092.4649749609862 579.7607826978523L1112.3789264597026 636.3449851623764Q1113.715742648274 639.8253169636567 1114.8681703970424 643.4669886497646Q1116.0205981458107 647.1317088908479 1117.196074449554 650.4507008073006L1117.196074449554 650.4507008073006L1119.3395900622631 650.4507008073006Q1120.6764062508346 646.9703690060203 1121.9210282195045 643.3978429848385Q1123.165650188174 639.8253169636567 1124.3180779369422 636.3449851623764L1124.3180779369422 636.3449851623764L1144.2320294356587 579.7607826978523ZM1175.9468410817626 579.7607826978523L1189.8681682868842 579.7607826978523L1189.8681682868842 660.5690164414864L1175.9468410817626 660.5690164414864L1175.9468410817626 579.7607826978523ZM1179.5885127678707 545.3953872295813L1186.226496600776 545.3953872295813Q1190.5365763811697 545.3953872295813 1190.5365763811697 549.7054670099747L1190.5365763811697 549.7054670099747L1190.5365763811697 559.1784231048503Q1190.5365763811697 563.4885028852437 1186.226496600776 563.4885028852437L1186.226496600776 563.4885028852437L1179.5885127678707 563.4885028852437Q1175.2784329874771 563.4885028852437 1175.2784329874771 559.1784231048503L1175.2784329874771 559.1784231048503L1175.2784329874771 549.7054670099747Q1175.2784329874771 545.3953872295813 1179.5885127678707 545.3953872295813L1179.5885127678707 545.3953872295813ZM1265.559622825987 577.7555584149954L1265.559622825987 577.7555584149954Q1287.4557500525848 577.7555584149954 1287.4557500525848 599.9974139662238L1287.4557500525848 599.9974139662238L1287.4557500525848 660.5690164414864L1273.3500344076606 660.5690164414864L1273.3500344076606 603.9848139769622Q1273.3500344076606 595.8486740706579 1270.6994505854932 592.7832162589342Q1268.0488667633263 589.7177584472106 1261.7335627000762 589.7177584472106L1261.7335627000762 589.7177584472106Q1254.2658308880573 589.7177584472106 1246.7980990760384 593.3594301333184Q1239.33036726402 597.0011018194263 1229.0507117450065 603.3164058826766L1229.0507117450065 603.3164058826766L1228.382303650721 593.1980902484909Q1237.8322111906214 585.8916983212997 1247.1207788456936 581.8351526456353Q1256.4323950557418 577.7555584149954 1265.559622825987 577.7555584149954ZM1216.420103618506 579.7607826978523L1228.382303650721 579.7607826978523L1229.5347313994894 595.1802659763723L1230.52581926343 597.6695099137119L1230.52581926343 660.5690164414864L1216.420103618506 660.5690164414864L1216.420103618506 579.7607826978523ZM1344.8697004962219 577.7555584149954L1344.8697004962219 577.7555584149954Q1357.8229883923777 577.7555584149954 1365.3598658693227 580.4061422371626Q1372.9197919012427 583.079774614305 1376.146589597794 588.7036220282944Q1379.3964358493204 594.3505179972592 1379.3964358493204 603.4777457675042L1379.3964358493204 603.4777457675042Q1379.3964358493204 612.2822937680941 1376.146589597794 617.9983354019848Q1372.9197919012427 623.7374255908511 1365.2907202043966 626.4571550779443Q1357.6616485075501 629.1999331200129 1344.7083606113943 629.1999331200129L1344.7083606113943 629.1999331200129Q1331.7550727152388 629.1999331200129 1324.218195238294 626.4571550779443Q1316.658269206374 623.7374255908511 1313.4314715098226 618.0905296218864Q1310.1816252582958 612.4436336529216 1310.1816252582958 603.6390856523317L1310.1816252582958 603.6390856523317Q1310.1816252582958 594.5118578820867 1313.4314715098226 588.7958162481959Q1316.658269206374 583.079774614305 1324.28734090322 580.4061422371626Q1331.9394611550415 577.7555584149954 1344.8697004962219 577.7555584149954ZM1344.7083606113943 588.5422821434668L1344.7083606113943 588.5422821434668Q1332.584820694352 588.5422821434668 1327.8598669244016 591.953468279821Q1323.1349131544516 595.3416058611999 1323.1349131544516 603.4777457675042L1323.1349131544516 603.4777457675042Q1323.1349131544516 611.4525457889808 1327.8598669244016 614.9328775902611Q1332.584820694352 618.4132093915415 1344.7083606113943 618.4132093915415L1344.7083606113943 618.4132093915415Q1356.9932404132646 618.4132093915415 1361.625999963313 614.9328775902611Q1366.2818080683373 611.4525457889808 1366.2818080683373 603.4777457675042L1366.2818080683373 603.4777457675042Q1366.2818080683373 595.3416058611999 1361.625999963313 591.953468279821Q1356.9932404132646 588.5422821434668 1344.7083606113943 588.5422821434668ZM1361.625999963313 579.7607826978523L1388.8463433892207 579.7607826978523L1388.0165954101076 587.551194279526L1367.4342358171057 589.2106902377525L1361.625999963313 579.7607826978523ZM1321.9824854056833 623.8987654756786L1321.9824854056833 623.8987654756786L1330.0955767570122 625.0511932244469Q1327.2836530500176 627.5404371617865 1326.292565186077 631.1129631829683Q1325.3014773221362 634.68548920415 1326.8687790604608 637.6587527959723Q1328.436080798786 640.65506494277 1333.5989571132677 641.4848129218831L1333.5989571132677 641.4848129218831L1363.7925641309976 646.3019609117347Q1375.2476959537548 647.961456869961 1379.7191156189756 653.4239643991228Q1384.2135838391723 658.9095204832599 1384.2135838391723 669.0278361174458L1384.2135838391723 669.0278361174458Q1384.2135838391723 678.5007922123214 1380.6410578179903 683.9632997414831Q1377.0685317968087 689.4488558256203 1368.609712120849 691.7767598781322Q1360.15089244489 694.0816153756689 1345.699448475335 694.0816153756689L1345.699448475335 694.0816153756689Q1334.751384862036 694.0816153756689 1327.2836530500176 692.8369934069991Q1319.8159212379987 691.5923714383293 1315.2523073528764 688.6882535114332Q1310.6886934677536 685.784135584537 1308.7065177398722 681.1513760344884Q1306.7012934570157 676.4955679294644 1306.7012934570157 669.5349043269039L1306.7012934570157 669.5349043269039Q1306.7012934570157 664.2106881275943 1308.2916437503159 660.6612106613878Q1309.8589454886405 657.0886846402061 1313.270131624995 654.2537123782361Q1316.658269206374 651.4417886712413 1322.143825290511 648.7912048490742L1322.143825290511 648.7912048490742L1332.100801039869 643.305648764937L1338.5774449879468 645.6335528174491L1330.441305081643 651.7644684408965Q1327.12231316519 654.2537123782361 1324.8866033325794 656.6738106506494Q1322.6278449449937 659.0708603680876 1321.5676114161265 661.8136384101562Q1320.4843293322847 664.5564164522248 1320.4843293322847 668.3594280231601L1320.4843293322847 668.3594280231601Q1320.4843293322847 674.0063239921249 1322.6278449449937 677.0026361389225Q1324.7944091126778 679.9758997307447 1330.2799651968153 681.059181814587Q1335.7424727259768 682.1424638984291 1345.5381085905078 682.1424638984291L1345.5381085905078 682.1424638984291Q1355.333744455038 682.1424638984291 1360.7271063192738 680.9900361496609Q1366.1204681835097 679.8145598459172 1368.2639837962188 676.8412962540949Q1370.4305479639029 673.8449841072973 1370.4305479639029 668.3594280231601L1370.4305479639029 668.3594280231601Q1370.4305479639029 664.2106881275943 1369.347265880061 662.0671725148852Q1368.2639837962188 659.9006083472007 1365.2907202043966 658.7481805984324Q1362.294408057599 657.5727042946887 1356.4861722038063 656.7429563155756L1356.4861722038063 656.7429563155756L1327.4449929348452 652.7786048598125Q1322.3051651753385 652.110196765527 1319.2397073636148 649.4596129433598Q1316.174249551891 646.7859805662173 1314.9987732481472 643.1443088801095Q1313.846345499379 639.5026371940016 1314.3303651538617 635.7687712879922Q1314.8374333633196 632.034905381983 1316.8196090912015 628.7850591304564Q1318.824833374058 625.558261433905 1321.9824854056833 623.8987654756786ZM1483.4376130081237 544.565639250468L1483.4376130081237 544.565639250468Q1496.7135806739348 544.565639250468 1504.8497205802391 547.4697571773642Q1512.9858604865435 550.3738751042604 1516.7197263925527 557.5189271466238Q1520.453592298562 564.6409306340121 1520.453592298562 577.5942185301678L1520.453592298562 577.5942185301678Q1520.453592298562 586.8827861852404 1518.2870281308774 593.1058960285893Q1516.1435125181683 599.3290058719383 1511.579898633046 602.7401920082924Q1507.0162847479237 606.1283295896712 1499.3641644961021 607.1424660085875L1499.3641644961021 607.1424660085875L1499.3641644961021 607.9722139877006Q1502.1991367580717 608.6175735270108 1504.9419148001407 610.6919434747938Q1507.6616442872337 612.7663134225768 1509.9895483397459 616.177499558931Q1512.3174523922576 619.5886856952852 1513.469880141026 624.3827851301613L1513.469880141026 624.3827851301613L1524.602332194128 660.5690164414864L1508.9984604758051 660.5690164414864L1498.8801448416193 624.7285134547918Q1496.7135806739348 618.251869506714 1493.0719089878266 615.5090914646453Q1489.407188746744 612.7663134225768 1483.5989528929513 612.7663134225768L1483.5989528929513 612.7663134225768Q1473.4806372587655 612.7663134225768 1466.012905446747 612.6971677576507Q1458.5451736347281 612.6049735377492 1453.566685760049 612.4436336529216Q1448.58819788537 612.2822937680941 1445.6149342935478 612.2822937680941L1445.6149342935478 612.2822937680941L1446.0989539480306 600.1587538510514L1483.1149332384684 600.1587538510514Q1491.573752914428 599.9974139662238 1496.4600465692056 598.17657812317Q1501.3693887789586 596.3557422801159 1503.5129043916677 591.6077399551905Q1505.6794685593522 586.8827861852404 1505.6794685593522 578.4239665092811L1505.6794685593522 578.4239665092811Q1505.6794685593522 569.9651468333216 1503.5129043916677 565.4015329481991Q1501.3693887789586 560.8379190630766 1496.4600465692056 559.0170832200226Q1491.573752914428 557.1731988219933 1483.1149332384684 557.1731988219933L1483.1149332384684 557.1731988219933Q1469.4932372480275 557.1731988219933 1459.6284557185704 557.3575872617963Q1449.7636741891138 557.5189271466238 1446.2602938328582 557.5189271466238L1446.2602938328582 557.5189271466238L1443.9554383353216 546.0637953238668Q1450.2476938435962 545.3953872295813 1455.7332499277336 545.072707459926Q1461.1957574568955 544.7269791352956 1467.7645956248748 544.6578334703695Q1474.3103852378786 544.565639250468 1483.4376130081237 544.565639250468ZM1443.9554383353216 546.0637953238668L1458.3838337499005 546.0637953238668L1458.3838337499005 660.5690164414864L1443.9554383353216 660.5690164414864L1443.9554383353216 546.0637953238668ZM1578.1902225118547 577.7555584149954L1578.1902225118547 577.7555584149954Q1596.4446780523444 577.7555584149954 1604.6730121785504 584.393542247901Q1612.8782977497808 591.0315260808063 1612.8782977497808 604.1461538617898L1612.8782977497808 604.1461538617898Q1613.0396376346084 614.9328775902611 1608.4068780845596 620.9946475487825Q1603.7510699795357 627.0564175073039 1593.63275434535 627.0564175073039L1593.63275434535 627.0564175073039L1546.4984594207258 627.0564175073039L1546.4984594207258 616.0853053390294L1589.9910826592418 616.0853053390294Q1595.4535901884037 616.0853053390294 1597.1130861466304 612.3514394330202Q1598.7725821048566 608.6175735270108 1598.7725821048566 604.1461538617898L1598.7725821048566 604.1461538617898Q1598.611242220029 596.3557422801159 1594.1398225548078 593.0367503636633Q1589.6453543346115 589.7177584472106 1578.8586306061402 589.7177584472106L1578.8586306061402 589.7177584472106Q1570.0771311605254 589.7177584472106 1565.0064490659452 592.2761480494762Q1559.9357669713645 594.8575862067172 1557.8613970235815 601.2420359348937Q1555.7870270757985 607.6264856630701 1555.7870270757985 619.0816174858271L1555.7870270757985 619.0816174858271Q1555.7870270757985 632.034905381983 1558.3684652330394 638.8342290997159Q1560.9499033902803 645.6335528174491 1566.5737508042698 648.1227967547886Q1572.2206467732344 650.6120406921282 1581.5092144283071 650.6120406921282L1581.5092144283071 650.6120406921282Q1587.9858583763848 650.6120406921282 1595.707124293133 650.035826817744Q1603.4283902098805 649.4596129433598 1609.559305833328 648.6298649642466L1609.559305833328 648.6298649642466L1611.0574619067265 658.0797725041468Q1607.2314017808162 659.5779285775457 1601.6767000317527 660.5690164414864Q1596.1219982826897 661.5601043054271 1590.2215682089954 662.0671725148852Q1584.3441866902772 662.5511921693678 1579.6883785852533 662.5511921693678L1579.6883785852533 662.5511921693678Q1565.7440028251567 662.5511921693678 1557.285183149197 658.3333066088758Q1548.826363473238 654.0923724934084 1544.9311576824011 644.7116106184344Q1541.0359518915639 635.3538972984356 1541.0359518915639 619.9113654649402L1541.0359518915639 619.9113654649402Q1541.0359518915639 603.9848139769622 1544.9311576824011 594.7653919868158Q1548.826363473238 585.5690185516446 1557.031649044468 581.6507642058323Q1565.2599831706739 577.7555584149954 1578.1902225118547 577.7555584149954ZM1672.2974724762748 577.7555584149954L1672.2974724762748 577.7555584149954Q1681.2633603616923 577.7555584149954 1687.4864702050413 580.175656687409Q1693.7095800483903 582.5727064048469 1696.84418352504 588.2196023738118Q1700.001835556665 593.8664983427764 1700.001835556665 603.6390856523317L1700.001835556665 603.6390856523317L1700.001835556665 660.5690164414864L1688.8924320585384 660.5690164414864L1686.7258678908543 642.9829689952819L1685.7347800269135 641.162133152228L1685.7347800269135 603.6390856523317Q1685.7347800269135 596.171353840313 1682.323593890559 592.9445561437618Q1678.9354563091802 589.7177584472106 1669.3011603294772 589.7177584472106L1669.3011603294772 589.7177584472106Q1663.0089048212021 589.7177584472106 1653.4668030614007 590.3631179865208Q1643.9247013015988 591.0315260808063 1634.613085091551 591.8612740599197L1634.613085091551 591.8612740599197L1633.299317457955 581.4202786560786Q1638.9462134269197 580.4061422371626 1645.6533429247515 579.5763942580494Q1652.3835209775584 578.7466462789362 1659.344184580119 578.2626266244536Q1666.327896737655 577.7555584149954 1672.2974724762748 577.7555584149954ZM1652.0377926529281 610.7841376946952L1693.3638517237596 610.7841376946952L1693.202511838932 621.409521538339L1654.5270365902675 621.5708614231667Q1648.7188007364753 621.7322013079943 1646.4139452389386 624.6363192348904Q1644.0860411864264 627.5404371617865 1644.0860411864264 632.6802649212932L1644.0860411864264 632.6802649212932L1644.0860411864264 637.8431412357752Q1644.0860411864264 644.1353967440502 1647.0593047782486 647.0395146709463Q1650.0556169250463 649.9436325978425 1656.693600757952 649.9436325978425L1656.693600757952 649.9436325978425Q1661.349408862976 649.9436325978425 1667.2267903816942 648.2149909746901Q1673.127220455388 646.4633007965622 1679.0967961940078 642.8216291104543Q1685.0663719326276 639.1569088693711 1690.0448598073067 633.5100129004063L1690.0448598073067 633.5100129004063L1690.0448598073067 643.9740568592226Q1688.2240239642529 646.3019609117347 1684.8128378278984 649.3674187234583Q1681.42470024652 652.432876535182 1676.6997464765695 655.3369944620782Q1671.9517441516446 658.2411123889743 1666.2357025177535 660.1541424519298Q1660.5196608838628 662.0671725148852 1653.8816770509575 662.0671725148852L1653.8816770509575 662.0671725148852Q1646.7366250085938 662.0671725148852 1641.2510689244564 659.4857343576441Q1635.788561395295 656.9273447553785 1632.7231035835712 651.8566626607978Q1629.634597216872 646.7859805662173 1629.634597216872 639.5026371940016L1629.634597216872 639.5026371940016L1629.634597216872 630.6980891934118Q1629.634597216872 621.2481816535116 1635.5350272905657 616.0161596741034Q1641.4354573642595 610.7841376946952 1652.0377926529281 610.7841376946952L1652.0377926529281 610.7841376946952ZM1725.4013431395188 544.4042993656404L1739.507058784443 544.4042993656404L1739.3457188996153 638.3271608902579Q1739.3457188996153 643.6513770895675 1742.2498368265115 646.3711065766607Q1745.1539547534076 649.1138846187293 1750.455122397742 649.1138846187293L1750.455122397742 649.1138846187293L1758.2455339794155 649.1138846187293L1759.9050299376422 659.9006083472007Q1758.4299224192187 660.5690164414864 1755.6871443771497 661.0760846509444Q1752.9443663350812 661.5601043054271 1750.040248408185 661.8136384101562Q1747.136130481289 662.0671725148852 1745.1539547534076 662.0671725148852L1745.1539547534076 662.0671725148852Q1736.18806686799 662.0671725148852 1730.7947050037546 656.7429563155756Q1725.4013431395188 651.4417886712413 1725.4013431395188 641.4848129218831L1725.4013431395188 641.4848129218831L1725.4013431395188 544.4042993656404ZM1935.3275818551542 546.0637953238668L1950.7470651336744 546.0637953238668L1927.514121718505 656.2589366610929Q1927.0301020640227 658.0797725041468 1925.5319459906236 659.3243944728166Q1924.033789917225 660.5690164414864 1921.7058858647129 660.5690164414864L1921.7058858647129 660.5690164414864L1905.1109262824493 660.5690164414864Q1902.9674106697403 660.5690164414864 1901.37706037644 659.3243944728166Q1899.809758638115 658.0797725041468 1899.4870788684598 656.0975967762653L1899.4870788684598 656.0975967762653L1881.5553030976248 569.9651468333216Q1880.8868950033393 566.6461549168689 1880.2184869090538 563.3963086653423Q1879.5731273697434 560.169510968791 1878.9047192754579 557.0118589371658L1878.9047192754579 557.0118589371658L1875.4243874741774 557.0118589371658Q1874.7559793798919 560.169510968791 1874.179765505508 563.4885028852437Q1873.580503076148 566.8074948016965 1872.935143536838 569.9651468333216L1872.935143536838 569.9651468333216L1855.1647076508307 656.0975967762653Q1854.6806879963478 658.0797725041468 1853.0903377030477 659.3243944728166Q1851.523035964723 660.5690164414864 1849.3564717970385 660.5690164414864L1849.3564717970385 660.5690164414864L1832.6001723299473 660.5690164414864Q1830.4336081622628 660.5690164414864 1828.8663064239377 659.3243944728166Q1827.299004685613 658.0797725041468 1826.9532763609823 656.2589366610929L1826.9532763609823 656.2589366610929L1803.7203329458134 546.0637953238668L1819.1628647793086 546.0637953238668L1837.071591995168 635.3538972984356Q1837.7400000894536 638.4885007750854 1838.247068298912 642.0610267962672Q1838.7310879533948 645.6335528174491 1839.3994960476803 649.4596129433598L1839.3994960476803 649.4596129433598L1843.225556173591 649.4596129433598Q1843.8939642678765 645.6335528174491 1844.539323807187 642.1532210161688Q1845.2077319014725 638.6728892148884 1845.876139995758 635.3538972984356L1845.876139995758 635.3538972984356L1863.6235273267903 550.8809433137184Q1863.9692556514206 548.7143791460339 1865.5365573897457 547.4006115124381Q1867.1269076830458 546.0637953238668 1869.2704232957549 546.0637953238668L1869.2704232957549 546.0637953238668L1885.196974783733 546.0637953238668Q1887.363538951417 546.0637953238668 1888.861695024816 547.4006115124381Q1890.3598510982147 548.7143791460339 1890.8438707526975 550.8809433137184L1890.8438707526975 550.8809433137184L1908.6143066387049 635.3538972984356Q1909.444054617818 638.9955689845435 1910.0202684922024 642.4759007858238Q1910.5964823665863 645.9562325871041 1910.9191621362415 649.4596129433598L1910.9191621362415 649.4596129433598L1915.0679020318075 649.4596129433598Q1915.5749702412654 645.9562325871041 1916.0820384507238 642.4067551208977Q1916.5660581052061 638.8342290997159 1917.234466199492 635.5152371832633L1917.234466199492 635.5152371832633L1935.3275818551542 546.0637953238668ZM2003.0211878178052 577.7555584149954L2003.0211878178052 577.7555584149954Q2016.9655635779018 577.7555584149954 2025.3552375889349 581.9042983105613Q2033.721863044993 586.0530382061272 2037.386583286076 595.4338000811013Q2041.0282549721842 604.8145619560754 2041.0282549721842 620.2340452345954L2041.0282549721842 620.2340452345954Q2041.0282549721842 635.6765770680909 2037.386583286076 645.0573389430649Q2033.721863044993 654.438100818039 2025.3552375889349 658.5868407136048Q2016.9655635779018 662.7355806091707 2003.0211878178052 662.7355806091707L2003.0211878178052 662.7355806091707Q1989.2612004975113 662.7355806091707 1980.8715264864782 658.5868407136048Q1972.5049010304201 654.438100818039 1968.771035124411 645.0573389430649Q1965.0371692184012 635.6765770680909 1965.0371692184012 620.2340452345954L1965.0371692184012 620.2340452345954Q1965.0371692184012 604.8145619560754 1968.771035124411 595.4338000811013Q1972.5049010304201 586.0530382061272 1980.8715264864782 581.9042983105613Q1989.2612004975113 577.7555584149954 2003.0211878178052 577.7555584149954ZM2003.0211878178052 589.7177584472106L2003.0211878178052 589.7177584472106Q1994.2396883721908 589.7177584472106 1989.1690062776097 592.4374879343037Q1984.1213727380045 595.1802659763723 1981.95480857032 601.8182498092779Q1979.7882444026359 608.4562336421833 1979.7882444026359 620.2340452345954L1979.7882444026359 620.2340452345954Q1979.7882444026359 632.034905381983 1981.95480857032 638.6728892148884Q1984.1213727380045 645.3108730477938 1989.1690062776097 648.0306025348871Q1994.2396883721908 650.7733805769557 2003.0211878178052 650.7733805769557L2003.0211878178052 650.7733805769557Q2011.8257358183946 650.7733805769557 2016.9655635779018 648.0306025348871Q2022.1053913374085 645.3108730477938 2024.2719555050926 638.6728892148884Q2026.4385196727771 632.034905381983 2026.4385196727771 620.2340452345954L2026.4385196727771 620.2340452345954Q2026.4385196727771 608.4562336421833 2024.2719555050926 601.8182498092779Q2022.1053913374085 595.1802659763723 2016.9655635779018 592.4374879343037Q2011.8257358183946 589.7177584472106 2003.0211878178052 589.7177584472106ZM2063.1087706385847 579.7607826978523L2074.0568342518836 579.7607826978523L2075.877670094938 595.1802659763723L2077.214486283509 597.6695099137119L2077.214486283509 660.5690164414864L2063.1087706385847 660.5690164414864L2063.1087706385847 579.7607826978523ZM2110.058677123406 577.7555584149954L2113.7233973644893 577.7555584149954L2112.0639014062626 591.0315260808063L2107.4080933012388 591.0315260808063Q2100.2860898138506 591.0315260808063 2093.141037771487 593.9356440077025Q2085.9959857291237 596.8397619345988 2075.7163302101103 602.1639781339084L2075.7163302101103 602.1639781339084L2074.563902461342 593.3594301333184Q2083.506741791784 586.0530382061272 2092.5648238971025 581.9042983105613Q2101.5998574474465 577.7555584149954 2110.058677123406 577.7555584149954L2110.058677123406 577.7555584149954ZM2129.811288737295 544.4042993656404L2143.917004382219 544.4042993656404L2143.7556644973915 638.3271608902579Q2143.7556644973915 643.6513770895675 2146.6597824242876 646.3711065766607Q2149.5639003511833 649.1138846187293 2154.865067995518 649.1138846187293L2154.865067995518 649.1138846187293L2162.6785281321672 649.1138846187293L2164.3380240903934 659.9006083472007Q2162.8398680169944 660.5690164414864 2160.0970899749263 661.0760846509444Q2157.3543119328574 661.5601043054271 2154.4501940059613 661.8136384101562Q2151.546076079065 662.0671725148852 2149.5639003511833 662.0671725148852L2149.5639003511833 662.0671725148852Q2140.5980124657663 662.0671725148852 2135.2046506015304 656.7429563155756Q2129.811288737295 651.4417886712413 2129.811288737295 641.4848129218831L2129.811288737295 641.4848129218831L2129.811288737295 544.4042993656404ZM2205.825423046053 577.7555584149954L2205.825423046053 577.7555584149954Q2213.7771745125538 577.7555584149954 2221.5906346492034 579.8299283627784Q2229.381046230877 581.9042983105613 2236.5260982732407 586.2143780909548L2236.5260982732407 586.2143780909548L2235.696350294127 595.0189260915447Q2227.8828901574784 592.6910220390328 2221.913314418858 591.3772544054368Q2215.9437386802383 590.0404382168656 2209.1444149625054 590.0404382168656L2209.1444149625054 590.0404382168656Q2202.1607028049693 590.0404382168656 2197.9428172444773 592.4374879343037Q2193.7018831290097 594.8575862067172 2191.7197074011287 601.334230154795Q2189.714483118272 607.7878255478977 2189.714483118272 619.7500255801127L2189.714483118272 619.7500255801127Q2189.714483118272 631.6891770573525 2191.627513181227 638.3271608902579Q2193.5405432441826 644.9651447231633 2197.689283139748 647.6157285453305Q2201.8380230353146 650.289360922473 2208.3146669833923 650.289360922473L2208.3146669833923 650.289360922473Q2213.1318149732438 650.289360922473 2217.0270207640806 649.0447389538033Q2220.9222265549174 647.8001169851334 2225.3245005552126 644.9651447231633Q2229.7267745555077 642.1532210161688 2235.696350294127 637.8431412357752L2235.696350294127 637.8431412357752L2237.0101179277235 647.8001169851334Q2230.3721340948177 653.9310326085808 2221.913314418858 658.2411123889743Q2213.454494742899 662.5511921693678 2203.6588588783684 662.5511921693678L2203.6588588783684 662.5511921693678Q2188.400715484676 662.5511921693678 2181.831877316696 651.7644684408965Q2175.2860877036924 640.9777447124251 2175.2860877036924 619.9113654649402L2175.2860877036924 619.9113654649402Q2175.2860877036924 604.1461538617898 2178.605079620145 594.9267318716433Q2181.924071536598 585.7303584364722 2188.723395254331 581.7429584257338Q2195.522718972064 577.7555584149954 2205.825423046053 577.7555584149954ZM2233.8755144510733 544.4042993656404L2247.9812300959975 544.4042993656404L2247.9812300959975 660.5690164414864L2237.0101179277235 660.5690164414864L2235.350621969497 646.4633007965622L2233.8755144510733 645.3108730477938L2233.8755144510733 589.8790983320381L2234.866602315014 587.3898543946985Q2234.1981942207285 582.7340462896746 2234.036854335901 578.4239665092811Q2233.8755144510733 574.1138867288876 2233.8755144510733 569.2967387390361L2233.8755144510733 569.2967387390361L2233.8755144510733 544.4042993656404ZM2351.861067369973 544.565639250468L2351.861067369973 544.565639250468Q2365.621054690267 544.565639250468 2373.688048931645 547.7232912820932Q2381.731994618048 550.8809433137184 2385.212326419328 558.6022092304661Q2388.6926582206083 566.3004265922384 2388.6926582206083 580.4061422371626L2388.6926582206083 580.4061422371626Q2388.6926582206083 594.5118578820867 2385.30452063923 602.3253180187359Q2381.8933345028754 610.1157296004096 2374.172068586128 613.1811874121333Q2366.45080266938 616.2696937788324 2353.5205633281994 616.2696937788324L2353.5205633281994 616.2696937788324Q2346.536851170664 616.2696937788324 2340.152401442487 615.923965454202Q2333.7679517143106 615.6012856845468 2328.4667840699763 615.0250718101627Q2323.142567870667 614.4258093808031 2319.4087019646577 613.7804498414929Q2315.674836058648 613.1120417472073 2314.1766799852494 612.6049735377492L2314.1766799852494 612.6049735377492L2314.6837481947073 603.6390856523317Q2323.4882961952976 603.6390856523317 2332.9382037351975 603.6390856523317Q2342.388111275098 603.6390856523317 2351.6997274851456 603.6390856523317L2351.6997274851456 603.6390856523317Q2359.9972072762775 603.4777457675042 2364.883500931055 601.5647157045487Q2369.7697945858326 599.6747341965687 2371.8441645336156 594.6040521019881Q2373.9185344813986 589.5333700074076 2373.9185344813986 580.4061422371626L2373.9185344813986 580.4061422371626Q2373.9185344813986 571.1175745820899 2371.8441645336156 566.1390867074108Q2369.7697945858326 561.1605988327317 2364.883500931055 559.1784231048503Q2359.9972072762775 557.1731988219933 2351.6997274851456 557.1731988219933L2351.6997274851456 557.1731988219933Q2338.078031494704 557.1731988219933 2328.213249965247 557.3575872617963Q2318.3254198808154 557.5189271466238 2314.845088079535 557.841606916279L2314.845088079535 557.841606916279L2312.517184027023 546.0637953238668Q2318.8324880902737 545.3953872295813 2324.3180441744107 545.072707459926Q2329.780551703572 544.7269791352956 2336.25719565165 544.6578334703695Q2342.733839599728 544.565639250468 2351.861067369973 544.565639250468ZM2312.517184027023 546.0637953238668L2327.1299678814053 546.0637953238668L2327.1299678814053 660.5690164414864L2312.517184027023 660.5690164414864L2312.517184027023 546.0637953238668ZM2408.9523380439555 579.7607826978523L2419.9004016572544 579.7607826978523L2421.7212375003082 595.1802659763723L2423.0580536888797 597.6695099137119L2423.0580536888797 660.5690164414864L2408.9523380439555 660.5690164414864L2408.9523380439555 579.7607826978523ZM2455.9022445287765 577.7555584149954L2459.5669647698596 577.7555584149954L2457.9074688116334 591.0315260808063L2453.251660706609 591.0315260808063Q2446.106608664246 591.0315260808063 2438.9846051768577 593.9356440077025Q2431.839553134494 596.8397619345988 2421.5598976154806 602.1639781339084L2421.5598976154806 602.1639781339084L2420.384421311737 593.3594301333184Q2429.3503091971543 586.0530382061272 2438.4083913024733 581.9042983105613Q2447.443424852817 577.7555584149954 2455.9022445287765 577.7555584149954L2455.9022445287765 577.7555584149954ZM2509.674523286306 577.7555584149954L2509.674523286306 577.7555584149954Q2523.6188990464025 577.7555584149954 2531.9855245024605 581.9042983105613Q2540.3751985134936 586.0530382061272 2544.0168701996017 595.4338000811013Q2547.681590440685 604.8145619560754 2547.681590440685 620.2340452345954L2547.681590440685 620.2340452345954Q2547.681590440685 635.6765770680909 2544.0168701996017 645.0573389430649Q2540.3751985134936 654.438100818039 2531.9855245024605 658.5868407136048Q2523.6188990464025 662.7355806091707 2509.674523286306 662.7355806091707L2509.674523286306 662.7355806091707Q2495.891487411037 662.7355806091707 2487.524861954979 658.5868407136048Q2479.1351879439458 654.438100818039 2475.401322037936 645.0573389430649Q2471.667456131927 635.6765770680909 2471.667456131927 620.2340452345954L2471.667456131927 620.2340452345954Q2471.667456131927 604.8145619560754 2475.401322037936 595.4338000811013Q2479.1351879439458 586.0530382061272 2487.524861954979 581.9042983105613Q2495.891487411037 577.7555584149954 2509.674523286306 577.7555584149954ZM2509.674523286306 589.7177584472106L2509.674523286306 589.7177584472106Q2500.869975285716 589.7177584472106 2495.822341746111 592.4374879343037Q2490.75165965153 595.1802659763723 2488.608144038821 601.8182498092779Q2486.441579871137 608.4562336421833 2486.441579871137 620.2340452345954L2486.441579871137 620.2340452345954Q2486.441579871137 632.034905381983 2488.608144038821 638.6728892148884Q2490.75165965153 645.3108730477938 2495.822341746111 648.0306025348871Q2500.869975285716 650.7733805769557 2509.674523286306 650.7733805769557L2509.674523286306 650.7733805769557Q2518.4790712868958 650.7733805769557 2523.6188990464025 648.0306025348871Q2528.758726805909 645.3108730477938 2530.9252909735937 638.6728892148884Q2533.0688065863023 632.034905381983 2533.0688065863023 620.2340452345954L2533.0688065863023 620.2340452345954Q2533.0688065863023 608.4562336421833 2530.9252909735937 601.8182498092779Q2528.758726805909 595.1802659763723 2523.6188990464025 592.4374879343037Q2518.4790712868958 589.7177584472106 2509.674523286306 589.7177584472106ZM2613.2316807906263 577.7555584149954L2613.2316807906263 577.7555584149954Q2628.1671444146637 577.7555584149954 2635.289147902052 587.4590000596246Q2642.4341999444155 597.1854902592293 2642.4341999444155 619.9113654649402L2642.4341999444155 619.9113654649402Q2642.4341999444155 630.3754094237565 2640.6825097662877 638.3271608902579Q2638.9538681431354 646.3019609117347 2634.8742739124955 651.6953227759703Q2630.817728236831 657.0886846402061 2623.9262102991966 659.8314626822746Q2617.034692361562 662.5511921693678 2606.593696957721 662.5511921693678L2606.593696957721 662.5511921693678Q2602.444957062155 662.5511921693678 2597.6278090723035 662.2285123997127Q2592.810661082452 661.9058326300576 2587.8321732077725 661.1452303158705Q2582.8536853330934 660.4076765566588 2578.128731563144 659.3243944728166Q2573.4037777931935 658.2411123889743 2569.416377782455 656.7429563155756L2569.416377782455 656.7429563155756L2580.710169720385 647.1317088908479Q2585.1815893856055 648.4454765244437 2589.5838633859007 649.275224503557Q2593.9861373861954 650.1049724826701 2598.2040229466875 650.3585065873991Q2602.444957062155 650.6120406921282 2606.2479686330903 650.6120406921282L2606.2479686330903 650.6120406921282Q2614.0614287697395 650.4507008073006 2618.78638253969 647.6157285453305Q2623.51133630964 644.8038048383359 2625.6779004773243 638.0736267855289Q2627.821416090033 631.3664972876973 2627.821416090033 619.9113654649402L2627.821416090033 619.9113654649402Q2627.821416090033 608.8019619668138 2626.161920131807 602.2331237988344Q2624.5024241735805 595.6873341858304 2620.2845386130884 592.8523619238604Q2616.043604497621 590.0404382168656 2608.2531929159472 590.0404382168656L2608.2531929159472 590.0404382168656Q2601.615209083042 590.0404382168656 2595.645633344422 593.6129642380474Q2589.6530090508268 597.1854902592293 2581.862597469153 603.3164058826766L2581.862597469153 603.3164058826766L2580.871509605212 593.8664983427764Q2585.8499974798915 588.5422821434668 2591.0820194592998 584.969756122285Q2596.290992883732 581.4202786560786 2601.9378888526967 579.5763942580494Q2607.5847848216617 577.7555584149954 2613.2316807906263 577.7555584149954ZM2569.416377782455 544.4042993656404L2583.5220934273793 544.4042993656404L2583.5220934273793 574.5979063833703Q2583.5220934273793 579.7607826978523 2583.2685593226506 584.0708624782458Q2583.0150252179214 588.3809422586393 2582.0239373539803 592.8523619238604L2582.0239373539803 592.8523619238604L2583.3607535425517 595.1802659763723L2583.5220934273793 657.4113644098611L2569.416377782455 656.7429563155756L2569.416377782455 544.4042993656404ZM2664.5147156108164 544.4042993656404L2678.6204312557406 544.4042993656404L2678.4360428159375 638.3271608902579Q2678.4360428159375 643.6513770895675 2681.3401607428336 646.3711065766607Q2684.2442786697297 649.1138846187293 2689.5684948690396 649.1138846187293L2689.5684948690396 649.1138846187293L2697.358906450713 649.1138846187293L2699.0184024089394 659.9006083472007Q2697.520246335541 660.5690164414864 2694.8005168484474 661.0760846509444Q2692.057738806379 661.5601043054271 2689.153620879483 661.8136384101562Q2686.2495029525867 662.0671725148852 2684.2442786697297 662.0671725148852L2684.2442786697297 662.0671725148852Q2675.3014393392878 662.0671725148852 2669.908077475052 656.7429563155756Q2664.5147156108164 651.4417886712413 2664.5147156108164 641.4848129218831L2664.5147156108164 641.4848129218831L2664.5147156108164 544.4042993656404ZM2746.821105427849 577.7555584149954L2746.821105427849 577.7555584149954Q2765.0755609683392 577.7555584149954 2773.2808465395697 584.393542247901Q2781.5091806657756 591.0315260808063 2781.5091806657756 604.1461538617898L2781.5091806657756 604.1461538617898Q2781.6705205506028 614.9328775902611 2777.014712445579 620.9946475487825Q2772.3819528955305 627.0564175073039 2762.240588706369 627.0564175073039L2762.240588706369 627.0564175073039L2715.1293423367206 627.0564175073039L2715.1293423367206 616.0853053390294L2758.598917020261 616.0853053390294Q2764.0844731043985 616.0853053390294 2765.743969062625 612.3514394330202Q2767.4034650208514 608.6175735270108 2767.4034650208514 604.1461538617898L2767.4034650208514 604.1461538617898Q2767.2190765810483 596.3557422801159 2762.7476569158275 593.0367503636633Q2758.2762372506063 589.7177584472106 2747.489513522135 589.7177584472106L2747.489513522135 589.7177584472106Q2738.6849655215447 589.7177584472106 2733.6142834269644 592.2761480494762Q2728.5666498873593 594.8575862067172 2726.4922799395763 601.2420359348937Q2724.4179099917933 607.6264856630701 2724.4179099917933 619.0816174858271L2724.4179099917933 619.0816174858271Q2724.4179099917933 632.034905381983 2726.9762995940587 638.8342290997159Q2729.5577377512996 645.6335528174491 2735.2046337202646 648.1227967547886Q2740.851529689229 650.6120406921282 2750.140097344302 650.6120406921282L2750.140097344302 650.6120406921282Q2756.61674129238 650.6120406921282 2764.314958654152 650.035826817744Q2772.0362245709 649.4596129433598 2778.1901887493227 648.6298649642466L2778.1901887493227 648.6298649642466L2779.6652962677463 658.0797725041468Q2775.8622846968105 659.5779285775457 2770.3075829477475 660.5690164414864Q2764.7298326437085 661.5601043054271 2758.8524511249902 662.0671725148852Q2752.952021051297 662.5511921693678 2748.319261501248 662.5511921693678L2748.319261501248 662.5511921693678Q2734.374885741151 662.5511921693678 2725.9160660651924 658.3333066088758Q2717.4341978342572 654.0923724934084 2713.5389920434204 644.7116106184344Q2709.643786252583 635.3538972984356 2709.643786252583 619.9113654649402L2709.643786252583 619.9113654649402Q2709.643786252583 603.9848139769622 2713.5389920434204 594.7653919868158Q2717.4341978342572 585.5690185516446 2725.662531960463 581.6507642058323Q2733.867817531693 577.7555584149954 2746.821105427849 577.7555584149954ZM2901.1542295429017 577.7555584149954L2901.1542295429017 577.7555584149954Q2911.5952249467423 577.7555584149954 2917.172975250781 583.4024543839602Q2922.7276769998443 589.0493503529249 2922.7276769998443 599.9974139662238L2922.7276769998443 599.9974139662238L2922.7276769998443 660.5690164414864L2908.7833012397477 660.5690164414864L2908.7833012397477 603.9848139769622Q2908.62196135492 596.5170821649435 2905.78698909295 593.1058960285893Q2902.975065385955 589.7177584472106 2896.175741668222 589.7177584472106L2896.175741668222 589.7177584472106Q2891.865661887829 589.7177584472106 2887.9474075420167 591.1237203007079Q2884.05220175118 592.5296821542051 2879.4194422011315 595.5259943010028Q2874.763634096107 598.499257892825 2868.125650263202 603.3164058826766L2868.125650263202 603.3164058826766L2867.2959022840882 593.3594301333184Q2876.1004502846786 585.5690185516446 2884.3979300758106 581.6507642058323Q2892.695409866942 577.7555584149954 2901.1542295429017 577.7555584149954ZM2802.7368997980875 579.7607826978523L2814.3533715056724 579.7607826978523L2815.344459369613 595.1802659763723L2816.8426154430117 597.6695099137119L2816.8426154430117 660.5690164414864L2802.7368997980875 660.5690164414864L2802.7368997980875 579.7607826978523ZM2848.2116987644854 577.7555584149954L2848.2116987644854 577.7555584149954Q2858.491354283499 577.7555584149954 2863.976910367636 583.3102601640587Q2869.462466451773 588.8880104680973 2869.6238063366004 599.9974139662238L2869.6238063366004 599.9974139662238L2869.6238063366004 660.5690164414864L2856.002110346159 660.5690164414864L2856.002110346159 603.9848139769622Q2856.002110346159 596.171353840313 2852.8675068695093 592.9445561437618Q2849.709854837884 589.7177584472106 2843.394550774634 589.7177584472106L2843.394550774634 589.7177584472106Q2839.245810879068 589.7177584472106 2835.350605088231 591.0315260808063Q2831.455399297394 592.3683422693776 2826.7304455274443 595.3416058611999Q2821.9824432025184 598.3379180079975 2815.1831194847855 603.3164058826766L2815.1831194847855 603.3164058826766L2814.192031620845 593.3594301333184Q2822.9965796214346 585.5690185516446 2831.2940594125666 581.6507642058323Q2839.591539203698 577.7555584149954 2848.2116987644854 577.7555584149954ZM2975.0017996839747 577.7555584149954L2975.0017996839747 577.7555584149954Q2980.302967328309 577.7555584149954 2986.272543066929 578.101286739626Q2992.265167360524 578.4239665092811 2998.142548879243 578.931034718739Q3004.042978952936 579.4150543732218 3009.0214668276153 580.244802352335L3009.0214668276153 580.244802352335L3007.8459905238715 590.5475064263237Q3000.2169188270254 590.2017781016932 2992.495652910278 589.9482439969642Q2984.7974355485053 589.7177584472106 2977.145315296684 589.7177584472106L2977.145315296684 589.7177584472106Q2969.6775834846653 589.5333700074076 2965.3675037042717 590.0404382168656Q2961.057423923878 590.5475064263237 2959.1443938609227 592.6910220390328Q2957.231363797968 594.8575862067172 2957.231363797968 599.9974139662238L2957.231363797968 599.9974139662238Q2957.231363797968 606.3127180294742 2960.227675944765 608.2948937573557Q2963.2239880915627 610.2770694852372 2969.0322239453553 611.6138856738085L2969.0322239453553 611.6138856738085L2992.5878471301794 616.9150533181427Q3002.2221431098824 619.2429573706547 3006.785756995005 624.0601053605062Q3011.3493708801275 628.8772533503577 3011.3493708801275 639.1569088693711L3011.3493708801275 639.1569088693711Q3011.3493708801275 649.1138846187293 3007.6155049741183 654.0923724934084Q3003.881639068109 659.0708603680876 2996.229518816287 660.730356326314Q2988.600447119441 662.3898522845402 2976.822635527029 662.3898522845402L2976.822635527029 662.3898522845402Q2972.5125557466354 662.3898522845402 2963.961541850774 662.0671725148852Q2955.4105279549135 661.7214441902547 2945.1308724359 660.0619482320283L2945.1308724359 660.0619482320283L2946.1219602998412 649.782292713015Q2950.1093603105796 649.9436325978425 2954.5807799758004 650.1971667025716Q2959.075248195997 650.4507008073006 2963.961541850774 650.4507008073006Q2968.847835505552 650.4507008073006 2974.010711820034 650.4507008073006L2974.010711820034 650.4507008073006Q2983.137939590279 650.4507008073006 2988.277767349786 649.6209528281875Q2993.4175951092925 648.7912048490742 2995.584159276977 646.3711065766607Q2997.727674889686 643.9740568592226 2997.727674889686 639.1569088693711L2997.727674889686 639.1569088693711Q2997.727674889686 633.1873331307513 2994.2473430884056 631.2051574028698Q2990.7670112871256 629.1999331200129 2984.958775433333 627.886165486417L2984.958775433333 627.886165486417L2961.725832018164 622.5619492871074Q2955.0878481852583 620.902453328881 2951.10044817452 618.1596752868124Q2947.113048163782 615.4399457997192 2945.2922123207277 611.0376717994243Q2943.471376477674 606.6353977991294 2943.471376477674 599.9974139662238L2943.471376477674 599.9974139662238Q2943.471376477674 590.5475064263237 2946.7903683941263 585.7303584364722Q2950.1093603105796 580.9132104466206 2957.07002391314 579.2537144883943Q2964.0537360706758 577.5942185301678 2975.0017996839747 577.7555584149954Z " fill="#ffffff" transform="matrix(0.29056739107056084,0,0,0.2905673910705609,0,120.11505667021524)"/></g></svg>