<svg xmlns="http://www.w3.org/2000/svg" xmlns:xlink="http://www.w3.org/1999/xlink" xmlns:lucid="lucid" width="1660" height="1900"><g transform="translate(7742.0570638627105 5241.665718021784)" lucid:page-tab-id="0_0"><path d="M-7740.56-5234.17a6 6 0 0 1 6-6h1645a6 6 0 0 1 6 6v1885a6 6 0 0 1-6 6h-1645a6 6 0 0 1-6-6z" stroke="#000" stroke-width="3" fill-opacity="0"/><path d="M-7660.56-5122.67h150v63h-150v-63z" fill="#29aae1"/><path d="M-7649.3-5055.6h130.04c.75 0 1.35.62 1.35 1.46 0 .77-.6 1.4-1.36 1.4h-130.05c-.76 0-1.36-.63-1.36-1.4 0-.84.6-1.47 1.35-1.47z" fill="#2188b4"/><path d="M-7556.3-5113.7h40.64v44.86h-40.65v-44.87z" fill="#fff"/><path d="M-7554.5-5112.38h37.2v41.72h-37.2v-41.72z" fill="#54bbe7"/><path d="M-7641.2-5100.48c0 2.66-2.1 4.83-4.5 4.83-2.56 0-4.66-2.17-4.66-4.83s2.1-4.83 4.65-4.83c2.4 0 4.5 2.16 4.5 4.82zM-7617.96-5100.48c0 2.66-1.95 4.83-4.5 4.83s-4.65-2.17-4.65-4.83 2.1-4.83 4.64-4.83c2.55 0 4.5 2.16 4.5 4.82zM-7592.76-5100.48c0 2.66-1.95 4.83-4.5 4.83s-4.5-2.17-4.5-4.83 1.95-4.83 4.5-4.83 4.5 2.16 4.5 4.82zM-7568.76-5100.48c0 2.66-1.95 4.83-4.5 4.83s-4.65-2.17-4.65-4.83 2.1-4.83 4.64-4.83c2.55 0 4.5 2.16 4.5 4.82zM-7517.46-5091.52c0 11.48-8.25 20.8-18.6 20.8-10.2 0-18.6-9.32-18.6-20.8s8.4-20.8 18.6-20.8c10.35 0 18.6 9.32 18.6 20.8z" fill="#fff"/><path d="M-7519.7-5091.52c0 9.8-7.2 17.78-16.2 17.78s-16.2-7.98-16.2-17.78c0-9.87 7.2-17.85 16.2-17.85s16.2 7.98 16.2 17.85z" fill="#54bbe7"/><path d="M-7536.96-5109.58h2.4v36.4h-2.4v-36.4z" fill="#fff"/><path d="M-7553.6-5092.78h35.24v2.3h-35.25v-2.3zM-7548.5-5104.2h25.34v1.34h-25.35v-1.33z" fill="#fff"/><path d="M-7548.66-5103.28h1.5v24.08h-1.5v-24.08z" fill="#fff"/><path d="M-7548.06-5079.97h25.05v1.6h-25.06v-1.6z" fill="#fff"/><path d="M-7524.66-5103.28h1.2v24.78h-1.2v-24.78z" fill="#fff"/><use xlink:href="#a" transform="matrix(1,0,0,1,-7690.5570638627105,-5052.665718021784) translate(4.093967013888886 23.08376736111111)"/><use xlink:href="#b" transform="matrix(1,0,0,1,-7690.5570638627105,-5052.665718021784) translate(91.51801215277777 23.08376736111111)"/><use xlink:href="#c" transform="matrix(1,0,0,1,-7690.5570638627105,-5052.665718021784) translate(152.72677951388889 23.08376736111111)"/><path d="M-7430.56-5122.67h150v63h-150v-63z" fill="#29aae1"/><path d="M-7419.3-5055.6h130.04c.75 0 1.35.62 1.35 1.46 0 .77-.6 1.4-1.36 1.4h-130.05c-.76 0-1.36-.63-1.36-1.4 0-.84.6-1.47 1.35-1.47z" fill="#2188b4"/><path d="M-7326.3-5113.7h40.64v44.86h-40.65v-44.87z" fill="#fff"/><path d="M-7324.5-5112.38h37.2v41.72h-37.2v-41.72z" fill="#54bbe7"/><path d="M-7411.2-5100.48c0 2.66-2.1 4.83-4.5 4.83-2.56 0-4.66-2.17-4.66-4.83s2.1-4.83 4.65-4.83c2.4 0 4.5 2.16 4.5 4.82zM-7387.96-5100.48c0 2.66-1.95 4.83-4.5 4.83s-4.65-2.17-4.65-4.83 2.1-4.83 4.64-4.83c2.55 0 4.5 2.16 4.5 4.82zM-7362.76-5100.48c0 2.66-1.95 4.83-4.5 4.83s-4.5-2.17-4.5-4.83 1.95-4.83 4.5-4.83 4.5 2.16 4.5 4.82zM-7338.76-5100.48c0 2.66-1.95 4.83-4.5 4.83s-4.65-2.17-4.65-4.83 2.1-4.83 4.64-4.83c2.55 0 4.5 2.16 4.5 4.82zM-7287.46-5091.52c0 11.48-8.25 20.8-18.6 20.8-10.2 0-18.6-9.32-18.6-20.8s8.4-20.8 18.6-20.8c10.35 0 18.6 9.32 18.6 20.8z" fill="#fff"/><path d="M-7289.7-5091.52c0 9.8-7.2 17.78-16.2 17.78s-16.2-7.98-16.2-17.78c0-9.87 7.2-17.85 16.2-17.85s16.2 7.98 16.2 17.85z" fill="#54bbe7"/><path d="M-7306.96-5109.58h2.4v36.4h-2.4v-36.4z" fill="#fff"/><path d="M-7323.6-5092.78h35.24v2.3h-35.25v-2.3zM-7318.5-5104.2h25.34v1.34h-25.35v-1.33z" fill="#fff"/><path d="M-7318.66-5103.28h1.5v24.08h-1.5v-24.08z" fill="#fff"/><path d="M-7318.06-5079.97h25.05v1.6h-25.06v-1.6z" fill="#fff"/><path d="M-7294.66-5103.28h1.2v24.78h-1.2v-24.78z" fill="#fff"/><use xlink:href="#d" transform="matrix(1,0,0,1,-7460.5570638627105,-5052.665718021784) translate(65.28645833333334 23.08376736111111)"/><path d="M-7200.56-5160.17h200v145h-200z" fill="none"/><path d="M-7200.56-5160.17h46.8v17.84h-46.8v-17.84zM-7149.76-5160.17h46.6v17.84h-46.6v-17.84zM-7098.36-5160.17h46.6v17.84h-46.6v-17.84zM-7047.56-5160.17h46.8v17.84h-46.8v-17.84zM-7200.16-5139.14h22.8v18.56h-22.8v-18.56zM-7172.56-5139.14h46.8v17.83h-46.8v-17.84zM-7120.36-5139.14h46.6v17.83h-46.6v-17.84zM-7067.96-5139.14h46.8v17.83h-46.8v-17.84zM-7017.36-5139.14h16.2v18.56h-16.2v-18.56zM-7200.56-5116.96h46.8v17.7h-46.8v-17.7zM-7149.76-5116.96h46.8v17.7h-46.8v-17.7zM-7098.36-5116.96h46.8v17.7h-46.8v-17.7zM-7047.36-5116.96h46.8v17.7h-46.8v-17.7zM-7200.16-5095.64h22.8v18.56h-22.8v-18.56zM-7172.56-5095.64h46.8v17.83h-46.8v-17.84zM-7120.36-5095.64h46.8v17.83h-46.8v-17.84zM-7067.76-5095.64h46.6v17.83h-46.6v-17.84zM-7017.16-5095.64h16.2v18.56h-16.2v-18.56zM-7200.56-5074.18h46.8v17.83h-46.8v-17.83zM-7149.76-5074.18h46.8v17.83h-46.8v-17.83zM-7098.36-5074.18h46.8v17.83h-46.8v-17.83zM-7047.36-5074.18h46.8v17.83h-46.8v-17.83zM-7200.16-5054.32h22.8v18.56h-22.8v-18.56zM-7172.56-5054.32h46.8v17.84h-46.8v-17.84zM-7120.36-5054.32h46.8v17.84h-46.8v-17.84zM-7067.76-5054.32h46.6v17.84h-46.6v-17.84zM-7017.16-5054.32h16.2v18.56h-16.2v-18.56zM-7200.56-5032.86h46.8v17.84h-46.8v-17.84zM-7149.76-5032.86h46.8v17.84h-46.8v-17.84zM-7098.36-5032.86h46.8v17.84h-46.8v-17.84zM-7047.36-5032.86h46.8v17.84h-46.8v-17.84z" fill="#29aae1"/><use xlink:href="#e" transform="matrix(1,0,0,1,-7230.5570638627105,-5015.165718021784) translate(40.00434027777777 23.08376736111111)"/><use xlink:href="#f" transform="matrix(1,0,0,1,-7230.5570638627105,-5015.165718021784) translate(133.13585069444446 23.08376736111111)"/><path d="M-6920.56-5110.17h124.88v37.7h-124.88v-37.7z" fill="#29aae1"/><path d="M-6914.56-5068.14h112.88v2.93h-112.88v-2.94z" fill="#2188b4"/><path d="M-6911.56-5103.5h11.5v4.85h-11.5v-4.86z" fill="#fff"/><path d="M-6906.06-5100.22c2.88 0 2.88 0 2.88 2.65v.5c0 2.65 0 2.65-2.88 2.65-2.75 0-2.75 0-2.75-2.65v-.5c0-2.65 0-2.65 2.74-2.65zM-6893.68-5103.5h11.5v4.85h-11.5v-4.86z" fill="#fff"/><path d="M-6888.06-5100.22c2.75 0 2.75 0 2.75 2.65v.5c0 2.65 0 2.65-2.76 2.65-2.87 0-2.87 0-2.87-2.65v-.5c0-2.65 0-2.65 2.87-2.65zM-6874.8-5103.5h11.5v4.85h-11.5v-4.86z" fill="#fff"/><path d="M-6869.18-5100.22c2.75 0 2.75 0 2.75 2.65v.5c0 2.65 0 2.65-2.75 2.65-2.88 0-2.88 0-2.88-2.65v-.5c0-2.65 0-2.65 2.88-2.65zM-6856.56-5103.5h11.63v4.85h-11.63v-4.86z" fill="#fff"/><path d="M-6850.93-5100.22c2.75 0 2.75 0 2.75 2.65v.5c0 2.65 0 2.65-2.75 2.65s-2.75 0-2.75-2.65v-.5c0-2.65 0-2.65 2.75-2.65zM-6833.43-5107.24h33.5v30.73h-33.5v-30.74z" fill="#fff"/><path d="M-6832.3-5106.2h31.12v28.52h-31.13v-28.53z" fill="#54bbe7"/><path d="M-6911.3-5088.34h11.62v4.8h-11.63v-4.8z" fill="#fff"/><path d="M-6905.68-5085.1c2.75 0 2.75 0 2.75 2.65v.5c0 2.65 0 2.65-2.75 2.65s-2.75 0-2.75-2.65v-.5c0-2.65 0-2.65 2.75-2.65zM-6893.43-5088.34h11.62v4.8h-11.63v-4.8z" fill="#fff"/><path d="M-6887.8-5085.1c2.74 0 2.74 0 2.74 2.65v.5c0 2.65 0 2.65-2.75 2.65-2.76 0-2.76 0-2.76-2.65v-.5c0-2.65 0-2.65 2.75-2.65zM-6874.56-5088.34h11.63v4.8h-11.63v-4.8z" fill="#fff"/><path d="M-6868.93-5085.1c2.75 0 2.75 0 2.75 2.65v.5c0 2.65 0 2.65-2.75 2.65s-2.75 0-2.75-2.65v-.5c0-2.65 0-2.65 2.75-2.65zM-6856.18-5088.34h11.62v4.8h-11.62v-4.8z" fill="#fff"/><path d="M-6850.56-5085.1c2.75 0 2.75 0 2.75 2.65v.5c0 2.65 0 2.65-2.76 2.65-2.75 0-2.75 0-2.75-2.65v-.5c0-2.65 0-2.65 2.74-2.65zM-6828.8-5104.9l-3.13 3.06 3.25 3-.13-6.06zM-6828.8-5084.92l-3.13 3.06 3.12 3v-6.06zM-6804.93-5078.8l3.12-3.02-3.13-3.06v6.08zM-6804.8-5098.7l3.12-3-3.13-3.07v6.08z" fill="#fff"/><path d="M-6829.06-5103.1h4.75v2.43h-4.76v-2.43zM-6809.06-5102.88h4.63v2.43h-4.63v-2.43zM-6829.06-5083.12h4.63v2.43h-4.63v-2.42zM-6809.18-5082.94h4.62v2.43h-4.62v-2.44z" fill="#fff"/><path d="M-6826.56-5101.48l2.13-1.62 17.37 20.97-2.12 1.62-17.38-20.98z" fill="#fff"/><path d="M-6809.06-5102.88l2 1.76-17.37 20.47-2.13-1.75 17.5-20.48z" fill="#fff"/><path d="M-6816.43-5094.28l2 2.47-.38.26-2-2.47.37-.28zM-6818.68-5091.94l2 2.47-.38.27-2-2.47.38-.27z" fill="#54bbe7"/><use xlink:href="#g" transform="matrix(1,0,0,1,-6950.5570638627105,-5065.165718021784) translate(57.14301215277778 23.08376736111111)"/><path d="M-6669.56-5147.67h70.07v120.12h-70.06v-120.12z" fill="#29aae1"/><path d="M-6642.82-5064.27h35.63c1.13 0 1.13 0 1.13 1.2 0 1.08 0 1.08-1.12 1.08h-35.62c-1.2 0-1.2 0-1.2-1.07 0-1.2 0-1.2 1.2-1.2zM-6642.75-5058.15h35.5c1.53 0 1.53 0 1.53 1.56v.37c0 1.56 0 1.56-1.54 1.56h-35.5c-1.6 0-1.6 0-1.6-1.56v-.36c0-1.55 0-1.55 1.6-1.55zM-6642.6-5050.6h35.55c1.54 0 1.54 0 1.54 1.57v.36c0 1.56 0 1.56-1.55 1.56h-35.56c-1.55 0-1.55 0-1.55-1.57v-.36c0-1.56 0-1.56 1.54-1.56zM-6610.2-5089.35c0 3.12-2.52 5.64-5.74 5.64s-5.8-2.53-5.8-5.65c0-3.12 2.58-5.64 5.8-5.64 3.22 0 5.74 2.53 5.74 5.65z" fill="#fff"/><path d="M-6612.5-5089.35c0 1.92-1.55 3.48-3.5 3.48-1.97 0-3.58-1.56-3.58-3.48s1.6-3.48 3.57-3.48c1.95 0 3.5 1.56 3.5 3.48z" fill="#54bbe7"/><use xlink:href="#h" transform="matrix(1,0,0,1,-6699.5570638627105,-5027.665718021784) translate(4.143880208333336 21.639756944444443)"/><use xlink:href="#i" transform="matrix(1,0,0,1,-6699.5570638627105,-5027.665718021784) translate(86.09917534722223 21.639756944444443)"/><use xlink:href="#j" transform="matrix(1,0,0,1,-6699.5570638627105,-5027.665718021784) translate(40.032552083333336 48.52777777777778)"/><path d="M-6238.36-5148.12h69.2v121.3h-69.2v-121.3z" fill="#29aae1"/><path d="M-6211.96-5063.88h35.2c1.12 0 1.12 0 1.12 1.17 0 1.03 0 1.03-1.12 1.03h-35.2c-1.12 0-1.12 0-1.12-1.04 0-1.18 0-1.18 1.12-1.18zM-6211.88-5057.77h35.12c1.52 0 1.52 0 1.52 1.56v.38c0 1.56 0 1.56-1.52 1.56h-35.12c-1.52 0-1.52 0-1.52-1.56v-.4c0-1.55 0-1.55 1.52-1.55zM-6211.72-5050.1h35.12c1.52 0 1.52 0 1.52 1.56v.4c0 1.55 0 1.55-1.52 1.55h-35.12c-1.52 0-1.52 0-1.52-1.55v-.4c0-1.55 0-1.55 1.52-1.55zM-6179.64-5089.23c0 3.12-2.56 5.72-5.76 5.72-3.12 0-5.68-2.6-5.68-5.73 0-3.12 2.56-5.72 5.68-5.72 3.2 0 5.76 2.6 5.76 5.72z" fill="#fff"/><path d="M-6181.96-5089.23c0 1.95-1.6 3.5-3.52 3.5s-3.52-1.55-3.52-3.5 1.6-3.5 3.52-3.5 3.52 1.55 3.52 3.5z" fill="#54bbe7"/><path d="M-6237.08-5152.67h27.84v1.95h-27.84v-1.95zM-6205.4-5152.67h27.84v2.08h-27.84v-2.07zM-6173.8-5152.54h9.92v1.95h-9.92v-1.94z" fill="gray"/><path d="M-6166.04-5150.72h2.16v12.74h-2.16v-12.74zM-6165.96-5134.6h2.16v26h-2.16v-26zM-6165.96-5104.18h2.24v26h-2.24v-26zM-6165.88-5074.54h2.24v26h-2.24v-26zM-6165.88-5044.25h2.24v21.58h-2.24v-21.58z" fill="gray"/><path d="M-6173.8-5024.62h9.92v1.95h-9.92v-1.95zM-6206.12-5024.62h27.84v1.95h-27.84v-1.95zM-6241.72-5024.75h30.56v2.08h-30.56v-2.08zM-6243.48-5152.67h2.24v26.13h-2.24v-26.13zM-6243.56-5122.38h2.24v26.13h-2.24v-26.13zM-6243.56-5092.35h2.24v26h-2.24v-26zM-6243.56-5062.84h2.24v26.13h-2.24v-26.14z" fill="gray"/><path d="M-6243.4-5032.68h2.24v10h-2.24v-10z" fill="gray"/><use xlink:href="#k" transform="matrix(1,0,0,1,-6273.5570638627105,-5022.665718021784) translate(36.15125868055556 21.69574652777777)"/><use xlink:href="#l" transform="matrix(1,0,0,1,-6273.5570638627105,-5022.665718021784) translate(32.14735243055556 48.58376736111111)"/><use xlink:href="#m" transform="matrix(1,0,0,1,-6273.5570638627105,-5022.665718021784) translate(6.935763888888893 75.47178819444444)"/><path d="M-6433.36-4098.62h69.2v121.3h-69.2v-121.3z" fill="#29aae1"/><path d="M-6406.96-4014.38h35.2c1.12 0 1.12 0 1.12 1.17 0 1.03 0 1.03-1.12 1.03h-35.2c-1.12 0-1.12 0-1.12-1.04 0-1.18 0-1.18 1.12-1.18zM-6406.88-4008.27h35.12c1.52 0 1.52 0 1.52 1.56v.38c0 1.56 0 1.56-1.52 1.56h-35.12c-1.52 0-1.52 0-1.52-1.56v-.4c0-1.55 0-1.55 1.52-1.55zM-6406.72-4000.6h35.12c1.52 0 1.52 0 1.52 1.56v.4c0 1.55 0 1.55-1.52 1.55h-35.12c-1.52 0-1.52 0-1.52-1.55v-.4c0-1.55 0-1.55 1.52-1.55zM-6374.64-4039.73c0 3.12-2.56 5.72-5.76 5.72-3.12 0-5.68-2.6-5.68-5.73 0-3.12 2.56-5.72 5.68-5.72 3.2 0 5.76 2.6 5.76 5.72z" fill="#fff"/><path d="M-6376.96-4039.73c0 1.95-1.6 3.5-3.52 3.5s-3.52-1.55-3.52-3.5 1.6-3.5 3.52-3.5 3.52 1.55 3.52 3.5z" fill="#54bbe7"/><path d="M-6432.08-4103.17h27.84v1.95h-27.84v-1.95zM-6400.4-4103.17h27.84v2.08h-27.84v-2.07zM-6368.8-4103.04h9.92v1.95h-9.92v-1.94z" fill="gray"/><path d="M-6361.04-4101.22h2.16v12.74h-2.16v-12.74zM-6360.96-4085.1h2.16v26h-2.16v-26zM-6360.96-4054.68h2.24v26h-2.24v-26zM-6360.88-4025.04h2.24v26h-2.24v-26zM-6360.88-3994.75h2.24v21.58h-2.24v-21.58z" fill="gray"/><path d="M-6368.8-3975.12h9.92v1.95h-9.92v-1.95zM-6401.12-3975.12h27.84v1.95h-27.84v-1.95zM-6436.72-3975.25h30.56v2.08h-30.56v-2.08zM-6438.48-4103.17h2.24v26.13h-2.24v-26.13zM-6438.56-4072.88h2.24v26.13h-2.24v-26.13zM-6438.56-4042.85h2.24v26h-2.24v-26zM-6438.56-4013.34h2.24v26.13h-2.24v-26.14z" fill="gray"/><path d="M-6438.4-3983.18h2.24v10h-2.24v-10z" fill="gray"/><use xlink:href="#k" transform="matrix(1,0,0,1,-6468.5570638627105,-3973.1657180217844) translate(36.15125868055556 21.69574652777777)"/><use xlink:href="#n" transform="matrix(1,0,0,1,-6468.5570638627105,-3973.1657180217844) translate(0.8485243055555571 48.58376736111111)"/><use xlink:href="#o" transform="matrix(1,0,0,1,-6468.5570638627105,-3973.1657180217844) translate(82.80381944444444 48.58376736111111)"/><use xlink:href="#p" transform="matrix(1,0,0,1,-6468.5570638627105,-3973.1657180217844) translate(52.297092013888886 75.47178819444444)"/><path d="M-6433.36-4930.62h69.2v121.3h-69.2v-121.3z" fill="#29aae1"/><path d="M-6406.96-4846.38h35.2c1.12 0 1.12 0 1.12 1.17 0 1.03 0 1.03-1.12 1.03h-35.2c-1.12 0-1.12 0-1.12-1.04 0-1.18 0-1.18 1.12-1.18zM-6406.88-4840.27h35.12c1.52 0 1.52 0 1.52 1.56v.38c0 1.56 0 1.56-1.52 1.56h-35.12c-1.52 0-1.52 0-1.52-1.56v-.4c0-1.55 0-1.55 1.52-1.55zM-6406.72-4832.6h35.12c1.52 0 1.52 0 1.52 1.56v.4c0 1.55 0 1.55-1.52 1.55h-35.12c-1.52 0-1.52 0-1.52-1.55v-.4c0-1.55 0-1.55 1.52-1.55zM-6374.64-4871.73c0 3.12-2.56 5.72-5.76 5.72-3.12 0-5.68-2.6-5.68-5.73 0-3.12 2.56-5.72 5.68-5.72 3.2 0 5.76 2.6 5.76 5.72z" fill="#fff"/><path d="M-6376.96-4871.73c0 1.95-1.6 3.5-3.52 3.5s-3.52-1.55-3.52-3.5 1.6-3.5 3.52-3.5 3.52 1.55 3.52 3.5z" fill="#54bbe7"/><path d="M-6432.08-4935.17h27.84v1.95h-27.84v-1.95zM-6400.4-4935.17h27.84v2.08h-27.84v-2.07zM-6368.8-4935.04h9.92v1.95h-9.92v-1.94z" fill="gray"/><path d="M-6361.04-4933.22h2.16v12.74h-2.16v-12.74zM-6360.96-4917.1h2.16v26h-2.16v-26zM-6360.96-4886.68h2.24v26h-2.24v-26zM-6360.88-4857.04h2.24v26h-2.24v-26zM-6360.88-4826.75h2.24v21.58h-2.24v-21.58z" fill="gray"/><path d="M-6368.8-4807.12h9.92v1.95h-9.92v-1.95zM-6401.12-4807.12h27.84v1.95h-27.84v-1.95zM-6436.72-4807.25h30.56v2.08h-30.56v-2.08zM-6438.48-4935.17h2.24v26.13h-2.24v-26.13zM-6438.56-4904.88h2.24v26.13h-2.24v-26.13zM-6438.56-4874.85h2.24v26h-2.24v-26zM-6438.56-4845.34h2.24v26.13h-2.24v-26.14z" fill="gray"/><path d="M-6438.4-4815.18h2.24v10h-2.24v-10z" fill="gray"/><use xlink:href="#k" transform="matrix(1,0,0,1,-6468.5570638627105,-4805.165718021784) translate(36.15125868055556 21.69574652777777)"/><use xlink:href="#n" transform="matrix(1,0,0,1,-6468.5570638627105,-4805.165718021784) translate(5.3569878472222285 48.58376736111111)"/><use xlink:href="#q" transform="matrix(1,0,0,1,-6468.5570638627105,-4805.165718021784) translate(87.31228298611111 48.58376736111111)"/><use xlink:href="#r" transform="matrix(1,0,0,1,-6468.5570638627105,-4805.165718021784) translate(19.354383680555557 75.47178819444444)"/><use xlink:href="#p" transform="matrix(1,0,0,1,-6468.5570638627105,-4805.165718021784) translate(85.23980034722223 75.47178819444444)"/><path d="M-6433.36-4308.62h69.2v121.3h-69.2v-121.3z" fill="#29aae1"/><path d="M-6406.96-4224.38h35.2c1.12 0 1.12 0 1.12 1.17 0 1.03 0 1.03-1.12 1.03h-35.2c-1.12 0-1.12 0-1.12-1.04 0-1.18 0-1.18 1.12-1.18zM-6406.88-4218.27h35.12c1.52 0 1.52 0 1.52 1.56v.38c0 1.56 0 1.56-1.52 1.56h-35.12c-1.52 0-1.52 0-1.52-1.56v-.4c0-1.55 0-1.55 1.52-1.55zM-6406.72-4210.6h35.12c1.52 0 1.52 0 1.52 1.56v.4c0 1.55 0 1.55-1.52 1.55h-35.12c-1.52 0-1.52 0-1.52-1.55v-.4c0-1.55 0-1.55 1.52-1.55zM-6374.64-4249.73c0 3.12-2.56 5.72-5.76 5.72-3.12 0-5.68-2.6-5.68-5.73 0-3.12 2.56-5.72 5.68-5.72 3.2 0 5.76 2.6 5.76 5.72z" fill="#fff"/><path d="M-6376.96-4249.73c0 1.95-1.6 3.5-3.52 3.5s-3.52-1.55-3.52-3.5 1.6-3.5 3.52-3.5 3.52 1.55 3.52 3.5z" fill="#54bbe7"/><path d="M-6432.08-4313.17h27.84v1.95h-27.84v-1.95zM-6400.4-4313.17h27.84v2.08h-27.84v-2.07zM-6368.8-4313.04h9.92v1.95h-9.92v-1.94z" fill="gray"/><path d="M-6361.04-4311.22h2.16v12.74h-2.16v-12.74zM-6360.96-4295.1h2.16v26h-2.16v-26zM-6360.96-4264.68h2.24v26h-2.24v-26zM-6360.88-4235.04h2.24v26h-2.24v-26zM-6360.88-4204.75h2.24v21.58h-2.24v-21.58z" fill="gray"/><path d="M-6368.8-4185.12h9.92v1.95h-9.92v-1.95zM-6401.12-4185.12h27.84v1.95h-27.84v-1.95zM-6436.72-4185.25h30.56v2.08h-30.56v-2.08zM-6438.48-4313.17h2.24v26.13h-2.24v-26.13zM-6438.56-4282.88h2.24v26.13h-2.24v-26.13zM-6438.56-4252.85h2.24v26h-2.24v-26zM-6438.56-4223.34h2.24v26.13h-2.24v-26.14z" fill="gray"/><path d="M-6438.4-4193.18h2.24v10h-2.24v-10z" fill="gray"/><use xlink:href="#k" transform="matrix(1,0,0,1,-6468.5570638627105,-4183.165718021784) translate(36.15125868055556 21.751736111111114)"/><use xlink:href="#l" transform="matrix(1,0,0,1,-6468.5570638627105,-4183.165718021784) translate(32.14735243055556 48.63975694444445)"/><use xlink:href="#s" transform="matrix(1,0,0,1,-6468.5570638627105,-4183.165718021784) translate(3.1488715277777715 75.52777777777779)"/><use xlink:href="#t" transform="matrix(1,0,0,1,-6468.5570638627105,-4183.165718021784) translate(122.5390625 75.52777777777779)"/><use xlink:href="#u" transform="matrix(1,0,0,1,-6468.5570638627105,-4183.165718021784) translate(5.5034722222222285 102.41579861111111)"/><use xlink:href="#p" transform="matrix(1,0,0,1,-6468.5570638627105,-4183.165718021784) translate(99.09071180555554 102.41579861111111)"/><path d="M-6433.36-4518.62h69.2v121.3h-69.2v-121.3z" fill="#29aae1"/><path d="M-6406.96-4434.38h35.2c1.12 0 1.12 0 1.12 1.17 0 1.03 0 1.03-1.12 1.03h-35.2c-1.12 0-1.12 0-1.12-1.04 0-1.18 0-1.18 1.12-1.18zM-6406.88-4428.27h35.12c1.52 0 1.52 0 1.52 1.56v.38c0 1.56 0 1.56-1.52 1.56h-35.12c-1.52 0-1.52 0-1.52-1.56v-.4c0-1.55 0-1.55 1.52-1.55zM-6406.72-4420.6h35.12c1.52 0 1.52 0 1.52 1.56v.4c0 1.55 0 1.55-1.52 1.55h-35.12c-1.52 0-1.52 0-1.52-1.55v-.4c0-1.55 0-1.55 1.52-1.55zM-6374.64-4459.73c0 3.12-2.56 5.72-5.76 5.72-3.12 0-5.68-2.6-5.68-5.73 0-3.12 2.56-5.72 5.68-5.72 3.2 0 5.76 2.6 5.76 5.72z" fill="#fff"/><path d="M-6376.96-4459.73c0 1.95-1.6 3.5-3.52 3.5s-3.52-1.55-3.52-3.5 1.6-3.5 3.52-3.5 3.52 1.55 3.52 3.5z" fill="#54bbe7"/><path d="M-6432.08-4523.17h27.84v1.95h-27.84v-1.95zM-6400.4-4523.17h27.84v2.08h-27.84v-2.07zM-6368.8-4523.04h9.92v1.95h-9.92v-1.94z" fill="gray"/><path d="M-6361.04-4521.22h2.16v12.74h-2.16v-12.74zM-6360.96-4505.1h2.16v26h-2.16v-26zM-6360.96-4474.68h2.24v26h-2.24v-26zM-6360.88-4445.04h2.24v26h-2.24v-26zM-6360.88-4414.75h2.24v21.58h-2.24v-21.58z" fill="gray"/><path d="M-6368.8-4395.12h9.92v1.95h-9.92v-1.95zM-6401.12-4395.12h27.84v1.95h-27.84v-1.95zM-6436.72-4395.25h30.56v2.08h-30.56v-2.08zM-6438.48-4523.17h2.24v26.13h-2.24v-26.13zM-6438.56-4492.88h2.24v26.13h-2.24v-26.13zM-6438.56-4462.85h2.24v26h-2.24v-26zM-6438.56-4433.34h2.24v26.13h-2.24v-26.14z" fill="gray"/><path d="M-6438.4-4403.18h2.24v10h-2.24v-10z" fill="gray"/><use xlink:href="#k" transform="matrix(1,0,0,1,-6468.5570638627105,-4393.165718021784) translate(36.15125868055556 21.69574652777777)"/><use xlink:href="#n" transform="matrix(1,0,0,1,-6468.5570638627105,-4393.165718021784) translate(6.740451388888886 48.58376736111111)"/><use xlink:href="#v" transform="matrix(1,0,0,1,-6468.5570638627105,-4393.165718021784) translate(88.69574652777777 48.58376736111111)"/><use xlink:href="#p" transform="matrix(1,0,0,1,-6468.5570638627105,-4393.165718021784) translate(52.297092013888886 75.47178819444444)"/><path d="M-6641.08-3853.45l12.6-.24 21.67 80.4h-50.63l16.35-80.15z" fill="#29aae1"/><path d="M-6638.16-3866.65h6.75v12.24h-6.76v-12.25z" fill="#2188b4"/><path d="M-6628.26-3871.33c0 3.6-3 6.6-6.6 6.6-3.6 0-6.52-3-6.52-6.6 0-3.6 2.92-6.6 6.52-6.6 3.6 0 6.6 3 6.6 6.6z" fill="#2188b4"/><path d="M-6621.43-3879.25c2.02 1.8 3.15 5.28 3 8.88-.15 3.6-2.48 7.08-2.48 7.08s-1.73 1.7-.3-1.07c1.5-2.76 1.8-3.84 2.02-4.8.15-.96.3-.72.22-2.76-.07-2.04-.97-4.2-1.27-4.44-.3-.24-1.58-2.28-1.58-2.28l.37-.6zM-6648.06-3879.5c-1.87 1.93-2.92 5.4-2.77 9 .15 3.6 2.32 7.1 2.32 7.1s1.64 1.55.22-1.2c-1.35-2.65-1.65-3.85-1.8-4.8-.23-.97-.3-.73-.3-2.77.07-1.92.97-4.08 1.2-4.32.3-.35 1.5-2.4 1.5-2.4l-.38-.6zM-6613.56-3885.6c4.43 3.23 6.9 9.47 6.6 15.83-.37 6.36-5.55 12.48-5.55 12.48s-3.76 2.9-.53-1.9c3.15-4.8 3.9-6.85 4.35-8.53.45-1.68.67-1.32.52-4.92-.15-3.48-2.1-7.32-2.77-7.8-.68-.48-3.53-4.08-3.53-4.08l.9-1.08zM-6654.8-3886.93c-4.58 3.48-7.06 10.08-6.68 16.8.37 6.72 5.62 13.2 5.62 13.2s3.75 3 .53-2.04c-3.23-5.16-4.05-7.32-4.43-9.12-.45-1.8-.75-1.3-.6-5.15.23-3.72 2.18-7.68 2.85-8.28.67-.48 3.52-4.2 3.52-4.2l-.83-1.2z" fill="#54bbe7"/><path d="M-6607.33-3892.2c6.67 4.55 10.35 13.2 9.82 22.07-.53 8.76-8.26 17.28-8.26 17.28s-5.55 4.08-.75-2.64c4.72-6.7 5.84-9.6 6.52-11.87.6-2.4.97-1.8.75-6.84-.23-4.93-3.15-10.1-4.13-10.93-.97-.72-5.25-5.64-5.25-5.64l1.27-1.44zM-6661.26-3893.17c-6.97 4.68-10.8 13.44-10.27 22.56.52 9 8.62 17.75 8.62 17.75s5.77 4.08.82-2.76c-4.95-6.97-6.15-9.85-6.83-12.25-.68-2.4-1.06-1.8-.83-6.84.22-5.15 3.3-10.43 4.35-11.15 1.05-.72 5.47-5.76 5.47-5.76l-1.36-1.57z" fill="#54bbe7"/><use xlink:href="#w" transform="matrix(1,0,0,1,-6702.0570638627105,-3773.1657180217844) translate(22.48589409722222 21.86371527777778)"/><use xlink:href="#x" transform="matrix(1,0,0,1,-6702.0570638627105,-3773.1657180217844) translate(28.93120659722222 48.751736111111114)"/><use xlink:href="#y" transform="matrix(1,0,0,1,-6702.0570638627105,-3773.1657180217844) translate(37.70941840277778 75.63975694444446)"/><use xlink:href="#z" transform="matrix(1,0,0,1,-6702.0570638627105,-3773.1657180217844) translate(26.98893229166667 102.52777777777777)"/><use xlink:href="#A" transform="matrix(1,0,0,1,-6702.0570638627105,-3773.1657180217844) translate(32.25694444444444 129.41579861111111)"/><use xlink:href="#B" transform="matrix(1,0,0,1,-6702.0570638627105,-3773.1657180217844) translate(26.84244791666667 156.30381944444446)"/><path d="M-6458.4-3693.17h118.04c9.15 0 9.15 0 9.15 10.08v65.77c0 10.08 0 10.08-9.16 10.08h-118.05c-9.16 0-9.16 0-9.16-10.08v-65.76c0-10.07 0-10.07 9.15-10.07z" fill="#29aae1"/><path d="M-6458.4-3684.77h118.8v66.6h-118.8v-66.6z" fill="#fff"/><path d="M-6456.9-3682.25h115.8v61.56h-115.8v-61.55z" fill="gray"/><path d="M-6473.56-3587.45h149.85v14.28h-149.86v-14.28z" fill="#29aae1"/><path d="M-6432.6-3604.13h103.64l5.25 16.92h-103.66l-5.25-16.93z" fill="#29aae1"/><path d="M-6366-3604.13h-102.3l-5.26 16.8h102.3l5.25-16.8z" fill="#29aae1"/><path d="M-6424.66-3600.9h89.7l3.6 11.3h-89.7l-3.6-11.3z" fill="#fff"/><path d="M-6387.76-3600.9h-75.3l-3 11.3h75.3l3-11.3z" fill="#fff"/><use xlink:href="#C" transform="matrix(1,0,0,1,-6503.5570638627105,-3573.1657180217844) translate(26.316189236111114 21.639756944444443)"/><use xlink:href="#D" transform="matrix(1,0,0,1,-6503.5570638627105,-3573.1657180217844) translate(105.20073784722223 21.639756944444443)"/><use xlink:href="#E" transform="matrix(1,0,0,1,-6503.5570638627105,-3573.1657180217844) translate(33.396267361111114 48.52777777777778)"/><use xlink:href="#F" transform="matrix(1,0,0,1,-6503.5570638627105,-3573.1657180217844) translate(89.23394097222223 48.52777777777778)"/><use xlink:href="#G" transform="matrix(1,0,0,1,-6503.5570638627105,-3573.1657180217844) translate(167.56510416666666 48.52777777777778)"/><path d="M-6405.34-3878.17h13.56c12.9 0 23.28 1.98 23.28 4.5v81c0 2.52-10.38 4.5-23.28 4.5h-13.56c-12.84 0-23.22-1.98-23.22-4.5v-81c0-2.52 10.38-4.5 23.22-4.5z" fill="#29aae1"/><path d="M-6424.36-3870.97h51.66v73.53h-51.66v-73.53zM-6407.2-3875.1h16.74c.42 0 .78.26.78.53s-.36.54-.78.54h-16.74c-.42 0-.78-.27-.78-.54s.36-.54.78-.54zM-6405.04-3792.5c0 .64-.48 1.1-1.14 1.1-.6 0-1.14-.46-1.14-1.1 0-.53.54-1.07 1.14-1.07.66 0 1.14.54 1.14 1.08zM-6396.76-3792.5c0 .64-.48 1.1-1.14 1.1-.6 0-1.08-.46-1.08-1.1 0-.53.48-1.07 1.08-1.07.66 0 1.14.54 1.14 1.08zM-6388.9-3792.5c0 .64-.54 1.1-1.14 1.1-.66 0-1.14-.46-1.14-1.1 0-.53.48-1.07 1.14-1.07.6 0 1.14.54 1.14 1.08z" fill="#fff"/><path d="M-6422.92-3869.7h48.72v70.9h-48.72v-70.9z" fill="gray"/><use xlink:href="#H" transform="matrix(1,0,0,1,-6458.5570638627105,-3788.1657180217844) translate(28.907335069444446 21.751736111111114)"/><use xlink:href="#I" transform="matrix(1,0,0,1,-6458.5570638627105,-3788.1657180217844) translate(23.427734375 48.63975694444445)"/><use xlink:href="#J" transform="matrix(1,0,0,1,-6458.5570638627105,-3788.1657180217844) translate(35.20616319444444 75.52777777777779)"/><use xlink:href="#F" transform="matrix(1,0,0,1,-6458.5570638627105,-3788.1657180217844) translate(14.058159722222221 102.41579861111111)"/><use xlink:href="#K" transform="matrix(1,0,0,1,-6458.5570638627105,-3788.1657180217844) translate(92.38932291666666 102.41579861111111)"/><path d="M-6447.52-3492.68h97.44c1.32 0 1.32 0 1.32 1.33v66.78c0 1.33 0 1.33-1.32 1.33h-97.44c-1.32 0-1.32 0-1.32-1.33v-66.78c0-1.33 0-1.33 1.32-1.33z" fill="#999"/><path d="M-6456.4-3492.6h5.4v69.3h-5.4v-69.3z" fill="#29aae1"/><path d="M-6454.24-3458.03c0 19.1-.96 34.5-2.16 34.5-1.2 0-2.16-15.4-2.16-34.5s.96-34.5 2.16-34.5c1.2 0 2.16 15.4 2.16 34.5zM-6347.44-3493.1h6.36v69.5h-6.36v-69.5z" fill="#29aae1"/><path d="M-6338.56-3458.38c0 19.25-1.08 34.8-2.52 34.8s-2.64-15.55-2.64-34.8c0-19.18 1.2-34.8 2.64-34.8 1.44 0 2.52 15.62 2.52 34.8z" fill="#29aae1"/><path d="M-6342.04-3486.87c0 .63-.6 1.2-1.44 1.2-.72 0-1.44-.57-1.44-1.2s.72-1.2 1.44-1.2c.84 0 1.44.57 1.44 1.2zM-6342.04-3482.74c0 .63-.6 1.2-1.44 1.2-.72 0-1.44-.57-1.44-1.2s.72-1.2 1.44-1.2c.84 0 1.44.57 1.44 1.2zM-6341.68-3478.6c0 .7-.72 1.18-1.44 1.18-.84 0-1.44-.5-1.44-1.2 0-.62.6-1.18 1.44-1.18.72 0 1.44.56 1.44 1.2z" fill="#fff"/><path d="M-6436.24-3486.3h36v15.4h-36v-15.4z" fill="#29aae1"/><path d="M-6395.92-3486.3h36v15.4h-36v-15.4z" fill="#fff"/><path d="M-6395.8-3467.13h36v15.4h-36v-15.4z" fill="#29aae1"/><path d="M-6395.92-3447.4h36v15.4h-36v-15.4zM-6436.48-3447.4h36v15.4h-36v-15.4zM-6434.8-3467h12.84c1.44 0 1.44 0 1.44 1.4v12.54c0 1.4 0 1.4-1.44 1.4h-12.84c-1.32 0-1.32 0-1.32-1.4v-12.53c0-1.4 0-1.4 1.32-1.4zM-6414.76-3467.2h12.72c1.44 0 1.44 0 1.44 1.4v12.8c0 1.34 0 1.34-1.44 1.34h-12.72c-1.44 0-1.44 0-1.44-1.33v-12.8c0-1.4 0-1.4 1.44-1.4z" fill="#fff"/><path d="M-6403.96-3432.2l55.92-25.06c3.72-1.6 3.72-1.6 4.92 1.26 1.2 2.87 1.2 2.87-2.52 4.55l-55.8 25.06c-3.72 1.62-3.72 1.62-4.92-1.25-1.2-2.87-1.2-2.87 2.4-4.55z" fill="#fff"/><path d="M-6404.2-3431.36l56.16-25.4c2.76-1.27 2.76-1.27 4.32.9 1.44 2.17 1.44 2.17-1.44 3.43l-56.04 25.34c-2.88 1.34-2.88 1.34-4.32-.83-1.44-2.17-1.44-2.17 1.32-3.43z" fill="#29aae1"/><path d="M-6350.68-3455.5l-3.36 1.6c1.92-.9 1.92-.9 2.88 1.12l.36.9c.96 1.97.96 1.97-.96 2.95l3.36-1.68c-1.92.9-1.92.9-2.88-1.06l-.36-.9c-.96-2.04-.96-2.04.96-2.95z" fill="#fff"/><path d="M-6349.24-3456.5l-3.48 1.7c2.04-.92 2.04-.92 2.88 1.04l.48.9c.96 2.04.96 2.04-1.08 2.95l3.48-1.62c-1.92.9-1.92.9-2.88-1.12l-.48-.9c-.84-1.97-.84-1.97 1.08-2.95zM-6427.96-3427.16h22.92c.12 0 .12 0 .12.14v.5c0 .13 0 .13-.12.13h-22.92c-.12 0-.12 0-.12-.13v-.5c0-.13 0-.13.12-.13z" fill="#fff"/><path d="M-6443.8-3429.96l15.72 2.8c.12 0 .12 0 .12.14l-.12.56c0 .07 0 .07-.12.07l-15.72-2.8c-.12 0-.12 0-.12-.13l.12-.56c0-.06 0-.06.12-.06z" fill="#fff"/><use xlink:href="#L" transform="matrix(1,0,0,1,-6488.5570638627105,-3423.1657180217844) translate(15.428602430555557 21.639756944444443)"/><use xlink:href="#D" transform="matrix(1,0,0,1,-6488.5570638627105,-3423.1657180217844) translate(86.08832465277777 21.639756944444443)"/><use xlink:href="#E" transform="matrix(1,0,0,1,-6488.5570638627105,-3423.1657180217844) translate(16.052517361111114 48.52777777777778)"/><use xlink:href="#F" transform="matrix(1,0,0,1,-6488.5570638627105,-3423.1657180217844) translate(71.89019097222223 48.52777777777778)"/><use xlink:href="#M" transform="matrix(1,0,0,1,-6488.5570638627105,-3423.1657180217844) translate(150.22135416666666 48.52777777777778)"/><path d="M-6715.56-4719.17a6 6 0 0 1 6-6h150a6 6 0 0 1 6 6v110a6 6 0 0 1-6 6h-150a6 6 0 0 1-6-6z" stroke="#ff80df" stroke-width="2" fill="#fff0fb"/><use xlink:href="#N" transform="matrix(1,0,0,1,-6703.5570638627105,-4713.165718021784) translate(29.595703125 30.71527777777778)"/><use xlink:href="#O" transform="matrix(1,0,0,1,-6703.5570638627105,-4713.165718021784) translate(24.343967013888886 57.603298611111114)"/><use xlink:href="#P" transform="matrix(1,0,0,1,-6703.5570638627105,-4713.165718021784) translate(8.816623263888907 84.49131944444446)"/><path d="M-7510.06-5087.67h63.12" stroke="#3a414a" fill="none"/><path d="M-7510.04-5087.2h-.52v-.94h.52z" stroke="#3a414a" stroke-width=".05" fill="#3a414a"/><path d="M-7432.18-5087.67l-14.26 4.64v-9.27z" stroke="#3a414a" fill="#3a414a"/><path stroke="#3a414a" stroke-width=".05" fill="#3a414a"/><path fill="#3a414a"/><path stroke="#3a414a" stroke-width=".05" fill="#3a414a"/><path fill="#3a414a"/><path stroke="#3a414a" stroke-width=".05" fill="#3a414a"/><use xlink:href="#Q" transform="matrix(1,0,0,1,-7391.750640251599,-5098.420926355117) translate(0 17.22222222222222)"/><use xlink:href="#R" transform="matrix(1,0,0,1,-7391.750640251599,-5098.420926355117) translate(48.203125 17.22222222222222)"/><use xlink:href="#S" transform="matrix(1,0,0,1,-7391.750640251599,-5098.420926355117) translate(68.92361111111111 17.22222222222222)"/><use xlink:href="#T" transform="matrix(1,0,0,1,-7391.750640251599,-5098.420926355117) translate(161.73611111111114 17.22222222222222)"/><use xlink:href="#U" transform="matrix(1,0,0,1,-7391.750640251599,-5098.420926355117) translate(187.53472222222226 17.22222222222222)"/><path d="M-6997.76-5087.2h-2.7v-.94h2.7z" stroke="#3a414a" stroke-width=".05" fill="#3a414a"/><path d="M-7000.44-5087.2h-.52v-.94h.52z" fill="#3a414a"/><path stroke="#3a414a" stroke-width=".05" fill="#3a414a"/><path d="M-6922.18-5087.67l-1.57.52v-1.03z" fill="#3a414a"/><path d="M-6920.64-5087.67l-3.1 1.02v-1l.03-.02h-.05v-1z" stroke="#3a414a" stroke-width=".05" fill="#3a414a"/><use xlink:href="#V" transform="matrix(1,0,0,1,-6997.762272196043,-5098.420926355117) translate(0 17.22222222222222)"/><use xlink:href="#W" transform="matrix(1,0,0,1,-6997.762272196043,-5098.420926355117) translate(54.357638888888886 17.22222222222222)"/><path d="M-6771.4-5098.44h-23.78v-.95h23.8zm85.46 0h-7.9v-.95h7.9z" stroke="#3a414a" stroke-width=".05" fill="#3a414a"/><path d="M-6795.17-5098.44h-.5v-.95h.5z" fill="#3a414a"/><path stroke="#3a414a" stroke-width=".05" fill="#3a414a"/><path d="M-6671.18-5098.92l-14.26 4.64v-9.27z" fill="#3a414a"/><path d="M-6669.64-5098.92l-16.28 5.3v-10.6zm-15.33 4l12.26-4-12.27-3.98z" stroke="#3a414a" stroke-width=".05" fill="#3a414a"/><use xlink:href="#V" transform="matrix(1,0,0,1,-6771.391265251599,-5109.670926355117) translate(0 17.22222222222222)"/><use xlink:href="#X" transform="matrix(1,0,0,1,-6771.391265251599,-5109.670926355117) translate(54.357638888888886 17.22222222222222)"/><path d="M-6492.08-5100.7h-106.9v-.94h106.9zm232.14 0h-91.03v-.94h91.03z" stroke="#3a414a" stroke-width=".05" fill="#3a414a"/><path d="M-6598.97-5100.7h-.52v-.94h.53z" fill="#3a414a"/><path stroke="#3a414a" stroke-width=".05" fill="#3a414a"/><path d="M-6245.18-5101.17l-14.26 4.64v-9.27z" fill="#3a414a"/><path d="M-6243.64-5101.17l-16.28 5.3v-10.6zm-15.33 4l12.26-4-12.27-3.98z" stroke="#3a414a" stroke-width=".05" fill="#3a414a"/><use xlink:href="#Y" transform="matrix(1,0,0,1,-6492.077619418266,-5111.920926355117) translate(0 17.22222222222222)"/><use xlink:href="#Z" transform="matrix(1,0,0,1,-6492.077619418266,-5111.920926355117) translate(39.982638888888886 17.22222222222222)"/><path d="M-6741.75-4044.18l.07.88.2.84.33.8.46.74.57.66.66.56.74.46.8.33.84.2.9.06h281.26v.95h-281.3l-1-.07-1-.24-.92-.4-.87-.53-.77-.66-.66-.76-.53-.86-.38-.94-.24-1-.08-1v-392.5h.95zm0-414h-.95v-388.6h.95zm71.7-629h-66.15l-.9.06-.83.2-.8.33-.74.47-.66.56-.56.66-.45.73-.33.8-.2.84-.07.88v213.38h-.95v-213.4l.08-1 .24-1 .4-.94.52-.87.66-.77.77-.66.87-.54.93-.4 1-.22 1-.08h66.17z" stroke="#3a414a" stroke-width=".05" fill="#3a414a"/><path d="M-6669.56-5087.2h-.5v-.94h.5z" fill="#3a414a"/><path stroke="#3a414a" stroke-width=".05" fill="#3a414a"/><path d="M-6440.18-4038.17l-14.26 4.64v-9.27z" fill="#3a414a"/><path d="M-6438.64-4038.17l-16.28 5.3v-10.6zm-15.33 4l12.26-4-12.27-3.98z" stroke="#3a414a" stroke-width=".05" fill="#3a414a"/><use xlink:href="#Y" transform="matrix(1,0,0,1,-6810.6178277516,-4458.170926355117) translate(0 17.22222222222222)"/><use xlink:href="#aa" transform="matrix(1,0,0,1,-6810.6178277516,-4458.170926355117) translate(39.982638888888886 17.22222222222222)"/><path d="M-6499.75-4876.18l.07.88.2.84.33.8.46.74.57.66.66.56.74.46.8.33.84.2.9.06h39.26v.95h-39.3l-1-.07-1-.24-.92-.4-.87-.53-.77-.66-.66-.76-.53-.87-.38-.93-.24-1-.08-1v-108.55h.95zm-5.46-207.38l.98.24.94.38.86.53.78.65.66.78.53.86.4.93.22 1 .08 1v70.95h-.95v-70.93l-.07-.88-.2-.84-.33-.8-.45-.74-.57-.67-.66-.56-.74-.46-.8-.32-.84-.2-.88-.07H-6599v-.94h92.8z" stroke="#3a414a" stroke-width=".05" fill="#3a414a"/><path d="M-6598.97-5082.7h-.52v-.94h.53z" fill="#3a414a"/><path stroke="#3a414a" stroke-width=".05" fill="#3a414a"/><path d="M-6440.18-4870.17l-14.26 4.64v-9.27z" fill="#3a414a"/><path d="M-6438.64-4870.17l-16.28 5.3v-10.6zm-15.33 4l12.26-4-12.27-3.98z" stroke="#3a414a" stroke-width=".05" fill="#3a414a"/><g><use xlink:href="#Y" transform="matrix(1,0,0,1,-6570.384320807155,-5006.219259688451) translate(0 17.22222222222222)"/><use xlink:href="#ab" transform="matrix(1,0,0,1,-6570.384320807155,-5006.219259688451) translate(39.982638888888886 17.22222222222222)"/></g><path d="M-6526.41-4254.18l.05.88.2.84.34.8.44.74.56.66.66.56.74.46.8.33.85.2.88.06h65.93v.95h-65.97l-1-.07-1-.24-.93-.4-.87-.53-.77-.66-.66-.76-.53-.87-.4-.93-.23-1-.06-1v-388.38h.94zm-.02-409.87h-.94v-320.66h.94zm-5.46-410.5l1 .23.93.38.87.53.77.65.65.78.53.86.4.93.23 1 .1 1-.02 61.95h-.94v-61.93l-.08-.88-.2-.84-.33-.8-.45-.74-.56-.67-.66-.56-.74-.46-.8-.32-.85-.2-.88-.07h-66.1v-.94h66.13z" stroke="#3a414a" stroke-width=".05" fill="#3a414a"/><path d="M-6598.97-5073.7h-.52v-.94h.53z" fill="#3a414a"/><path stroke="#3a414a" stroke-width=".05" fill="#3a414a"/><path d="M-6440.18-4248.17l-14.26 4.64v-9.27z" fill="#3a414a"/><path d="M-6438.64-4248.17l-16.28 5.3v-10.6zm-15.33 4l12.26-4-12.27-3.98z" stroke="#3a414a" stroke-width=".05" fill="#3a414a"/><g><use xlink:href="#Y" transform="matrix(1,0,0,1,-6597.1898763627105,-4664.052593021785) translate(0 17.22222222222222)"/><use xlink:href="#ac" transform="matrix(1,0,0,1,-6597.1898763627105,-4664.052593021785) translate(39.982638888888886 17.22222222222222)"/></g><path d="M-6283.08-4464.15l-.08 1-.24 1-.4.92-.52.87-.66.77-.77.67-.87.53-.94.4-.98.23-1 .08h-52.8v-.94h52.76l.9-.07.83-.2.8-.34.74-.46.65-.56.56-.66.46-.74.34-.8.2-.84.07-.88v-420.62h.95zm-5.46-628.4l.98.23.94.38.87.53.77.65.66.78.53.86.4.93.24 1 .08 1v179.86h-.95v-179.85l-.07-.88-.2-.84-.34-.8-.45-.74-.55-.67-.66-.56-.75-.46-.8-.32-.84-.2-.88-.07h-61.4v-.94h61.44zm-310.45.86v-.94h106.92v.95z" stroke="#3a414a" stroke-width=".05" fill="#3a414a"/><path d="M-6598.97-5091.7h-.52v-.94h.53z" fill="#3a414a"/><path stroke="#3a414a" stroke-width=".05" fill="#3a414a"/><path d="M-6342.83-4453.53l-14.27-4.64 14.27-4.63z" fill="#3a414a"/><path d="M-6342.36-4452.88l-16.28-5.3 16.28-5.27zm-13.2-5.3l12.25 4v-7.97z" stroke="#3a414a" stroke-width=".05" fill="#3a414a"/><g><use xlink:href="#Y" transform="matrix(1,0,0,1,-6354.1299805293775,-4906.305926355118) translate(0 17.22222222222222)"/><use xlink:href="#ad" transform="matrix(1,0,0,1,-6354.1299805293775,-4906.305926355118) translate(39.982638888888886 17.22222222222222)"/></g><path d="M-6857.58-3939.18l.07.88.2.84.32.8.45.74.57.66.66.56.74.46.8.33.84.2.88.06h211.5l1 .08.98.24.94.38.87.53.77.66.66.77.53.86.4.93.24 1 .08 1v32.93h-.95v-32.9l-.07-.9-.2-.83-.34-.8-.45-.74-.55-.67-.66-.56-.75-.46-.8-.32-.84-.2-.88-.07h-211.5l-1-.07-.98-.24-.94-.4-.86-.53-.78-.66-.66-.76-.53-.86-.4-.94-.22-1-.08-1v-409.87h.95zm0-431.36h-.95v-694.17h.95z" stroke="#3a414a" stroke-width=".05" fill="#3a414a"/><path d="M-6857.58-5064.7h-.95v-.5h.95zm0-3.44h-.95l.95-.07z" fill="#3a414a"/><path stroke="#3a414a" stroke-width=".05" fill="#3a414a"/><path d="M-6634.56-3879.47l-4.63-14.27h9.28z" fill="#3a414a"/><path d="M-6634.56-3877.93l-5.3-16.28h10.6zm-3.98-15.33l3.98 12.25 3.98-12.26z" stroke="#3a414a" stroke-width=".05" fill="#3a414a"/><g><use xlink:href="#V" transform="matrix(1,0,0,1,-6896.967654140488,-4370.53595104553) translate(0 17.22222222222222)"/><use xlink:href="#ae" transform="matrix(1,0,0,1,-6896.967654140488,-4370.53595104553) translate(54.357638888888886 17.22222222222222)"/></g><path d="M-6404.54-3733.64l1 .08.98.24.94.38.87.53.77.66.66.77.53.86.4.93.24 1 .08 1v17.62h-.95v-17.6l-.07-.88-.2-.84-.34-.8-.45-.74-.55-.67-.66-.56-.75-.46-.8-.32-.84-.2-.88-.07h-82.8v-.94zm-217.8-4.66l.2.84.33.8.44.74.56.66.66.56.74.46.8.33.85.2.88.06h82.67v.95h-82.7l-1-.07-1-.24-.93-.4-.87-.53-.77-.66-.66-.76-.53-.86-.4-.94-.23-1-.06-1v-33.63h.94v33.62z" stroke="#3a414a" stroke-width=".05" fill="#3a414a"/><path d="M-6622.41-3772.77h-.97v-.52h.95z" fill="#3a414a"/><path stroke="#3a414a" stroke-width=".05" fill="#3a414a"/><path d="M-6398.56-3694.78l-4.63-14.27h9.28z" fill="#3a414a"/><path d="M-6398.56-3693.25l-5.3-16.28h10.6zm-3.98-15.32l3.98 12.25 3.98-12.25z" stroke="#3a414a" stroke-width=".05" fill="#3a414a"/><g><use xlink:href="#af" transform="matrix(1,0,0,1,-6534.199529140488,-3743.920926355118) translate(0 17.22222222222222)"/></g><path d="M-6549.17-3832.7h-73.28v-.94h73.28zm104.23 0h-57.4v-.94h57.4z" stroke="#3a414a" stroke-width=".05" fill="#3a414a"/><path d="M-6622.44-3832.7h-.38l-.26-.94h.64z" fill="#3a414a"/><path stroke="#3a414a" stroke-width=".05" fill="#3a414a"/><path d="M-6430.17-3833.17l-14.27 4.64v-9.27z" fill="#3a414a"/><path d="M-6428.64-3833.17l-16.27 5.3-.02-10.6zm-15.32 4l12.25-4-12.27-3.98z" stroke="#3a414a" stroke-width=".05" fill="#3a414a"/><g><use xlink:href="#af" transform="matrix(1,0,0,1,-6549.168911999603,-3843.920926355118) translate(0 17.22222222222222)"/></g><path d="M-6645.75-3464.18l.07.88.2.84.33.8.46.74.57.66.66.56.74.46.8.33.84.2.9.06h165.26v.95h-165.3l-1-.07-1-.24-.92-.4-.87-.53-.77-.66-.66-.76-.53-.86-.38-.94-.24-1-.08-1v-46.97h.95zm0-68.47h-.95v-240.14h.95z" stroke="#3a414a" stroke-width=".05" fill="#3a414a"/><path d="M-6645.75-3772.77h-.95v-.52h.95z" fill="#3a414a"/><path stroke="#3a414a" stroke-width=".05" fill="#3a414a"/><path d="M-6460.17-3458.17l-14.27 4.64v-9.27z" fill="#3a414a"/><path d="M-6458.63-3458.17l-16.28 5.3v-10.6zm-15.33 4l12.25-4-12.26-3.98z" stroke="#3a414a" stroke-width=".05" fill="#3a414a"/><g><use xlink:href="#af" transform="matrix(1,0,0,1,-6669.639529140489,-3532.644715972509) translate(0 17.22222222222222)"/></g><path d="M-6768.41-4670.18l.05.88.2.84.34.8.44.74.56.66.66.56.74.46.8.33.85.2.88.06h15.3l.9-2.77 2.68-1.96 1.8-.3 3.22 1.06 1.95 2.67.2 1.3h3.9v.94h-4.7l-.3-1.86-1.63-2.24-2.7-.88-1.36.22-2.23 1.64-1.03 3.13h-16.03l-1-.07-1-.24-.93-.4-.87-.53-.77-.66-.66-.76-.53-.87-.4-.93-.23-1-.06-1v-176.6h.94zm-5.48-406.63l1 .23.93.38.87.55.77.65.65.78.53.86.4.94.23 1 .1 1-.02 202.15h-.94v-202.13l-.08-.88-.2-.84-.33-.8-.45-.74-.56-.66-.66-.56-.74-.46-.8-.33-.85-.2-.88-.07h-20.28v-.95h20.3z" stroke="#3a414a" stroke-width=".05" fill="#3a414a"/><path d="M-6795.17-5075.94h-.5v-.95h.5z" fill="#3a414a"/><path stroke="#3a414a" stroke-width=".05" fill="#3a414a"/><path d="M-6718.18-4664.17l-14.26 4.64v-9.27z" fill="#3a414a"/><path d="M-6716.64-4664.17l-16.28 5.3v-10.6zm-15.33 4l12.26-4-12.27-3.98z" stroke="#3a414a" stroke-width=".05" fill="#3a414a"/><g><use xlink:href="#V" transform="matrix(1,0,0,1,-6808.074424973821,-4868.275068021784) translate(0 17.22222222222222)"/><use xlink:href="#ag" transform="matrix(1,0,0,1,-6808.074424973821,-4868.275068021784) translate(54.357638888888886 17.22222222222222)"/></g><defs><path d="M370-1490V0H180v-1490h190" id="ah"/><path d="M338-670V0H158v-1118h173l1 207c72-158 192-221 342-221 226 0 378 139 378 422V0H872v-695c0-172-96-275-252-275-161 0-282 109-282 300" id="ai"/><path d="M598-1118v154H368v674c0 100 37 144 132 144 23 0 62-6 92-12L629-6c-37 13-88 20-134 20-193 0-307-107-307-290v-688H20v-154h168v-266h180v266h230" id="aj"/><path d="M628 24c-324 0-524-230-524-574 0-343 198-582 503-582 237 0 487 146 487 559v75H286c9 234 145 362 343 362 132 0 231-58 273-172l174 48C1024-91 857 24 628 24zM287-650h624c-17-190-120-322-304-322-192 0-309 151-320 322" id="ak"/><path d="M158 0v-1118h174v172h12c41-113 157-188 290-188 26 0 70 2 91 3v181c-11-2-60-10-108-10-161 0-279 109-279 260V0H158" id="al"/><g id="a"><use transform="matrix(0.010850694444444444,0,0,0.010850694444444444,0,0)" xlink:href="#ah"/><use transform="matrix(0.010850694444444444,0,0,0.010850694444444444,5.967881944444445,0)" xlink:href="#ai"/><use transform="matrix(0.010850694444444444,0,0,0.010850694444444444,19.09722222222222,0)" xlink:href="#aj"/><use transform="matrix(0.010850694444444444,0,0,0.010850694444444444,26.15017361111111,0)" xlink:href="#ak"/><use transform="matrix(0.010850694444444444,0,0,0.010850694444444444,39.10590277777778,0)" xlink:href="#al"/><use transform="matrix(0.010850694444444444,0,0,0.010850694444444444,47.819010416666664,0)" xlink:href="#ai"/><use transform="matrix(0.010850694444444444,0,0,0.010850694444444444,60.94835069444444,0)" xlink:href="#ak"/><use transform="matrix(0.010850694444444444,0,0,0.010850694444444444,73.90407986111111,0)" xlink:href="#aj"/></g><path d="M180 0v-1490h908v168H370v486h669v168H370v500h727V0H180" id="am"/><path d="M140 405l46-156c120 36 205 19 263-150l32-93L54-1118h197c107 313 237 620 324 950 87-331 219-637 326-950h196L606 167c-68 178-176 259-334 259-64 0-113-12-132-21" id="an"/><g id="b"><use transform="matrix(0.010850694444444444,0,0,0.010850694444444444,0,0)" xlink:href="#am"/><use transform="matrix(0.010850694444444444,0,0,0.010850694444444444,13.35720486111111,0)" xlink:href="#ai"/><use transform="matrix(0.010850694444444444,0,0,0.010850694444444444,26.48654513888889,0)" xlink:href="#aj"/><use transform="matrix(0.010850694444444444,0,0,0.010850694444444444,33.756510416666664,0)" xlink:href="#al"/><use transform="matrix(0.010850694444444444,0,0,0.010850694444444444,42.46961805555555,0)" xlink:href="#an"/></g><path d="M180 0v-1490h510c348 0 508 209 508 474 0 266-160 477-507 477H370V0H180zm190-706h312c236 0 327-133 327-310 0-176-91-307-329-307H370v617" id="ao"/><path d="M613 24c-304 0-509-231-509-576 0-350 205-580 509-580 305 0 511 230 511 580 0 345-206 576-511 576zm0-161c226 0 329-195 329-415 0-222-103-419-329-419-223 0-326 196-326 419 0 220 103 415 326 415" id="ap"/><path d="M158 0v-1118h180V0H158zm91-1301c-68 0-125-53-125-119s57-119 125-119c69 0 126 53 126 119s-57 119-126 119" id="aq"/><g id="c"><use transform="matrix(0.010850694444444444,0,0,0.010850694444444444,0,0)" xlink:href="#ao"/><use transform="matrix(0.010850694444444444,0,0,0.010850694444444444,14.073350694444445,0)" xlink:href="#ap"/><use transform="matrix(0.010850694444444444,0,0,0.010850694444444444,27.39800347222222,0)" xlink:href="#aq"/><use transform="matrix(0.010850694444444444,0,0,0.010850694444444444,32.779947916666664,0)" xlink:href="#ai"/><use transform="matrix(0.010850694444444444,0,0,0.010850694444444444,45.90928819444444,0)" xlink:href="#aj"/></g><path d="M180 0v-1490h270l367 940c28 72 75 218 110 339 35-117 81-264 110-339l362-940h271V0h-187c2-448-5-837 7-1287-157 497-311 829-483 1287H842C666-458 514-784 354-1284c12 438 5 843 7 1284H180" id="ar"/><path d="M577 24c-279 0-473-224-473-580 0-354 195-576 474-576 218 0 287 134 324 193h14v-551h180V0H922v-173h-20C865-111 790 24 577 24zm27-161c203 0 314-172 314-421 0-247-108-413-314-413-212 0-317 181-317 413 0 235 108 421 317 421" id="as"/><path d="M158 0v-1118h175l1 205c55-151 181-225 313-225 147 0 245 90 285 228 53-141 190-228 352-228 194 0 352 125 352 384V0h-181v-749c0-161-105-225-225-225-151 0-243 103-243 244V0H807v-767c0-124-93-207-219-207-131 0-250 92-250 270V0H158" id="at"/><g id="d"><use transform="matrix(0.010850694444444444,0,0,0.010850694444444444,0,0)" xlink:href="#ar"/><use transform="matrix(0.010850694444444444,0,0,0.010850694444444444,20.07378472222222,0)" xlink:href="#ap"/><use transform="matrix(0.010850694444444444,0,0,0.010850694444444444,33.3984375,0)" xlink:href="#as"/><use transform="matrix(0.010850694444444444,0,0,0.010850694444444444,47.00520833333333,0)" xlink:href="#ak"/><use transform="matrix(0.010850694444444444,0,0,0.010850694444444444,59.960937499999986,0)" xlink:href="#at"/></g><path d="M180 0v-1490h901v168H370v510h643v168H370V0H180" id="au"/><path d="M409 0L70-1118h191c89 329 165 560 243 925 75-353 154-601 240-925h192c85 325 161 564 235 922 77-354 157-598 244-922h191L1267 0h-179c-86-307-176-590-250-913C763-588 675-308 588 0H409" id="av"/><path d="M471 26C259 26 90-98 90-318c0-256 228-303 435-329 202-27 287-16 287-108 0-139-79-219-234-219-161 0-248 86-283 164l-173-57c86-203 278-265 451-265 150 0 419 46 419 395V0H815v-152h-12C765-73 660 26 471 26zm31-159c199 0 310-134 310-271v-155c-30 35-226 55-295 64-131 17-246 59-246 186 0 116 97 176 231 176" id="aw"/><path d="M338-1490V0H158v-1490h180" id="ax"/><path d="M295 13c-75 0-135-60-135-135s60-135 135-135 135 60 135 135S370 13 295 13zm0-809c-75 0-135-60-135-135s60-135 135-135 135 60 135 135-60 135-135 135" id="ay"/><g id="e"><use transform="matrix(0.010850694444444444,0,0,0.010850694444444444,0,0)" xlink:href="#au"/><use transform="matrix(0.010850694444444444,0,0,0.010850694444444444,13.118489583333332,0)" xlink:href="#aq"/><use transform="matrix(0.010850694444444444,0,0,0.010850694444444444,18.50043402777778,0)" xlink:href="#al"/><use transform="matrix(0.010850694444444444,0,0,0.010850694444444444,26.497395833333336,0)" xlink:href="#ak"/><use transform="matrix(0.010850694444444444,0,0,0.010850694444444444,39.05164930555556,0)" xlink:href="#av"/><use transform="matrix(0.010850694444444444,0,0,0.010850694444444444,57.23741319444444,0)" xlink:href="#aw"/><use transform="matrix(0.010850694444444444,0,0,0.010850694444444444,69.71571180555556,0)" xlink:href="#ax"/><use transform="matrix(0.010850694444444444,0,0,0.010850694444444444,75.09765625,0)" xlink:href="#ax"/><use transform="matrix(0.010850694444444444,0,0,0.010850694444444444,80.47960069444444,0)" xlink:href="#ay"/></g><path d="M158 418v-1536h174v179h20c37-59 106-193 324-193 279 0 474 222 474 576 0 356-194 580-473 580-213 0-288-135-325-197h-14v591H158zm492-555c209 0 317-186 317-421 0-232-105-413-317-413-206 0-314 166-314 413 0 249 111 421 314 421" id="az"/><path d="M678-1118v154H420V0H240v-964H20v-154h220v-149c0-194 155-293 318-293 85 0 141 18 168 30l-50 154c-19-6-47-17-97-17-111 0-159 58-159 166v109h258" id="aA"/><path d="M657 26c-323 0-524-166-541-416h195c15 169 171 246 346 246 202 0 356-106 356-265 5-203-294-238-475-293-239-73-380-191-380-389 0-252 224-419 512-419 294 0 499 171 508 396H992c-17-145-151-228-328-228-193 0-321 102-321 242 0 156 175 211 284 241l149 41c160 44 422 134 422 412 0 244-197 432-541 432" id="aB"/><path d="M538 24C308 24 148-78 108-271l171-41c32 123 123 178 257 178 156 0 256-77 256-169 0-77-54-128-164-154l-186-44c-203-48-300-148-300-305 0-192 176-326 414-326 230 0 351 112 402 269l-163 42c-31-80-94-158-238-158-133 0-233 69-233 162 0 83 57 129 188 160l169 40c203 48 298 149 298 302 0 196-179 339-441 339" id="aC"/><g id="f"><use transform="matrix(0.010850694444444444,0,0,0.010850694444444444,0,0)" xlink:href="#az"/><use transform="matrix(0.010850694444444444,0,0,0.010850694444444444,13.606770833333332,0)" xlink:href="#aA"/><use transform="matrix(0.010850694444444444,0,0,0.010850694444444444,21.83159722222222,0)" xlink:href="#aB"/><use transform="matrix(0.010850694444444444,0,0,0.010850694444444444,36.08940972222222,0)" xlink:href="#ak"/><use transform="matrix(0.010850694444444444,0,0,0.010850694444444444,49.045138888888886,0)" xlink:href="#ai"/><use transform="matrix(0.010850694444444444,0,0,0.010850694444444444,62.174479166666664,0)" xlink:href="#aC"/><use transform="matrix(0.010850694444444444,0,0,0.010850694444444444,73.90407986111111,0)" xlink:href="#ak"/></g><path d="M613 24c-304 0-509-231-509-576 0-350 205-580 509-580 216 0 392 114 453 309l-173 49c-33-115-133-197-280-197-223 0-326 196-326 419 0 220 103 415 326 415 150 0 252-85 285-206l172 49C1010-95 832 24 613 24" id="aD"/><path d="M338-670V0H158v-1490h180v566c73-149 190-208 336-208 226 0 379 139 379 422V0H872v-695c0-172-96-275-252-275-161 0-282 109-282 300" id="aE"/><g id="g"><use transform="matrix(0.010850694444444444,0,0,0.010850694444444444,0,0)" xlink:href="#aB"/><use transform="matrix(0.010850694444444444,0,0,0.010850694444444444,14.2578125,0)" xlink:href="#av"/><use transform="matrix(0.010850694444444444,0,0,0.010850694444444444,32.443576388888886,0)" xlink:href="#aq"/><use transform="matrix(0.010850694444444444,0,0,0.010850694444444444,37.82552083333333,0)" xlink:href="#aj"/><use transform="matrix(0.010850694444444444,0,0,0.010850694444444444,44.87847222222222,0)" xlink:href="#aD"/><use transform="matrix(0.010850694444444444,0,0,0.010850694444444444,57.57378472222222,0)" xlink:href="#aE"/></g><path d="M481 0L54-1118h197c107 314 236 620 325 951 87-331 217-637 324-951h197L670 0H481" id="aF"/><g id="h"><use transform="matrix(0.010850694444444444,0,0,0.010850694444444444,0,0)" xlink:href="#aB"/><use transform="matrix(0.010850694444444444,0,0,0.010850694444444444,14.2578125,0)" xlink:href="#ak"/><use transform="matrix(0.010850694444444444,0,0,0.010850694444444444,27.213541666666664,0)" xlink:href="#al"/><use transform="matrix(0.010850694444444444,0,0,0.010850694444444444,35.92664930555555,0)" xlink:href="#aF"/><use transform="matrix(0.010850694444444444,0,0,0.010850694444444444,47.98177083333333,0)" xlink:href="#ak"/><use transform="matrix(0.010850694444444444,0,0,0.010850694444444444,60.937499999999986,0)" xlink:href="#al"/><use transform="matrix(0.010850694444444444,0,0,0.010850694444444444,69.30338541666666,0)" xlink:href="#ay"/></g><path d="M645 0H180v-1490h484c435 0 692 280 692 742 0 466-257 748-711 748zM370-168h263c363 0 539-218 539-580 0-358-176-574-521-574H370v1154" id="aG"/><g id="i"><use transform="matrix(0.010850694444444444,0,0,0.010850694444444444,0,0)" xlink:href="#aG"/><use transform="matrix(0.010850694444444444,0,0,0.010850694444444444,16.03732638888889,0)" xlink:href="#ak"/><use transform="matrix(0.010850694444444444,0,0,0.010850694444444444,28.99305555555556,0)" xlink:href="#ax"/><use transform="matrix(0.010850694444444444,0,0,0.010850694444444444,34.375,0)" xlink:href="#ax"/></g><path d="M180 0v-1490h510c348 0 508 194 508 460 0 198-88 351-276 417L1256 0h-220L726-579c-117 2-238 0-356 1V0H180zm190-747h312c235 0 327-108 327-283 0-177-92-293-329-293H370v576" id="aH"/><path d="M200 0l662-1311v-12H98v-167h963v177L400 0H200" id="aI"/><path d="M653-1490V0H466v-1314h-10L96-1047v-204l324-239h233" id="aJ"/><path d="M646 20c-332 0-524-278-524-764 0-483 194-766 524-766s524 283 524 766c0 485-191 764-524 764zm0-166c218 0 341-220 341-598 0-380-123-601-341-601s-341 222-341 601c0 378 123 598 341 598" id="aK"/><g id="j"><use transform="matrix(0.010850694444444444,0,0,0.010850694444444444,0,0)" xlink:href="#aH"/><use transform="matrix(0.010850694444444444,0,0,0.010850694444444444,14.301215277777777,0)" xlink:href="#aI"/><use transform="matrix(0.010850694444444444,0,0,0.010850694444444444,26.87717013888889,0)" xlink:href="#aJ"/><use transform="matrix(0.010850694444444444,0,0,0.010850694444444444,35.91579861111111,0)" xlink:href="#aK"/></g><path d="M600 0L52-1490h200c166 485 304 806 458 1336 156-533 285-846 449-1336h202L819 0H600" id="aL"/><path d="M537 14c-226 0-379-139-379-422v-710h180v695c0 172 97 275 253 275 160 0 281-109 281-300v-670h181V0H879v-209C806-46 684 14 537 14" id="aM"/><g id="k"><use transform="matrix(0.010850694444444444,0,0,0.010850694444444444,0,0)" xlink:href="#aL"/><use transform="matrix(0.010850694444444444,0,0,0.010850694444444444,15.33203125,0)" xlink:href="#aq"/><use transform="matrix(0.010850694444444444,0,0,0.010850694444444444,20.713975694444443,0)" xlink:href="#al"/><use transform="matrix(0.010850694444444444,0,0,0.010850694444444444,29.42708333333333,0)" xlink:href="#aj"/><use transform="matrix(0.010850694444444444,0,0,0.010850694444444444,36.69704861111111,0)" xlink:href="#aM"/><use transform="matrix(0.010850694444444444,0,0,0.010850694444444444,49.83723958333333,0)" xlink:href="#aw"/><use transform="matrix(0.010850694444444444,0,0,0.010850694444444444,62.31553819444444,0)" xlink:href="#ax"/></g><g id="l"><use transform="matrix(0.010850694444444444,0,0,0.010850694444444444,0,0)" xlink:href="#aB"/><use transform="matrix(0.010850694444444444,0,0,0.010850694444444444,14.2578125,0)" xlink:href="#ak"/><use transform="matrix(0.010850694444444444,0,0,0.010850694444444444,27.213541666666664,0)" xlink:href="#al"/><use transform="matrix(0.010850694444444444,0,0,0.010850694444444444,35.92664930555555,0)" xlink:href="#aF"/><use transform="matrix(0.010850694444444444,0,0,0.010850694444444444,47.98177083333333,0)" xlink:href="#ak"/><use transform="matrix(0.010850694444444444,0,0,0.010850694444444444,60.937499999999986,0)" xlink:href="#al"/><use transform="matrix(0.010850694444444444,0,0,0.010850694444444444,69.30338541666666,0)" xlink:href="#ay"/></g><path d="M52 0l541-1490h220L1361 0h-200l-149-416H398L254 0H52zm404-582h497c-103-290-145-390-251-756-108 377-145 460-246 756" id="aN"/><path d="M798-719v166H144v-166h654" id="aO"/><g id="m"><use transform="matrix(0.010850694444444444,0,0,0.010850694444444444,0,0)" xlink:href="#aN"/><use transform="matrix(0.010850694444444444,0,0,0.010850694444444444,15.33203125,0)" xlink:href="#aG"/><use transform="matrix(0.010850694444444444,0,0,0.010850694444444444,31.36935763888889,0)" xlink:href="#aO"/><use transform="matrix(0.010850694444444444,0,0,0.010850694444444444,41.59071180555556,0)" xlink:href="#aB"/><use transform="matrix(0.010850694444444444,0,0,0.010850694444444444,55.84852430555555,0)" xlink:href="#am"/><use transform="matrix(0.010850694444444444,0,0,0.010850694444444444,69.20572916666667,0)" xlink:href="#aH"/><use transform="matrix(0.010850694444444444,0,0,0.010850694444444444,83.13802083333333,0)" xlink:href="#aL"/><use transform="matrix(0.010850694444444444,0,0,0.010850694444444444,98.47005208333333,0)" xlink:href="#am"/><use transform="matrix(0.010850694444444444,0,0,0.010850694444444444,111.82725694444444,0)" xlink:href="#aH"/></g><g id="n"><use transform="matrix(0.010850694444444444,0,0,0.010850694444444444,0,0)" xlink:href="#aB"/><use transform="matrix(0.010850694444444444,0,0,0.010850694444444444,14.2578125,0)" xlink:href="#ak"/><use transform="matrix(0.010850694444444444,0,0,0.010850694444444444,27.213541666666664,0)" xlink:href="#al"/><use transform="matrix(0.010850694444444444,0,0,0.010850694444444444,35.92664930555555,0)" xlink:href="#aF"/><use transform="matrix(0.010850694444444444,0,0,0.010850694444444444,47.98177083333333,0)" xlink:href="#ak"/><use transform="matrix(0.010850694444444444,0,0,0.010850694444444444,60.937499999999986,0)" xlink:href="#al"/><use transform="matrix(0.010850694444444444,0,0,0.010850694444444444,69.30338541666666,0)" xlink:href="#ay"/></g><path d="M180 0v-1490h190v1322h690V0H180" id="aP"/><path d="M65 0l393-574-370-544h210c88 136 192 297 267 435 67-142 176-302 264-435h206L661-564 1053 0H844c-94-144-206-310-287-458C484-308 366-142 273 0H65" id="aQ"/><g id="o"><use transform="matrix(0.010850694444444444,0,0,0.010850694444444444,0,0)" xlink:href="#aP"/><use transform="matrix(0.010850694444444444,0,0,0.010850694444444444,12.565104166666666,0)" xlink:href="#aq"/><use transform="matrix(0.010850694444444444,0,0,0.010850694444444444,17.94704861111111,0)" xlink:href="#ai"/><use transform="matrix(0.010850694444444444,0,0,0.010850694444444444,31.07638888888889,0)" xlink:href="#aM"/><use transform="matrix(0.010850694444444444,0,0,0.010850694444444444,44.21657986111111,0)" xlink:href="#aQ"/></g><g id="p"><use transform="matrix(0.010850694444444444,0,0,0.010850694444444444,0,0)" xlink:href="#aL"/><use transform="matrix(0.010850694444444444,0,0,0.010850694444444444,15.33203125,0)" xlink:href="#ar"/></g><path d="M458 0L52-1490h194c108 439 233 855 324 1313 92-459 221-873 331-1313h216c110 438 234 854 330 1307 92-455 216-869 323-1307h196L1558 0h-221l-256-944c-26-95-50-200-73-331-22 122-44 223-73 331L680 0H458" id="aR"/><path d="M677 24c-213 0-288-135-325-197h-20V0H158v-1490h180v551h14c37-59 106-193 324-193 279 0 474 222 474 576 0 356-194 580-473 580zm-27-161c209 0 317-186 317-421 0-232-105-413-317-413-206 0-314 166-314 413 0 249 111 421 314 421" id="aS"/><g id="q"><use transform="matrix(0.010850694444444444,0,0,0.010850694444444444,0,0)" xlink:href="#aR"/><use transform="matrix(0.010850694444444444,0,0,0.010850694444444444,20.768229166666668,0)" xlink:href="#ak"/><use transform="matrix(0.010850694444444444,0,0,0.010850694444444444,33.723958333333336,0)" xlink:href="#aS"/></g><g id="r"><use transform="matrix(0.010850694444444444,0,0,0.010850694444444444,0,0)" xlink:href="#ao"/><use transform="matrix(0.010850694444444444,0,0,0.010850694444444444,14.192708333333332,0)" xlink:href="#al"/><use transform="matrix(0.010850694444444444,0,0,0.010850694444444444,22.189670138888886,0)" xlink:href="#ap"/><use transform="matrix(0.010850694444444444,0,0,0.010850694444444444,35.01519097222222,0)" xlink:href="#aQ"/><use transform="matrix(0.010850694444444444,0,0,0.010850694444444444,47.14626736111111,0)" xlink:href="#an"/></g><path d="M611 442c-248 0-391-105-460-228l146-94c47 65 117 165 314 165 178 0 307-82 307-266v-224h-17C863-141 792-18 576-18c-268 0-472-195-472-546 0-346 197-568 476-568 216 0 288 133 326 193h17v-179h175V29c0 289-215 413-487 413zm-5-620c203 0 314-146 314-390 0-237-108-403-314-403-213 0-319 180-319 403 0 230 109 390 319 390" id="aT"/><g id="s"><use transform="matrix(0.010850694444444444,0,0,0.010850694444444444,0,0)" xlink:href="#ar"/><use transform="matrix(0.010850694444444444,0,0,0.010850694444444444,20.07378472222222,0)" xlink:href="#ap"/><use transform="matrix(0.010850694444444444,0,0,0.010850694444444444,33.3984375,0)" xlink:href="#ai"/><use transform="matrix(0.010850694444444444,0,0,0.010850694444444444,46.52777777777778,0)" xlink:href="#aq"/><use transform="matrix(0.010850694444444444,0,0,0.010850694444444444,51.90972222222222,0)" xlink:href="#aj"/><use transform="matrix(0.010850694444444444,0,0,0.010850694444444444,58.96267361111112,0)" xlink:href="#ap"/><use transform="matrix(0.010850694444444444,0,0,0.010850694444444444,72.28732638888889,0)" xlink:href="#al"/><use transform="matrix(0.010850694444444444,0,0,0.010850694444444444,81.00043402777779,0)" xlink:href="#aq"/><use transform="matrix(0.010850694444444444,0,0,0.010850694444444444,86.38237847222223,0)" xlink:href="#ai"/><use transform="matrix(0.010850694444444444,0,0,0.010850694444444444,99.51171875,0)" xlink:href="#aT"/></g><path d="M580 20c-295 0-476-179-476-409 0-189 123-290 294-416-104-125-173-226-173-362 0-197 144-337 365-337 224 0 362 144 362 321 0 185-174 312-306 405l319 387c38-75 61-165 61-267h173c0 208-62 332-120 406L1287 0h-217L967-124C868-27 716 20 580 20zm279-273L507-675l-51 38c-123 91-167 162-167 254 0 147 113 246 278 246 107 0 210-41 292-116zM538-908l97-72c54-40 136-101 136-206 0-95-68-163-176-163-113 0-189 74-189 181 0 90 53 164 132 260" id="aU"/><use transform="matrix(0.010850694444444444,0,0,0.010850694444444444,0,0)" xlink:href="#aU" id="t"/><g id="u"><use transform="matrix(0.010850694444444444,0,0,0.010850694444444444,0,0)" xlink:href="#aB"/><use transform="matrix(0.010850694444444444,0,0,0.010850694444444444,14.2578125,0)" xlink:href="#ak"/><use transform="matrix(0.010850694444444444,0,0,0.010850694444444444,27.213541666666664,0)" xlink:href="#aD"/><use transform="matrix(0.010850694444444444,0,0,0.010850694444444444,39.908854166666664,0)" xlink:href="#aM"/><use transform="matrix(0.010850694444444444,0,0,0.010850694444444444,53.049045138888886,0)" xlink:href="#al"/><use transform="matrix(0.010850694444444444,0,0,0.010850694444444444,61.76215277777778,0)" xlink:href="#aq"/><use transform="matrix(0.010850694444444444,0,0,0.010850694444444444,67.14409722222221,0)" xlink:href="#aj"/><use transform="matrix(0.010850694444444444,0,0,0.010850694444444444,74.84809027777776,0)" xlink:href="#an"/></g><path d="M98-1322v-168h1126v168H757V0H567v-1322H98" id="aV"/><g id="v"><use transform="matrix(0.010850694444444444,0,0,0.010850694444444444,0,0)" xlink:href="#aV"/><use transform="matrix(0.010850694444444444,0,0,0.010850694444444444,12.608506944444445,0)" xlink:href="#ak"/><use transform="matrix(0.010850694444444444,0,0,0.010850694444444444,25.56423611111111,0)" xlink:href="#aC"/><use transform="matrix(0.010850694444444444,0,0,0.010850694444444444,37.29383680555556,0)" xlink:href="#aj"/></g><g id="w"><use transform="matrix(0.010850694444444444,0,0,0.010850694444444444,0,0)" xlink:href="#aR"/><use transform="matrix(0.010850694444444444,0,0,0.010850694444444444,21.89670138888889,0)" xlink:href="#aq"/><use transform="matrix(0.010850694444444444,0,0,0.010850694444444444,27.278645833333336,0)" xlink:href="#al"/><use transform="matrix(0.010850694444444444,0,0,0.010850694444444444,35.27560763888889,0)" xlink:href="#ak"/><use transform="matrix(0.010850694444444444,0,0,0.010850694444444444,48.23133680555556,0)" xlink:href="#ax"/><use transform="matrix(0.010850694444444444,0,0,0.010850694444444444,53.61328125,0)" xlink:href="#ak"/><use transform="matrix(0.010850694444444444,0,0,0.010850694444444444,66.56901041666667,0)" xlink:href="#aC"/><use transform="matrix(0.010850694444444444,0,0,0.010850694444444444,78.29861111111111,0)" xlink:href="#aC"/></g><g id="x"><use transform="matrix(0.010850694444444444,0,0,0.010850694444444444,0,0)" xlink:href="#aN"/><use transform="matrix(0.010850694444444444,0,0,0.010850694444444444,15.33203125,0)" xlink:href="#aD"/><use transform="matrix(0.010850694444444444,0,0,0.010850694444444444,28.02734375,0)" xlink:href="#aD"/><use transform="matrix(0.010850694444444444,0,0,0.010850694444444444,40.72265625,0)" xlink:href="#ak"/><use transform="matrix(0.010850694444444444,0,0,0.010850694444444444,53.678385416666664,0)" xlink:href="#aC"/><use transform="matrix(0.010850694444444444,0,0,0.010850694444444444,65.40798611111111,0)" xlink:href="#aC"/></g><g id="y"><use transform="matrix(0.010850694444444444,0,0,0.010850694444444444,0,0)" xlink:href="#ao"/><use transform="matrix(0.010850694444444444,0,0,0.010850694444444444,14.073350694444445,0)" xlink:href="#ap"/><use transform="matrix(0.010850694444444444,0,0,0.010850694444444444,27.39800347222222,0)" xlink:href="#aq"/><use transform="matrix(0.010850694444444444,0,0,0.010850694444444444,32.779947916666664,0)" xlink:href="#ai"/><use transform="matrix(0.010850694444444444,0,0,0.010850694444444444,45.90928819444444,0)" xlink:href="#aj"/><use transform="matrix(0.010850694444444444,0,0,0.010850694444444444,53.17925347222222,0)" xlink:href="#ay"/></g><path d="M158 0v-1490h180v865h22l478-493h223L593-638 1096 0H865L456-523 338-412V0H158" id="aW"/><g id="z"><use transform="matrix(0.010850694444444444,0,0,0.010850694444444444,0,0)" xlink:href="#aV"/><use transform="matrix(0.010850694444444444,0,0,0.010850694444444444,14.344618055555555,0)" xlink:href="#ao"/><use transform="matrix(0.010850694444444444,0,0,0.010850694444444444,27.528211805555554,0)" xlink:href="#aO"/><use transform="matrix(0.010850694444444444,0,0,0.010850694444444444,37.74956597222222,0)" xlink:href="#aP"/><use transform="matrix(0.010850694444444444,0,0,0.010850694444444444,50.314670138888886,0)" xlink:href="#aq"/><use transform="matrix(0.010850694444444444,0,0,0.010850694444444444,55.69661458333333,0)" xlink:href="#ai"/><use transform="matrix(0.010850694444444444,0,0,0.010850694444444444,68.8259548611111,0)" xlink:href="#aW"/></g><g id="A"><use transform="matrix(0.010850694444444444,0,0,0.010850694444444444,0,0)" xlink:href="#aN"/><use transform="matrix(0.010850694444444444,0,0,0.010850694444444444,15.33203125,0)" xlink:href="#al"/><use transform="matrix(0.010850694444444444,0,0,0.010850694444444444,23.328993055555554,0)" xlink:href="#aD"/><use transform="matrix(0.010850694444444444,0,0,0.010850694444444444,36.02430555555556,0)" xlink:href="#aE"/><use transform="matrix(0.010850694444444444,0,0,0.010850694444444444,49.16449652777778,0)" xlink:href="#ak"/><use transform="matrix(0.010850694444444444,0,0,0.010850694444444444,62.12022569444444,0)" xlink:href="#al"/></g><path d="M57 0l534-763-501-727h220c122 187 296 416 391 605 94-191 272-419 396-605h215L811-770 1340 0h-219C986-204 811-426 699-640 588-430 407-202 273 0H57" id="aX"/><path d="M633 20c-303 0-511-173-511-416 0-188 124-348 291-378v-8c-145-37-237-174-237-332 0-227 192-396 457-396 261 0 456 169 456 396 0 158-94 295-235 332v8c162 30 291 190 291 378 0 243-212 416-512 416zm0-165c197 0 322-103 322-261 0-165-138-283-322-283-188 0-324 118-324 283 0 158 123 261 324 261zm0-703c157 0 272-101 272-252 0-149-110-246-272-246-165 0-273 97-273 246 0 151 112 252 273 252" id="aY"/><g id="B"><use transform="matrix(0.010850694444444444,0,0,0.010850694444444444,0,0)" xlink:href="#aN"/><use transform="matrix(0.010850694444444444,0,0,0.010850694444444444,15.33203125,0)" xlink:href="#aX"/><use transform="matrix(0.010850694444444444,0,0,0.010850694444444444,30.49045138888889,0)" xlink:href="#aJ"/><use transform="matrix(0.010850694444444444,0,0,0.010850694444444444,39.52907986111111,0)" xlink:href="#aY"/><use transform="matrix(0.010850694444444444,0,0,0.010850694444444444,53.27690972222221,0)" xlink:href="#aK"/><use transform="matrix(0.010850694444444444,0,0,0.010850694444444444,67.29600694444443,0)" xlink:href="#aK"/></g><g id="C"><use transform="matrix(0.010850694444444444,0,0,0.010850694444444444,0,0)" xlink:href="#aP"/><use transform="matrix(0.010850694444444444,0,0,0.010850694444444444,12.565104166666666,0)" xlink:href="#aw"/><use transform="matrix(0.010850694444444444,0,0,0.010850694444444444,25.04340277777778,0)" xlink:href="#az"/><use transform="matrix(0.010850694444444444,0,0,0.010850694444444444,38.650173611111114,0)" xlink:href="#aj"/><use transform="matrix(0.010850694444444444,0,0,0.010850694444444444,45.70312500000001,0)" xlink:href="#ap"/><use transform="matrix(0.010850694444444444,0,0,0.010850694444444444,59.027777777777786,0)" xlink:href="#az"/></g><g id="D"><use transform="matrix(0.010850694444444444,0,0,0.010850694444444444,0,0)" xlink:href="#aG"/><use transform="matrix(0.010850694444444444,0,0,0.010850694444444444,16.03732638888889,0)" xlink:href="#ak"/><use transform="matrix(0.010850694444444444,0,0,0.010850694444444444,28.559027777777775,0)" xlink:href="#aF"/><use transform="matrix(0.010850694444444444,0,0,0.010850694444444444,41.048177083333336,0)" xlink:href="#aq"/><use transform="matrix(0.010850694444444444,0,0,0.010850694444444444,46.43012152777778,0)" xlink:href="#aD"/><use transform="matrix(0.010850694444444444,0,0,0.010850694444444444,59.12543402777778,0)" xlink:href="#ak"/><use transform="matrix(0.010850694444444444,0,0,0.010850694444444444,72.08116319444444,0)" xlink:href="#ay"/></g><path d="M763 24c-353 0-583-224-583-531v-983h190v968c0 214 149 370 393 370 243 0 391-156 391-370v-968h190v983c0 307-230 531-581 531" id="aZ"/><g id="E"><use transform="matrix(0.010850694444444444,0,0,0.010850694444444444,0,0)" xlink:href="#aZ"/><use transform="matrix(0.010850694444444444,0,0,0.010850694444444444,16.536458333333332,0)" xlink:href="#aC"/><use transform="matrix(0.010850694444444444,0,0,0.010850694444444444,28.266059027777775,0)" xlink:href="#ak"/><use transform="matrix(0.010850694444444444,0,0,0.010850694444444444,41.22178819444444,0)" xlink:href="#al"/></g><g id="F"><use transform="matrix(0.010850694444444444,0,0,0.010850694444444444,0,0)" xlink:href="#aG"/><use transform="matrix(0.010850694444444444,0,0,0.010850694444444444,16.03732638888889,0)" xlink:href="#ak"/><use transform="matrix(0.010850694444444444,0,0,0.010850694444444444,28.559027777777775,0)" xlink:href="#aF"/><use transform="matrix(0.010850694444444444,0,0,0.010850694444444444,41.048177083333336,0)" xlink:href="#aq"/><use transform="matrix(0.010850694444444444,0,0,0.010850694444444444,46.43012152777778,0)" xlink:href="#aD"/><use transform="matrix(0.010850694444444444,0,0,0.010850694444444444,59.12543402777778,0)" xlink:href="#ak"/></g><use transform="matrix(0.010850694444444444,0,0,0.010850694444444444,0,0)" xlink:href="#aJ" id="G"/><g id="H"><use transform="matrix(0.010850694444444444,0,0,0.010850694444444444,0,0)" xlink:href="#aB"/><use transform="matrix(0.010850694444444444,0,0,0.010850694444444444,14.2578125,0)" xlink:href="#at"/><use transform="matrix(0.010850694444444444,0,0,0.010850694444444444,33.72395833333333,0)" xlink:href="#aw"/><use transform="matrix(0.010850694444444444,0,0,0.010850694444444444,46.20225694444444,0)" xlink:href="#al"/><use transform="matrix(0.010850694444444444,0,0,0.010850694444444444,54.91536458333333,0)" xlink:href="#aj"/></g><g id="I"><use transform="matrix(0.010850694444444444,0,0,0.010850694444444444,0,0)" xlink:href="#ao"/><use transform="matrix(0.010850694444444444,0,0,0.010850694444444444,14.192708333333332,0)" xlink:href="#aE"/><use transform="matrix(0.010850694444444444,0,0,0.010850694444444444,27.332899305555554,0)" xlink:href="#ap"/><use transform="matrix(0.010850694444444444,0,0,0.010850694444444444,40.65755208333333,0)" xlink:href="#ai"/><use transform="matrix(0.010850694444444444,0,0,0.010850694444444444,53.78689236111111,0)" xlink:href="#ak"/><use transform="matrix(0.010850694444444444,0,0,0.010850694444444444,66.74262152777777,0)" xlink:href="#ay"/></g><g id="J"><use transform="matrix(0.010850694444444444,0,0,0.010850694444444444,0,0)" xlink:href="#aZ"/><use transform="matrix(0.010850694444444444,0,0,0.010850694444444444,16.536458333333332,0)" xlink:href="#aC"/><use transform="matrix(0.010850694444444444,0,0,0.010850694444444444,28.266059027777775,0)" xlink:href="#ak"/><use transform="matrix(0.010850694444444444,0,0,0.010850694444444444,41.22178819444444,0)" xlink:href="#al"/></g><path d="M154 0v-137l495-537c165-179 249-281 249-418 0-156-121-253-280-253-170 0-278 110-278 278H158c0-264 200-443 465-443 266 0 455 183 455 416 0 161-73 288-336 568L416-179v12h687V0H154" id="ba"/><use transform="matrix(0.010850694444444444,0,0,0.010850694444444444,0,0)" xlink:href="#ba" id="K"/><g id="L"><use transform="matrix(0.010850694444444444,0,0,0.010850694444444444,0,0)" xlink:href="#aV"/><use transform="matrix(0.010850694444444444,0,0,0.010850694444444444,12.71701388888889,0)" xlink:href="#aw"/><use transform="matrix(0.010850694444444444,0,0,0.010850694444444444,25.1953125,0)" xlink:href="#aS"/><use transform="matrix(0.010850694444444444,0,0,0.010850694444444444,38.80208333333333,0)" xlink:href="#ax"/><use transform="matrix(0.010850694444444444,0,0,0.010850694444444444,44.18402777777777,0)" xlink:href="#ak"/><use transform="matrix(0.010850694444444444,0,0,0.010850694444444444,57.139756944444436,0)" xlink:href="#aj"/></g><path d="M635 20c-292 0-500-160-510-396h192c11 142 145 229 315 229 187 0 323-105 323-260 0-161-125-274-346-274H488v-165h121c174 0 294-100 294-254 0-148-104-245-266-245-152 0-291 85-297 230H157c8-234 222-395 484-395 278 0 448 188 448 400 0 168-95 291-247 336v12c190 31 301 169 301 357 0 244-216 425-508 425" id="bb"/><use transform="matrix(0.010850694444444444,0,0,0.010850694444444444,0,0)" xlink:href="#bb" id="M"/><g id="N"><use transform="matrix(0.010850694444444444,0,0,0.010850694444444444,0,0)" xlink:href="#ah"/><use transform="matrix(0.010850694444444444,0,0,0.010850694444444444,5.967881944444445,0)" xlink:href="#ai"/><use transform="matrix(0.010850694444444444,0,0,0.010850694444444444,19.09722222222222,0)" xlink:href="#aj"/><use transform="matrix(0.010850694444444444,0,0,0.010850694444444444,26.15017361111111,0)" xlink:href="#ak"/><use transform="matrix(0.010850694444444444,0,0,0.010850694444444444,39.10590277777778,0)" xlink:href="#al"/><use transform="matrix(0.010850694444444444,0,0,0.010850694444444444,47.819010416666664,0)" xlink:href="#ai"/><use transform="matrix(0.010850694444444444,0,0,0.010850694444444444,60.94835069444444,0)" xlink:href="#aw"/><use transform="matrix(0.010850694444444444,0,0,0.010850694444444444,73.42664930555556,0)" xlink:href="#ax"/></g><path d="M180 0v-1490h224l606 953c40 63 108 177 176 312-27-437-7-821-13-1265h190V0h-226C860-448 622-778 356-1262c27 476 11 792 15 1262H180" id="bc"/><g id="O"><use transform="matrix(0.010850694444444444,0,0,0.010850694444444444,0,0)" xlink:href="#bc"/><use transform="matrix(0.010850694444444444,0,0,0.010850694444444444,16.74262152777778,0)" xlink:href="#ak"/><use transform="matrix(0.010850694444444444,0,0,0.010850694444444444,29.698350694444443,0)" xlink:href="#aj"/><use transform="matrix(0.010850694444444444,0,0,0.010850694444444444,37.29383680555555,0)" xlink:href="#av"/><use transform="matrix(0.010850694444444444,0,0,0.010850694444444444,55.078125,0)" xlink:href="#ap"/><use transform="matrix(0.010850694444444444,0,0,0.010850694444444444,68.40277777777777,0)" xlink:href="#al"/><use transform="matrix(0.010850694444444444,0,0,0.010850694444444444,77.11588541666667,0)" xlink:href="#aW"/></g><g id="P"><use transform="matrix(0.010850694444444444,0,0,0.010850694444444444,0,0)" xlink:href="#aG"/><use transform="matrix(0.010850694444444444,0,0,0.010850694444444444,16.03732638888889,0)" xlink:href="#aq"/><use transform="matrix(0.010850694444444444,0,0,0.010850694444444444,21.419270833333336,0)" xlink:href="#aC"/><use transform="matrix(0.010850694444444444,0,0,0.010850694444444444,33.14887152777778,0)" xlink:href="#aj"/><use transform="matrix(0.010850694444444444,0,0,0.010850694444444444,40.41883680555556,0)" xlink:href="#al"/><use transform="matrix(0.010850694444444444,0,0,0.010850694444444444,49.13194444444444,0)" xlink:href="#aq"/><use transform="matrix(0.010850694444444444,0,0,0.010850694444444444,54.513888888888886,0)" xlink:href="#aS"/><use transform="matrix(0.010850694444444444,0,0,0.010850694444444444,68.12065972222221,0)" xlink:href="#aM"/><use transform="matrix(0.010850694444444444,0,0,0.010850694444444444,81.26085069444443,0)" xlink:href="#aj"/><use transform="matrix(0.010850694444444444,0,0,0.010850694444444444,88.5308159722222,0)" xlink:href="#aq"/><use transform="matrix(0.010850694444444444,0,0,0.010850694444444444,93.91276041666664,0)" xlink:href="#ap"/><use transform="matrix(0.010850694444444444,0,0,0.010850694444444444,107.23741319444441,0)" xlink:href="#ai"/></g><path fill="#3a414a" d="M449 0L49-1490h333c89 395 194 758 253 1185 65-426 176-790 269-1185h317c93 394 201 758 268 1181 60-425 164-788 253-1181h334L1675 0h-348c-90-376-204-711-266-1118C1004-714 886-373 798 0H449" id="bd"/><path fill="#3a414a" d="M49 0l509-1490h400L1480 0h-339l-115-346H497L386 0H49zm524-585h374c-75-213-124-402-192-666-66 268-110 453-182 666" id="be"/><path fill="#3a414a" d="M135 0v-1490h340l471 754c59 97 122 210 187 365-32-387-14-721-19-1119h312V0h-341C855-382 627-689 427-1113c32 420 16 695 20 1113H135" id="bf"/><g id="Q"><use transform="matrix(0.008680555555555556,0,0,0.008680555555555556,0,0)" xlink:href="#bd"/><use transform="matrix(0.008680555555555556,0,0,0.008680555555555556,17.17013888888889,0)" xlink:href="#be"/><use transform="matrix(0.008680555555555556,0,0,0.008680555555555556,30.442708333333336,0)" xlink:href="#bf"/></g><path fill="#3a414a" d="M440-1490V0H135v-1490h305" id="bg"/><path fill="#3a414a" d="M135 0v-1490h581c339 0 533 210 533 503 0 295-197 500-540 500H440V0H135zm305-733h220c186 0 274-104 274-254s-88-251-275-251H440v505" id="bh"/><g id="R"><use transform="matrix(0.008680555555555556,0,0,0.008680555555555556,0,0)" xlink:href="#bg"/><use transform="matrix(0.008680555555555556,0,0,0.008680555555555556,4.991319444444445,0)" xlink:href="#bh"/></g><path fill="#3a414a" d="M169-607c0-330 107-732 258-974h279c-145 311-231 674-231 974 0 262 67 512 231 886H427C258-1 169-307 169-607" id="bi"/><path fill="#3a414a" d="M572 22C302 22 117-98 78-306l279-48c29 105 101 156 224 156 114 0 185-48 185-115 0-118-228-130-337-155-215-49-322-150-322-317 0-215 187-347 470-347 265 0 424 116 466 298l-266 47c-24-76-87-130-196-130-98 0-174 46-174 113 0 56 38 95 144 117l201 40c216 44 320 143 320 302 0 220-207 367-500 367" id="bj"/><path fill="#3a414a" d="M128 0v-1118h300V0H128zm150-1264c-91 0-165-68-165-154 0-85 74-154 165-154 90 0 165 69 165 154 0 86-75 154-165 154" id="bk"/><path fill="#3a414a" d="M625 442c-280 0-454-114-503-274l258-72c28 63 97 128 243 128 153 0 246-69 246-216v-206h-23C805-108 717-16 536-16 284-16 81-191 81-561c0-378 208-571 456-571 188 0 280 113 321 202h13v-188h295V-9c0 303-226 451-541 451zm5-686c153 0 240-119 240-319 0-198-86-329-240-329-158 0-241 137-241 329 0 195 85 319 241 319" id="bl"/><path fill="#3a414a" d="M428-647V0H128v-1118h283l4 231c63-156 176-245 348-245 232 0 384 159 384 421V0H847v-659c0-139-76-222-202-222-128 0-217 86-217 234" id="bm"/><path fill="#3a414a" d="M633 22C291 22 81-200 81-553c0-345 210-579 537-579 292 0 525 185 525 567v84H378c7 183 109 277 260 277 105 0 184-46 216-132l272 51C1071-99 893 22 633 22zM380-669h474c-15-146-94-237-233-237-143 0-229 99-241 237" id="bn"/><path fill="#3a414a" d="M537 19C279 19 81-185 81-557c0-382 206-575 454-575 190 0 278 113 318 202h10v-560h300V0H868v-179h-15C812-89 719 19 537 19zm92-241c153 0 240-134 240-336 0-203-86-334-240-334-158 0-240 138-240 334 0 197 84 336 240 336" id="bo"/><g id="S"><use transform="matrix(0.008680555555555556,0,0,0.008680555555555556,0,0)" xlink:href="#bi"/><use transform="matrix(0.008680555555555556,0,0,0.008680555555555556,6.701388888888889,0)" xlink:href="#be"/><use transform="matrix(0.008680555555555556,0,0,0.008680555555555556,19.774305555555557,0)" xlink:href="#bj"/><use transform="matrix(0.008680555555555556,0,0,0.008680555555555556,29.73090277777778,0)" xlink:href="#bj"/><use transform="matrix(0.008680555555555556,0,0,0.008680555555555556,39.6875,0)" xlink:href="#bk"/><use transform="matrix(0.008680555555555556,0,0,0.008680555555555556,44.505208333333336,0)" xlink:href="#bl"/><use transform="matrix(0.008680555555555556,0,0,0.008680555555555556,55.73784722222222,0)" xlink:href="#bm"/><use transform="matrix(0.008680555555555556,0,0,0.008680555555555556,66.80555555555556,0)" xlink:href="#bn"/><use transform="matrix(0.008680555555555556,0,0,0.008680555555555556,77.39583333333334,0)" xlink:href="#bo"/></g><path fill="#3a414a" d="M754 19C571 19 479-89 437-179h-14V0H128v-1490h300v560h9c41-89 129-202 319-202 248 0 453 193 453 575 0 372-197 576-455 576zm-92-241c156 0 240-139 240-336 0-196-83-334-240-334-154 0-241 131-241 334 0 202 88 336 241 336" id="bp"/><path fill="#3a414a" d="M120 396l69-226c123 42 245 23 254-107l8-60L31-1118h319c87 288 199 559 259 872 72-308 185-583 277-872h315L726 132c-68 181-186 294-410 294-79 0-153-13-196-30" id="bq"/><g id="T"><use transform="matrix(0.008680555555555556,0,0,0.008680555555555556,0,0)" xlink:href="#bp"/><use transform="matrix(0.008680555555555556,0,0,0.008680555555555556,10.885416666666668,0)" xlink:href="#bq"/></g><path fill="#3a414a" d="M681 22C323 22 94-145 85-462h297c10 151 131 226 296 226 163 0 271-77 271-190 0-102-95-149-257-189l-164-41c-252-61-403-188-403-405 0-269 236-449 560-449 330 0 546 183 551 445H941c-11-119-106-188-259-188-156 0-244 72-244 172-3 156 226 185 373 221 250 61 445 186 445 436 0 271-213 446-575 446" id="br"/><path fill="#3a414a" d="M67 279c166-379 230-627 230-886 0-300-86-663-230-974h278c151 241 258 644 258 974 0 302-90 608-258 886H67" id="bs"/><g id="U"><use transform="matrix(0.008680555555555556,0,0,0.008680555555555556,0,0)" xlink:href="#bg"/><use transform="matrix(0.008680555555555556,0,0,0.008680555555555556,4.991319444444445,0)" xlink:href="#br"/><use transform="matrix(0.008680555555555556,0,0,0.008680555555555556,16.631944444444443,0)" xlink:href="#bh"/><use transform="matrix(0.008680555555555556,0,0,0.008680555555555556,28.151041666666664,0)" xlink:href="#bs"/></g><path fill="#3a414a" d="M571 0L49-1490h339c138 427 271 775 384 1244 111-471 237-815 371-1244h337L970 0H571" id="bt"/><path fill="#3a414a" d="M135 0v-1490h305v1237h643V0H135" id="bu"/><g id="V"><use transform="matrix(0.008680555555555556,0,0,0.008680555555555556,0,0)" xlink:href="#bt"/><use transform="matrix(0.008680555555555556,0,0,0.008680555555555556,13.272569444444445,0)" xlink:href="#bu"/><use transform="matrix(0.008680555555555556,0,0,0.008680555555555556,23.32465277777778,0)" xlink:href="#be"/><use transform="matrix(0.008680555555555556,0,0,0.008680555555555556,36.59722222222222,0)" xlink:href="#bf"/></g><path fill="#3a414a" d="M749-1490V0H444v-1221h-10L93-980v-279l329-231h327" id="bv"/><path fill="#3a414a" d="M690 20C314 20 94-261 94-744c0-482 221-766 596-766 376 0 597 284 597 766 0 483-219 764-597 764zm0-253c184 0 286-184 286-511 0-328-102-514-286-514-183 0-285 187-285 514s101 511 285 511" id="bw"/><g id="W"><use transform="matrix(0.008680555555555556,0,0,0.008680555555555556,0,0)" xlink:href="#bv"/><use transform="matrix(0.008680555555555556,0,0,0.008680555555555556,7.664930555555556,0)" xlink:href="#bw"/></g><path fill="#3a414a" d="M124 0v-220l528-495c135-132 210-216 210-336 0-133-98-215-231-215-139 0-229 88-229 233H110c0-290 214-477 523-477 315 0 525 182 525 440 0 167-80 305-385 586L548-262v11h630V0H124" id="bx"/><g id="X"><use transform="matrix(0.008680555555555556,0,0,0.008680555555555556,0,0)" xlink:href="#bx"/><use transform="matrix(0.008680555555555556,0,0,0.008680555555555556,11.197916666666668,0)" xlink:href="#bw"/></g><path fill="#3a414a" d="M135 0v-1490h468l242 684c30 94 76 293 111 455 34-161 80-360 110-455l238-684h470V0h-307c0-447-3-765 11-1227-122 503-246 788-395 1227H826C676-435 552-717 427-1215c15 453 11 775 11 1215H135" id="by"/><path fill="#3a414a" d="M342-723c-98 0-173-75-173-172s75-172 173-172 173 75 173 172-75 172-173 172zm0 742c-98 0-173-75-173-172s75-172 173-172 173 75 173 172S440 19 342 19" id="bz"/><g id="Y"><use transform="matrix(0.008680555555555556,0,0,0.008680555555555556,0,0)" xlink:href="#bt"/><use transform="matrix(0.008680555555555556,0,0,0.008680555555555556,13.272569444444445,0)" xlink:href="#by"/><use transform="matrix(0.008680555555555556,0,0,0.008680555555555556,29.835069444444443,0)" xlink:href="#bz"/></g><path fill="#3a414a" d="M636 22c-294 0-497-190-527-437h302c24 106 107 174 225 174 196 0 302-184 302-479h-10c-68 129-211 209-374 209-265 0-460-202-460-482 0-301 224-521 555-519 300 2 588 186 588 731 0 502-235 803-601 803zm11-757c147 0 260-121 260-268 0-144-109-265-258-265-147 0-258 117-258 267 0 151 108 266 256 266" id="bA"/><path fill="#3a414a" d="M342 19c-98 0-173-75-173-172s75-172 173-172 173 75 173 172S440 19 342 19" id="bB"/><path fill="#3a414a" d="M684 20C381 20 94-164 94-710c0-501 235-800 601-800 293 0 496 188 526 433H921c-25-105-108-170-226-170-197 0-301 182-301 476h10c67-130 211-208 374-208 263 0 459 201 459 481 0 301-224 518-553 518zm-2-242c147 0 258-116 258-268 0-150-108-266-256-266-146 0-259 121-259 267 0 147 109 267 257 267" id="bC"/><path fill="#3a414a" d="M666 20C332 20 94-158 94-400c0-186 139-340 321-370v-9c-159-33-267-168-267-331 0-230 219-400 518-400 298 0 519 171 519 400 0 163-111 298-266 331v9c177 30 321 184 321 370 0 242-241 420-574 420zm0-226c153 0 255-89 255-218 0-131-108-226-255-226-148 0-255 94-255 226 0 128 101 218 255 218zm0-668c127 0 220-84 220-203s-90-200-220-200-220 80-220 200c0 119 92 203 220 203" id="bD"/><g id="Z"><use transform="matrix(0.008680555555555556,0,0,0.008680555555555556,0,0)" xlink:href="#bv"/><use transform="matrix(0.008680555555555556,0,0,0.008680555555555556,7.664930555555556,0)" xlink:href="#bA"/><use transform="matrix(0.008680555555555556,0,0,0.008680555555555556,19.210069444444446,0)" xlink:href="#bx"/><use transform="matrix(0.008680555555555556,0,0,0.008680555555555556,30.40798611111111,0)" xlink:href="#bB"/><use transform="matrix(0.008680555555555556,0,0,0.008680555555555556,34.739583333333336,0)" xlink:href="#bv"/><use transform="matrix(0.008680555555555556,0,0,0.008680555555555556,42.40451388888889,0)" xlink:href="#bC"/><use transform="matrix(0.008680555555555556,0,0,0.008680555555555556,53.949652777777786,0)" xlink:href="#bD"/><use transform="matrix(0.008680555555555556,0,0,0.008680555555555556,65.14756944444446,0)" xlink:href="#bB"/><use transform="matrix(0.008680555555555556,0,0,0.008680555555555556,69.47916666666669,0)" xlink:href="#bv"/><use transform="matrix(0.008680555555555556,0,0,0.008680555555555556,77.14409722222224,0)" xlink:href="#bB"/><use transform="matrix(0.008680555555555556,0,0,0.008680555555555556,81.47569444444446,0)" xlink:href="#bv"/><use transform="matrix(0.008680555555555556,0,0,0.008680555555555556,89.14062500000004,0)" xlink:href="#bw"/></g><g id="aa"><use transform="matrix(0.008680555555555556,0,0,0.008680555555555556,0,0)" xlink:href="#bv"/><use transform="matrix(0.008680555555555556,0,0,0.008680555555555556,7.664930555555556,0)" xlink:href="#bA"/><use transform="matrix(0.008680555555555556,0,0,0.008680555555555556,19.210069444444446,0)" xlink:href="#bx"/><use transform="matrix(0.008680555555555556,0,0,0.008680555555555556,30.40798611111111,0)" xlink:href="#bB"/><use transform="matrix(0.008680555555555556,0,0,0.008680555555555556,34.739583333333336,0)" xlink:href="#bv"/><use transform="matrix(0.008680555555555556,0,0,0.008680555555555556,42.40451388888889,0)" xlink:href="#bC"/><use transform="matrix(0.008680555555555556,0,0,0.008680555555555556,53.949652777777786,0)" xlink:href="#bD"/><use transform="matrix(0.008680555555555556,0,0,0.008680555555555556,65.14756944444446,0)" xlink:href="#bB"/><use transform="matrix(0.008680555555555556,0,0,0.008680555555555556,69.47916666666669,0)" xlink:href="#bv"/><use transform="matrix(0.008680555555555556,0,0,0.008680555555555556,77.14409722222224,0)" xlink:href="#bB"/><use transform="matrix(0.008680555555555556,0,0,0.008680555555555556,81.47569444444446,0)" xlink:href="#bv"/><use transform="matrix(0.008680555555555556,0,0,0.008680555555555556,89.14062500000004,0)" xlink:href="#bv"/></g><g id="ab"><use transform="matrix(0.008680555555555556,0,0,0.008680555555555556,0,0)" xlink:href="#bv"/><use transform="matrix(0.008680555555555556,0,0,0.008680555555555556,7.664930555555556,0)" xlink:href="#bA"/><use transform="matrix(0.008680555555555556,0,0,0.008680555555555556,19.210069444444446,0)" xlink:href="#bx"/><use transform="matrix(0.008680555555555556,0,0,0.008680555555555556,30.40798611111111,0)" xlink:href="#bB"/><use transform="matrix(0.008680555555555556,0,0,0.008680555555555556,34.739583333333336,0)" xlink:href="#bv"/><use transform="matrix(0.008680555555555556,0,0,0.008680555555555556,42.40451388888889,0)" xlink:href="#bC"/><use transform="matrix(0.008680555555555556,0,0,0.008680555555555556,53.949652777777786,0)" xlink:href="#bD"/><use transform="matrix(0.008680555555555556,0,0,0.008680555555555556,65.14756944444446,0)" xlink:href="#bB"/><use transform="matrix(0.008680555555555556,0,0,0.008680555555555556,69.47916666666669,0)" xlink:href="#bv"/><use transform="matrix(0.008680555555555556,0,0,0.008680555555555556,77.14409722222224,0)" xlink:href="#bB"/><use transform="matrix(0.008680555555555556,0,0,0.008680555555555556,81.47569444444446,0)" xlink:href="#bv"/><use transform="matrix(0.008680555555555556,0,0,0.008680555555555556,89.14062500000004,0)" xlink:href="#bx"/></g><path fill="#3a414a" d="M659 20C335 20 103-159 99-418h307c5 112 113 185 254 185 147 0 250-83 250-204 0-123-105-209-278-209H494v-227h138c145 0 246-81 246-200 0-115-87-193-216-193-130 0-237 73-240 189H128c4-255 233-433 536-433 306 0 510 185 510 418 0 167-114 285-279 317v11c217 29 333 162 333 347 0 254-237 437-569 437" id="bE"/><g id="ac"><use transform="matrix(0.008680555555555556,0,0,0.008680555555555556,0,0)" xlink:href="#bv"/><use transform="matrix(0.008680555555555556,0,0,0.008680555555555556,7.664930555555556,0)" xlink:href="#bA"/><use transform="matrix(0.008680555555555556,0,0,0.008680555555555556,19.210069444444446,0)" xlink:href="#bx"/><use transform="matrix(0.008680555555555556,0,0,0.008680555555555556,30.40798611111111,0)" xlink:href="#bB"/><use transform="matrix(0.008680555555555556,0,0,0.008680555555555556,34.739583333333336,0)" xlink:href="#bv"/><use transform="matrix(0.008680555555555556,0,0,0.008680555555555556,42.40451388888889,0)" xlink:href="#bC"/><use transform="matrix(0.008680555555555556,0,0,0.008680555555555556,53.949652777777786,0)" xlink:href="#bD"/><use transform="matrix(0.008680555555555556,0,0,0.008680555555555556,65.14756944444446,0)" xlink:href="#bB"/><use transform="matrix(0.008680555555555556,0,0,0.008680555555555556,69.47916666666669,0)" xlink:href="#bv"/><use transform="matrix(0.008680555555555556,0,0,0.008680555555555556,77.14409722222224,0)" xlink:href="#bB"/><use transform="matrix(0.008680555555555556,0,0,0.008680555555555556,81.47569444444446,0)" xlink:href="#bv"/><use transform="matrix(0.008680555555555556,0,0,0.008680555555555556,89.14062500000004,0)" xlink:href="#bE"/></g><path fill="#3a414a" d="M101-265v-241l623-984h383v979h186v246h-186V0H814v-265H101zm719-246v-643h-12L409-523v12h411" id="bF"/><g id="ad"><use transform="matrix(0.008680555555555556,0,0,0.008680555555555556,0,0)" xlink:href="#bv"/><use transform="matrix(0.008680555555555556,0,0,0.008680555555555556,7.664930555555556,0)" xlink:href="#bA"/><use transform="matrix(0.008680555555555556,0,0,0.008680555555555556,19.210069444444446,0)" xlink:href="#bx"/><use transform="matrix(0.008680555555555556,0,0,0.008680555555555556,30.40798611111111,0)" xlink:href="#bB"/><use transform="matrix(0.008680555555555556,0,0,0.008680555555555556,34.739583333333336,0)" xlink:href="#bv"/><use transform="matrix(0.008680555555555556,0,0,0.008680555555555556,42.40451388888889,0)" xlink:href="#bC"/><use transform="matrix(0.008680555555555556,0,0,0.008680555555555556,53.949652777777786,0)" xlink:href="#bD"/><use transform="matrix(0.008680555555555556,0,0,0.008680555555555556,65.14756944444446,0)" xlink:href="#bB"/><use transform="matrix(0.008680555555555556,0,0,0.008680555555555556,69.47916666666669,0)" xlink:href="#bv"/><use transform="matrix(0.008680555555555556,0,0,0.008680555555555556,77.14409722222224,0)" xlink:href="#bB"/><use transform="matrix(0.008680555555555556,0,0,0.008680555555555556,81.47569444444446,0)" xlink:href="#bv"/><use transform="matrix(0.008680555555555556,0,0,0.008680555555555556,89.14062500000004,0)" xlink:href="#bF"/></g><g id="ae"><use transform="matrix(0.008680555555555556,0,0,0.008680555555555556,0,0)" xlink:href="#bE"/><use transform="matrix(0.008680555555555556,0,0,0.008680555555555556,11.475694444444445,0)" xlink:href="#bw"/></g><path fill="#3a414a" d="M818-733v240H140v-240h678" id="bG"/><path fill="#3a414a" d="M135 0v-1490h980v253H440v416h609v249H440V0H135" id="bH"/><g id="af"><use transform="matrix(0.008680555555555556,0,0,0.008680555555555556,0,0)" xlink:href="#bd"/><use transform="matrix(0.008680555555555556,0,0,0.008680555555555556,18.446180555555557,0)" xlink:href="#bk"/><use transform="matrix(0.008680555555555556,0,0,0.008680555555555556,23.263888888888893,0)" xlink:href="#bG"/><use transform="matrix(0.008680555555555556,0,0,0.008680555555555556,31.579861111111114,0)" xlink:href="#bH"/><use transform="matrix(0.008680555555555556,0,0,0.008680555555555556,42.01388888888889,0)" xlink:href="#bk"/></g><g id="ag"><use transform="matrix(0.008680555555555556,0,0,0.008680555555555556,0,0)" xlink:href="#bF"/><use transform="matrix(0.008680555555555556,0,0,0.008680555555555556,12.022569444444445,0)" xlink:href="#bw"/></g></defs></g></svg>