<svg xmlns="http://www.w3.org/2000/svg" xmlns:xlink="http://www.w3.org/1999/xlink" xmlns:lucid="lucid" width="1915" height="1943"><g transform="translate(468.1666666666665 790.2166666666667)" lucid:page-tab-id="0_0"><path d="M-466.67-782.72a6 6 0 0 1 6-6h1900a6 6 0 0 1 6 6v1928a6 6 0 0 1-6 6h-1900a6 6 0 0 1-6-6z" stroke="#000" stroke-width="3" fill-opacity="0"/><path d="M-386.67-691.22a6 6 0 0 1 6-6h150a6 6 0 0 1 6 6v110a6 6 0 0 1-6 6h-150a6 6 0 0 1-6-6z" stroke="#ff80df" stroke-width="2" fill="#fff0fb"/><use xlink:href="#a" transform="matrix(1,0,0,1,-374.6666666666665,-685.2166666666667) translate(43.53703703703704 39.21527777777778)"/><use xlink:href="#b" transform="matrix(1,0,0,1,-374.6666666666665,-685.2166666666667) translate(12.888888888888886 65.88194444444446)"/><path d="M-144.67-671.22h150v63h-150v-63z" fill="#29aae1"/><path d="M-133.42-604.16H-3.37c.75 0 1.35.63 1.35 1.47 0 .78-.6 1.4-1.35 1.4h-130.05c-.75 0-1.35-.62-1.35-1.4 0-.83.6-1.46 1.35-1.46z" fill="#2188b4"/><path d="M-40.42-662.26H.23v44.87h-40.65v-44.86z" fill="#fff"/><path d="M-38.62-660.93h37.2v41.72h-37.2v-41.73z" fill="#54bbe7"/><path d="M-125.32-649.03c0 2.66-2.1 4.83-4.5 4.83-2.55 0-4.65-2.17-4.65-4.83s2.1-4.83 4.65-4.83c2.4 0 4.5 2.17 4.5 4.83zM-102.07-649.03c0 2.66-1.95 4.83-4.5 4.83s-4.65-2.17-4.65-4.83 2.1-4.83 4.65-4.83c2.55 0 4.5 2.17 4.5 4.83zM-76.87-649.03c0 2.66-1.95 4.83-4.5 4.83s-4.5-2.17-4.5-4.83 1.95-4.83 4.5-4.83 4.5 2.17 4.5 4.83zM-52.87-649.03c0 2.66-1.95 4.83-4.5 4.83s-4.65-2.17-4.65-4.83 2.1-4.83 4.65-4.83c2.55 0 4.5 2.17 4.5 4.83zM-1.57-640.07c0 11.48-8.25 20.8-18.6 20.8-10.2 0-18.6-9.32-18.6-20.8s8.4-20.8 18.6-20.8c10.35 0 18.6 9.32 18.6 20.8z" fill="#fff"/><path d="M-3.82-640.07c0 9.8-7.2 17.78-16.2 17.78s-16.2-7.97-16.2-17.77c0-9.87 7.2-17.85 16.2-17.85s16.2 7.98 16.2 17.85z" fill="#54bbe7"/><path d="M-21.07-658.13h2.4v36.4h-2.4v-36.4z" fill="#fff"/><path d="M-37.72-641.33h35.25v2.3h-35.25v-2.3zM-32.62-652.74h25.35v1.33h-25.35v-1.34z" fill="#fff"/><path d="M-32.77-651.83h1.5v24.08h-1.5v-24.08z" fill="#fff"/><path d="M-32.17-628.52h25.05v1.6h-25.05v-1.6z" fill="#fff"/><path d="M-8.77-651.83h1.2v24.78h-1.2v-24.78z" fill="#fff"/><use xlink:href="#c" transform="matrix(1,0,0,1,-174.66666666666652,-601.2166666666667) translate(68.0246913580247 19.444444444444443)"/><path d="M85.33-631.78h149.85v46.56H85.33v-46.56z" fill="#29aae1"/><path d="M92.53-579.94h135.45v3.6H92.53v-3.6z" fill="#2188b4"/><path d="M92.38-614.02h13.95v5.88H92.38v-5.88z" fill="#fff"/><path d="M99.13-610.06c3.3 0 3.3 0 3.3 3.36v.6c0 3.24 0 3.24-3.3 3.24s-3.3 0-3.3-3.24v-.6c0-3.36 0-3.36 3.3-3.36zM113.83-614.02h13.95v5.88h-13.95v-5.88z" fill="#fff"/><path d="M120.58-610.06c3.3 0 3.3 0 3.3 3.36v.6c0 3.24 0 3.24-3.3 3.24s-3.3 0-3.3-3.24v-.6c0-3.36 0-3.36 3.3-3.36zM136.48-614.02h13.95v5.88h-13.95v-5.88z" fill="#fff"/><path d="M143.23-610.06c3.3 0 3.3 0 3.3 3.36v.6c0 3.24 0 3.24-3.3 3.24s-3.3 0-3.3-3.24v-.6c0-3.36 0-3.36 3.3-3.36zM158.53-614.02h13.95v5.88h-13.95v-5.88z" fill="#fff"/><path d="M165.28-610.06c3.3 0 3.3 0 3.3 3.36v.6c0 3.24 0 3.24-3.3 3.24s-3.3 0-3.3-3.24v-.6c0-3.36 0-3.36 3.3-3.36z" fill="#fff"/><path d="M220.18-662.26c5.7 1.08 5.7 1.08 4.65 6.6l-5.4 27.48c-1.05 5.64-1.05 5.64-6.75 4.56-5.55-1.08-5.55-1.08-4.5-6.6l5.25-27.6c1.2-5.52 1.2-5.52 6.75-4.44z" fill="#29aae1"/><path d="M226.18-692.74c3.45.72 3.45.72 2.85 4.08l-5.7 28.68c-.6 3.36-.6 3.36-4.05 2.76-3.6-.72-3.6-.72-2.85-4.08l5.55-28.68c.6-3.36.6-3.36 4.2-2.76z" fill="#29aae1"/><path d="M189.88-628.18h40.2v37.92h-40.2v-37.92z" fill="#fff"/><path d="M191.23-626.86h37.35v35.16h-37.35v-35.16z" fill="#54bbe7"/><path d="M209.23-625.18l-4.5 4.68h2.4l.15 6.48h4.65l-.45-6.48h2.4l-4.65-4.68zM209.98-594.46l4.5-4.44-2.25-.12-.15-6.48-4.65-.12.45 6.48h-2.55l4.65 4.68zM211.63-609.46l4.5 4.68.15-2.28h6.45l.3-4.56-6.6.24v-1.68l.15-.72-4.95 4.32zM207.73-609.46l-4.5-4.56-.15 2.28-6.45-.12-.3 4.56 6.6-.24v1.8l-.15.72 4.95-4.44z" fill="#fff"/><path d="M100.03-664.66c5.55-1.08 5.55-1.08 6.6 4.44l5.4 27.48c1.2 5.64 1.2 5.64-4.5 6.72s-5.7 1.08-6.75-4.56l-5.4-27.48c-1.05-5.52-1.05-5.52 4.65-6.6z" fill="#29aae1"/><path d="M94.03-695.14c3.45-.72 3.45-.72 4.2 2.76l5.55 28.68c.6 3.36.6 3.36-2.85 4.08-3.45.6-3.45.6-4.05-2.76l-5.7-28.68c-.6-3.48-.6-3.48 2.85-4.08z" fill="#29aae1"/><use xlink:href="#d" transform="matrix(1,0,0,1,55.333333333333485,-576.2166666666667) translate(71.72839506172839 19.444444444444443)"/><path d="M315.33-708.72h200v145h-200z" fill="none"/><path d="M315.33-708.72h46.8v17.84h-46.8v-17.84zM366.13-708.72h46.6v17.84h-46.6v-17.84zM417.53-708.72h46.6v17.84h-46.6v-17.84zM468.33-708.72h46.8v17.84h-46.8v-17.84zM315.73-687.7h22.8v18.57h-22.8v-18.56zM343.33-687.7h46.8v17.84h-46.8v-17.83zM395.53-687.7h46.6v17.84h-46.6v-17.83zM447.93-687.7h46.8v17.84h-46.8v-17.83zM498.53-687.7h16.2v18.57h-16.2v-18.56zM315.33-665.5h46.8v17.68h-46.8v-17.7zM366.13-665.5h46.8v17.68h-46.8v-17.7zM417.53-665.5h46.8v17.68h-46.8v-17.7zM468.53-665.5h46.8v17.68h-46.8v-17.7zM315.73-644.2h22.8v18.57h-22.8v-18.56zM343.33-644.2h46.8v17.84h-46.8v-17.83zM395.53-644.2h46.8v17.84h-46.8v-17.83zM448.13-644.2h46.6v17.84h-46.6v-17.83zM498.73-644.2h16.2v18.57h-16.2v-18.56zM315.33-622.73h46.8v17.83h-46.8v-17.83zM366.13-622.73h46.8v17.83h-46.8v-17.83zM417.53-622.73h46.8v17.83h-46.8v-17.83zM468.53-622.73h46.8v17.83h-46.8v-17.83zM315.73-602.87h22.8v18.56h-22.8v-18.57zM343.33-602.87h46.8v17.84h-46.8v-17.84zM395.53-602.87h46.8v17.84h-46.8v-17.84zM448.13-602.87h46.6v17.84h-46.6v-17.84zM498.73-602.87h16.2v18.56h-16.2v-18.57zM315.33-581.4h46.8v17.83h-46.8v-17.84zM366.13-581.4h46.8v17.83h-46.8v-17.84zM417.53-581.4h46.8v17.83h-46.8v-17.84zM468.53-581.4h46.8v17.83h-46.8v-17.84z" fill="#29aae1"/><use xlink:href="#e" transform="matrix(1,0,0,1,285.3333333333335,-563.7166666666667) translate(48.08641975308643 19.444444444444443)"/><use xlink:href="#f" transform="matrix(1,0,0,1,285.3333333333335,-563.7166666666667) translate(135.74074074074076 19.444444444444443)"/><path d="M607.83 353.78H732.7v37.7H607.84v-37.7z" fill="#29aae1"/><path d="M613.83 395.8H726.7v2.94H613.84v-2.93z" fill="#2188b4"/><path d="M616.83 360.44h11.5v4.86h-11.5v-4.86z" fill="#fff"/><path d="M622.33 363.73c2.88 0 2.88 0 2.88 2.65v.5c0 2.65 0 2.65-2.87 2.65-2.75 0-2.75 0-2.75-2.65v-.5c0-2.65 0-2.65 2.75-2.65zM634.7 360.44h11.5v4.86h-11.5v-4.86z" fill="#fff"/><path d="M640.33 363.73c2.75 0 2.75 0 2.75 2.65v.5c0 2.65 0 2.65-2.75 2.65-2.87 0-2.87 0-2.87-2.65v-.5c0-2.65 0-2.65 2.87-2.65zM653.58 360.44h11.5v4.86h-11.5v-4.86z" fill="#fff"/><path d="M659.2 363.73c2.76 0 2.76 0 2.76 2.65v.5c0 2.65 0 2.65-2.75 2.65-2.87 0-2.87 0-2.87-2.65v-.5c0-2.65 0-2.65 2.88-2.65zM671.83 360.44h11.63v4.86h-11.63v-4.86z" fill="#fff"/><path d="M677.46 363.73c2.75 0 2.75 0 2.75 2.65v.5c0 2.65 0 2.65-2.74 2.65-2.75 0-2.75 0-2.75-2.65v-.5c0-2.65 0-2.65 2.76-2.65zM694.96 356.7h33.5v30.74h-33.5V356.7z" fill="#fff"/><path d="M696.08 357.74h31.13v28.53H696.1v-28.53z" fill="#54bbe7"/><path d="M617.08 375.6h11.63v4.82H617.1v-4.8z" fill="#fff"/><path d="M622.7 378.85c2.76 0 2.76 0 2.76 2.65v.5c0 2.65 0 2.65-2.75 2.65-2.74 0-2.74 0-2.74-2.65v-.5c0-2.65 0-2.65 2.75-2.65zM634.96 375.6h11.62v4.82h-11.62v-4.8z" fill="#fff"/><path d="M640.58 378.85c2.75 0 2.75 0 2.75 2.65v.5c0 2.65 0 2.65-2.75 2.65s-2.75 0-2.75-2.65v-.5c0-2.65 0-2.65 2.75-2.65zM653.83 375.6h11.63v4.82h-11.63v-4.8z" fill="#fff"/><path d="M659.46 378.85c2.75 0 2.75 0 2.75 2.65v.5c0 2.65 0 2.65-2.74 2.65-2.75 0-2.75 0-2.75-2.65v-.5c0-2.65 0-2.65 2.76-2.65zM672.2 375.6h11.63v4.82H672.2v-4.8z" fill="#fff"/><path d="M677.83 378.85c2.75 0 2.75 0 2.75 2.65v.5c0 2.65 0 2.65-2.75 2.65s-2.75 0-2.75-2.65v-.5c0-2.65 0-2.65 2.75-2.65zM699.58 359.05l-3.12 3.06 3.25 3.02-.12-6.07zM699.58 379.03l-3.12 3.06 3.12 3v-6.07zM723.46 385.15l3.12-3.02-3.12-3.06v6.08zM723.58 365.26l3.13-3.02-3.12-3.06v6.08z" fill="#fff"/><path d="M699.33 360.85h4.75v2.43h-4.75v-2.43zM719.33 361.07h4.63v2.43h-4.63v-2.43zM699.33 380.83h4.63v2.43h-4.63v-2.43zM719.2 381h4.63v2.44h-4.62V381z" fill="#fff"/><path d="M701.83 362.47l2.13-1.62 17.37 20.97-2.12 1.62-17.37-20.97z" fill="#fff"/><path d="M719.33 361.07l2 1.76-17.37 20.47-2.13-1.75 17.5-20.48z" fill="#fff"/><path d="M711.96 369.67l2 2.47-.38.27-2-2.46.38-.27zM709.7 372l2 2.48-.37.27-2-2.47.38-.27z" fill="#54bbe7"/><use xlink:href="#g" transform="matrix(1,0,0,1,577.8333333333335,398.7833333333333) translate(59.84567901234568 19.444444444444443)"/><path d="M607.83-658.72H732.7v37.7H607.84v-37.7z" fill="#29aae1"/><path d="M613.83-616.7H726.7v2.94H613.84v-2.93z" fill="#2188b4"/><path d="M616.83-652.06h11.5v4.86h-11.5v-4.86z" fill="#fff"/><path d="M622.33-648.77c2.88 0 2.88 0 2.88 2.65v.5c0 2.65 0 2.65-2.87 2.65-2.75 0-2.75 0-2.75-2.65v-.5c0-2.65 0-2.65 2.75-2.65zM634.7-652.06h11.5v4.86h-11.5v-4.86z" fill="#fff"/><path d="M640.33-648.77c2.75 0 2.75 0 2.75 2.65v.5c0 2.65 0 2.65-2.75 2.65-2.87 0-2.87 0-2.87-2.65v-.5c0-2.65 0-2.65 2.87-2.65zM653.58-652.06h11.5v4.86h-11.5v-4.86z" fill="#fff"/><path d="M659.2-648.77c2.76 0 2.76 0 2.76 2.65v.5c0 2.65 0 2.65-2.75 2.65-2.87 0-2.87 0-2.87-2.65v-.5c0-2.65 0-2.65 2.88-2.65zM671.83-652.06h11.63v4.86h-11.63v-4.86z" fill="#fff"/><path d="M677.46-648.77c2.75 0 2.75 0 2.75 2.65v.5c0 2.65 0 2.65-2.74 2.65-2.75 0-2.75 0-2.75-2.65v-.5c0-2.65 0-2.65 2.76-2.65zM694.96-655.8h33.5v30.74h-33.5v-30.73z" fill="#fff"/><path d="M696.08-654.76h31.13v28.53H696.1v-28.53z" fill="#54bbe7"/><path d="M617.08-636.9h11.63v4.82H617.1v-4.8z" fill="#fff"/><path d="M622.7-633.65c2.76 0 2.76 0 2.76 2.65v.5c0 2.65 0 2.65-2.75 2.65-2.74 0-2.74 0-2.74-2.65v-.5c0-2.65 0-2.65 2.75-2.65zM634.96-636.9h11.62v4.82h-11.62v-4.8z" fill="#fff"/><path d="M640.58-633.65c2.75 0 2.75 0 2.75 2.65v.5c0 2.65 0 2.65-2.75 2.65s-2.75 0-2.75-2.65v-.5c0-2.65 0-2.65 2.75-2.65zM653.83-636.9h11.63v4.82h-11.63v-4.8z" fill="#fff"/><path d="M659.46-633.65c2.75 0 2.75 0 2.75 2.65v.5c0 2.65 0 2.65-2.74 2.65-2.75 0-2.75 0-2.75-2.65v-.5c0-2.65 0-2.65 2.76-2.65zM672.2-636.9h11.63v4.82H672.2v-4.8z" fill="#fff"/><path d="M677.83-633.65c2.75 0 2.75 0 2.75 2.65v.5c0 2.65 0 2.65-2.75 2.65s-2.75 0-2.75-2.65v-.5c0-2.65 0-2.65 2.75-2.65zM699.58-653.45l-3.12 3.06 3.25 3.02-.12-6.07zM699.58-633.47l-3.12 3.06 3.12 3v-6.07zM723.46-627.35l3.12-3.02-3.12-3.06v6.08zM723.58-647.24l3.13-3.02-3.12-3.06v6.08z" fill="#fff"/><path d="M699.33-651.65h4.75v2.43h-4.75v-2.43zM719.33-651.43h4.63v2.43h-4.63v-2.43zM699.33-631.67h4.63v2.43h-4.63v-2.43zM719.2-631.5h4.63v2.44h-4.62v-2.43z" fill="#fff"/><path d="M701.83-650.03l2.13-1.62 17.37 20.97-2.12 1.62-17.37-20.97z" fill="#fff"/><path d="M719.33-651.43l2 1.76-17.37 20.47-2.13-1.75 17.5-20.48z" fill="#fff"/><path d="M711.96-642.83l2 2.47-.38.27-2-2.46.38-.27zM709.7-640.5l2 2.48-.37.27-2-2.47.38-.27z" fill="#54bbe7"/><use xlink:href="#g" transform="matrix(1,0,0,1,577.8333333333335,-613.7166666666667) translate(59.84567901234568 19.444444444444443)"/><path d="M890.33 741.28h70.07V861.4h-70.07V741.28z" fill="#29aae1"/><path d="M917.07 824.68h35.63c1.12 0 1.12 0 1.12 1.2 0 1.08 0 1.08-1.12 1.08h-35.63c-1.2 0-1.2 0-1.2-1.08 0-1.2 0-1.2 1.2-1.2zM917.14 830.8h35.5c1.53 0 1.53 0 1.53 1.56v.36c0 1.56 0 1.56-1.54 1.56h-35.5c-1.6 0-1.6 0-1.6-1.56v-.36c0-1.56 0-1.56 1.6-1.56zM917.28 838.36h35.56c1.54 0 1.54 0 1.54 1.56v.36c0 1.56 0 1.56-1.54 1.56h-35.56c-1.54 0-1.54 0-1.54-1.56v-.36c0-1.56 0-1.56 1.54-1.56zM949.7 799.6c0 3.12-2.53 5.64-5.75 5.64s-5.8-2.52-5.8-5.64c0-3.12 2.58-5.64 5.8-5.64 3.22 0 5.74 2.52 5.74 5.64z" fill="#fff"/><path d="M947.38 799.6c0 1.92-1.54 3.48-3.5 3.48s-3.57-1.56-3.57-3.48 1.62-3.48 3.58-3.48 3.5 1.56 3.5 3.48z" fill="#54bbe7"/><use xlink:href="#h" transform="matrix(1,0,0,1,860.3333333333335,861.2833333333333) translate(6.666666666666671 19.444444444444443)"/><use xlink:href="#i" transform="matrix(1,0,0,1,860.3333333333335,861.2833333333333) translate(58.0246913580247 19.444444444444443)"/><path d="M890.33 316.28h70.07V436.4h-70.07V316.28z" fill="#29aae1"/><path d="M917.07 399.68h35.63c1.12 0 1.12 0 1.12 1.2 0 1.08 0 1.08-1.12 1.08h-35.63c-1.2 0-1.2 0-1.2-1.08 0-1.2 0-1.2 1.2-1.2zM917.14 405.8h35.5c1.53 0 1.53 0 1.53 1.56v.36c0 1.56 0 1.56-1.54 1.56h-35.5c-1.6 0-1.6 0-1.6-1.56v-.36c0-1.56 0-1.56 1.6-1.56zM917.28 413.36h35.56c1.54 0 1.54 0 1.54 1.56v.36c0 1.56 0 1.56-1.54 1.56h-35.56c-1.54 0-1.54 0-1.54-1.56v-.36c0-1.56 0-1.56 1.54-1.56zM949.7 374.6c0 3.12-2.53 5.64-5.75 5.64s-5.8-2.52-5.8-5.64c0-3.12 2.58-5.64 5.8-5.64 3.22 0 5.74 2.52 5.74 5.64z" fill="#fff"/><path d="M947.38 374.6c0 1.92-1.54 3.48-3.5 3.48s-3.57-1.56-3.57-3.48 1.62-3.48 3.58-3.48 3.5 1.56 3.5 3.48z" fill="#54bbe7"/><use xlink:href="#j" transform="matrix(1,0,0,1,860.3333333333335,436.2833333333333) translate(17.5 18.111111111111114)"/><use xlink:href="#i" transform="matrix(1,0,0,1,860.3333333333335,436.2833333333333) translate(32.345679012345684 44.777777777777786)"/><path d="M890.53 945.83h69.2v121.3h-69.2v-121.3z" fill="#29aae1"/><path d="M916.93 1030.07h35.2c1.12 0 1.12 0 1.12 1.17 0 1.04 0 1.04-1.12 1.04h-35.2c-1.12 0-1.12 0-1.12-1.04 0-1.17 0-1.17 1.13-1.17zM917 1036.18h35.13c1.52 0 1.52 0 1.52 1.56v.4c0 1.55 0 1.55-1.52 1.55H917c-1.5 0-1.5 0-1.5-1.57v-.4c0-1.55 0-1.55 1.5-1.55zM917.17 1043.85h35.12c1.5 0 1.5 0 1.5 1.56v.4c0 1.56 0 1.56-1.5 1.56h-35.13c-1.52 0-1.52 0-1.52-1.56v-.4c0-1.55 0-1.55 1.52-1.55zM949.25 1004.72c0 3.12-2.56 5.72-5.76 5.72-3.13 0-5.7-2.6-5.7-5.72 0-3.12 2.57-5.72 5.7-5.72 3.2 0 5.75 2.6 5.75 5.72z" fill="#fff"/><path d="M946.93 1004.72c0 1.95-1.6 3.5-3.52 3.5-1.9 0-3.5-1.55-3.5-3.5s1.6-3.5 3.5-3.5c1.93 0 3.53 1.55 3.53 3.5z" fill="#54bbe7"/><path d="M891.8 941.28h27.85v1.95H891.8v-1.95zM923.5 941.28h27.83v2.08H923.5v-2.08zM955.1 941.4h9.9v1.96h-9.9v-1.95z" fill="gray"/><path d="M962.85 943.23H965v12.74h-2.15v-12.74zM962.93 959.35h2.16v26h-2.17v-26zM962.93 989.77h2.24v26h-2.24v-26zM963 1019.4h2.25v26H963v-26zM963 1049.7h2.25v21.58H963v-21.58z" fill="gray"/><path d="M955.1 1069.33h9.9v1.95h-9.9v-1.95zM922.77 1069.33h27.84v1.95h-27.83v-1.95zM887.17 1069.2h30.56v2.08h-30.56v-2.08zM885.4 941.28h2.25v26.13h-2.24V941.3zM885.33 971.57h2.24v26.13h-2.24v-26.13zM885.33 1001.6h2.24v26h-2.24v-26zM885.33 1031.1h2.24v26.14h-2.24v-26.13z" fill="gray"/><path d="M885.5 1061.27h2.23v10h-2.24v-10z" fill="gray"/><use xlink:href="#k" transform="matrix(1,0,0,1,855.3333333333335,1071.2833333333333) translate(0 17.77777777777778)"/><use xlink:href="#l" transform="matrix(1,0,0,1,855.3333333333335,1071.2833333333333) translate(68.51851851851852 17.77777777777778)"/><use xlink:href="#m" transform="matrix(1,0,0,1,855.3333333333335,1071.2833333333333) translate(50.27777777777778 44.44444444444444)"/><use xlink:href="#n" transform="matrix(1,0,0,1,855.3333333333335,1071.2833333333333) translate(7.746913580246911 71.11111111111111)"/><path d="M890.53 528.33h69.2v121.3h-69.2v-121.3z" fill="#29aae1"/><path d="M916.93 612.57h35.2c1.12 0 1.12 0 1.12 1.17 0 1.04 0 1.04-1.12 1.04h-35.2c-1.12 0-1.12 0-1.12-1.04 0-1.17 0-1.17 1.13-1.17zM917 618.68h35.13c1.52 0 1.52 0 1.52 1.56v.4c0 1.55 0 1.55-1.52 1.55H917c-1.5 0-1.5 0-1.5-1.57v-.4c0-1.55 0-1.55 1.5-1.55zM917.17 626.35h35.12c1.5 0 1.5 0 1.5 1.56v.4c0 1.56 0 1.56-1.5 1.56h-35.13c-1.52 0-1.52 0-1.52-1.56v-.4c0-1.55 0-1.55 1.52-1.55zM949.25 587.22c0 3.12-2.56 5.72-5.76 5.72-3.13 0-5.7-2.6-5.7-5.72 0-3.12 2.57-5.72 5.7-5.72 3.2 0 5.75 2.6 5.75 5.72z" fill="#fff"/><path d="M946.93 587.22c0 1.95-1.6 3.5-3.52 3.5-1.9 0-3.5-1.55-3.5-3.5s1.6-3.5 3.5-3.5c1.93 0 3.53 1.55 3.53 3.5z" fill="#54bbe7"/><path d="M891.8 523.78h27.85v1.95H891.8v-1.95zM923.5 523.78h27.83v2.08H923.5v-2.08zM955.1 523.9h9.9v1.96h-9.9v-1.95z" fill="gray"/><path d="M962.85 525.73H965v12.74h-2.15v-12.74zM962.93 541.85h2.16v26h-2.17v-26zM962.93 572.27h2.24v26h-2.24v-26zM963 601.9h2.25v26H963v-26zM963 632.2h2.25v21.58H963V632.2z" fill="gray"/><path d="M955.1 651.83h9.9v1.95h-9.9v-1.95zM922.77 651.83h27.84v1.95h-27.83v-1.95zM887.17 651.7h30.56v2.08h-30.56v-2.08zM885.4 523.78h2.25v26.13h-2.24V523.8zM885.33 554.07h2.24v26.13h-2.24v-26.13zM885.33 584.1h2.24v26h-2.24v-26zM885.33 613.6h2.24v26.14h-2.24V613.6z" fill="gray"/><path d="M885.5 643.77h2.23v10h-2.24v-10z" fill="gray"/><use xlink:href="#k" transform="matrix(1,0,0,1,855.3333333333335,653.7833333333333) translate(0 17.77777777777778)"/><use xlink:href="#l" transform="matrix(1,0,0,1,855.3333333333335,653.7833333333333) translate(68.51851851851852 17.77777777777778)"/><use xlink:href="#o" transform="matrix(1,0,0,1,855.3333333333335,653.7833333333333) translate(49.660493827160494 44.44444444444444)"/><use xlink:href="#n" transform="matrix(1,0,0,1,855.3333333333335,653.7833333333333) translate(7.746913580246911 71.11111111111111)"/><path d="M902.33-201.8h15.8v11.73h-15.8v-11.73zM962.53-333.72h62.8v153.34h-62.8v-153.34z" fill="#29aae1"/><path d="M826.33-307.88h166.2v106.25h-166.2v-106.25z" fill="#29aae1"/><path d="M833.93-301.42h151.6v95.03h-151.6v-95.02z" fill="#fff" fill-opacity=".98"/><path d="M832.93-189.22h151.4l-7.4 25.33h-151.6l7.6-25.32z" fill="#29aae1"/><path d="M831.93-190.07h155l13 26.35h-155l-13-26.35z" fill="#29aae1"/><path d="M884.53-170.52h55.2v5.27h-55.2v-5.27zM854.13-186h4.2v3.4h-4.2v-3.4zM861.33-185.82h4.2v3.4h-4.2v-3.4zM870.73-179.7h4v3.4h-4v-3.4zM869.13-186.16h4.2v3.4h-4.2v-3.4zM876.13-186h4.2v3.4h-4.2v-3.4zM883.13-186.16h4v3.4h-4v-3.4zM925.73-185.65h4.2v3.4h-4.2v-3.4zM932.13-185.65h4v3.4h-4v-3.4zM937.93-185.65h4.2v3.4h-4.2v-3.4zM944.93-185.65h4.2v3.4h-4.2v-3.4zM951.53-185.65h4v3.4h-4v-3.4zM943.73-180.04h4.2v3.4h-4.2v-3.4zM958.93-185.65h4.2v3.4h-4.2v-3.4zM878.33-179.87h4.2v3.4h-4.2v-3.4zM886.33-179.87h4v3.4h-4v-3.4zM937.33-180.2h3.6v3.4h-3.6v-3.4zM930.33-180.2h4v3.4h-4v-3.4zM890.73-186h4v3.4h-4v-3.4zM898.33-185.82h4.2v3.4h-4.2v-3.4zM905.53-186h4.2v3.4h-4.2v-3.4zM913.53-186h4v3.4h-4v-3.4zM919.93-185.82h4.2v3.4h-4.2v-3.4zM893.33-180.04h4v3.4h-4v-3.4zM900.93-180.04h4.2v3.4h-4.2v-3.4zM908.33-179.87h4v3.4h-4v-3.4zM915.33-179.87h4.2v3.4h-4.2v-3.4zM922.73-180.2h4v3.4h-4v-3.4z" fill="#fff"/><path d="M825.53-163.9l174.4-.5-12.4-25.67-154.4.17-7.6 26z" fill="none"/><path d="M1006.93-325.73h11.2c1.2 0 1.2 0 1.2 1.2 0 1.18 0 1.18-1.2 1.18h-11.2c-1.2 0-1.2 0-1.2-1.2 0-1.18 0-1.18 1.2-1.18zM1006.93-320.12h11.4c1 0 1 0 1 1.02s0 1.02-1 1.02h-11.4c-1.2 0-1.2 0-1.2-1.02s0-1.02 1.2-1.02zM962.73-309.58h30.2v1.36h-30.2v-1.36z" fill="#fff"/><path d="M992.93-309.58h1.4v108.3h-1.4v-108.3z" fill="#fff"/><path d="M962.53-201.46h31.6v1.53h-31.6v-1.53zM962.73-192.8h24.2c1.2 0 1.2 0 1.2 1.2 0 1.36 0 1.36-1.2 1.36h-24.2c-1.2 0-1.2 0-1.2-1.36 0-1.2 0-1.2 1.2-1.2z" fill="#fff"/><path d="M987.93-192.45l6.8 11.73-2 1.2-6.6-11.9 1.8-1.03zM901.53-201.8h17v1.7h-17v-1.7zM902.13-191.94h16.2v1.87h-16.2v-1.87z" fill="#fff"/><use xlink:href="#p" transform="matrix(1,0,0,1,795.3333333333335,-163.7166666666667) translate(70.80246913580247 19.444444444444443)"/><use xlink:href="#q" transform="matrix(1,0,0,1,795.3333333333335,-163.7166666666667) translate(158.39506172839506 19.444444444444443)"/><path d="M865.48-83.72h118.05c9.15 0 9.15 0 9.15 10.08v65.76c0 10.08 0 10.08-9.15 10.08H865.48c-9.15 0-9.15 0-9.15-10.08v-65.76c0-10.08 0-10.08 9.15-10.08z" fill="#29aae1"/><path d="M865.48-75.32h118.8v66.6h-118.8v-66.6z" fill="#fff"/><path d="M866.98-72.8h115.8v61.56h-115.8V-72.8z" fill="gray"/><path d="M850.33 22h149.85v14.28H850.33V22z" fill="#29aae1"/><path d="M891.28 5.32h103.65l5.25 16.92H896.53l-5.25-16.92z" fill="#29aae1"/><path d="M957.88 5.32h-102.3l-5.25 16.8h102.3l5.25-16.8z" fill="#29aae1"/><path d="M899.23 8.56h89.7l3.6 11.28h-89.7l-3.6-11.28z" fill="#fff"/><path d="M936.13 8.56h-75.3l-3 11.28h75.3l3-11.28z" fill="#fff"/><use xlink:href="#r" transform="matrix(1,0,0,1,820.3333333333335,36.2833333333333) translate(34.074074074074076 19.444444444444443)"/><use xlink:href="#s" transform="matrix(1,0,0,1,820.3333333333335,36.2833333333333) translate(108.14814814814815 19.444444444444443)"/><path d="M882.58 116.28h83.1v50.4h-83.1v-50.4zM860.08 168.36h130.65c9.75 0 9.75 0 9.75 18.6s0 18.6-9.75 18.6H860.08c-9.75 0-9.75 0-9.75-18.6s0-18.6 9.75-18.6zM877.33 207.24h95.55v29.04h-95.55v-29.04z" fill="#29aae1"/><path d="M850.33 185.16h24.9v35.16h-24.9v-35.16zM975.43 185.4h25.05v36.12h-25.05V185.4z" fill="#29aae1"/><path d="M896.23 221.16h57.9c.9 0 .9 0 .9.72 0 .84 0 .84-.9.84h-57.9c-.9 0-.9 0-.9-.84 0-.72 0-.72.9-.72zM948.13 188.52c0 3-3 5.52-6.9 5.52-3.75 0-6.9-2.52-6.9-5.52 0-3 3.15-5.52 6.9-5.52 3.9 0 6.9 2.52 6.9 5.52zM970.03 188.52c0 3-3 5.52-6.9 5.52-3.9 0-6.9-2.52-6.9-5.52 0-3 3-5.52 6.9-5.52 3.9 0 6.9 2.52 6.9 5.52zM991.33 188.52c0 3-3.15 5.52-6.9 5.52-3.9 0-6.9-2.52-6.9-5.52 0-3 3-5.52 6.9-5.52 3.75 0 6.9 2.52 6.9 5.52z" fill="#fff"/><path d="M945.28 188.52c0 1.8-1.8 3.24-4.05 3.24-2.4 0-4.2-1.44-4.2-3.24 0-1.92 1.8-3.36 4.2-3.36 2.25 0 4.05 1.44 4.05 3.36zM967.33 188.64c0 1.8-1.8 3.36-4.05 3.36-2.4 0-4.2-1.56-4.2-3.36 0-1.8 1.8-3.24 4.2-3.24 2.25 0 4.05 1.44 4.05 3.24zM988.63 188.52c0 1.8-1.8 3.36-4.2 3.36-2.25 0-4.05-1.56-4.05-3.36 0-1.8 1.8-3.24 4.05-3.24 2.4 0 4.2 1.44 4.2 3.24z" fill="#54bbe7"/><use xlink:href="#t" transform="matrix(1,0,0,1,820.3333333333335,236.2833333333333) translate(28.641975308641975 19.444444444444443)"/><use xlink:href="#u" transform="matrix(1,0,0,1,820.3333333333335,236.2833333333333) translate(116.1111111111111 19.444444444444443)"/><path d="M918.8-656.5l12.6-.24 21.68 80.4h-50.62l16.35-80.16z" fill="#29aae1"/><path d="M921.73-669.7h6.75v12.24h-6.75v-12.24z" fill="#2188b4"/><path d="M931.63-674.38c0 3.6-3 6.6-6.6 6.6-3.6 0-6.52-3-6.52-6.6 0-3.6 2.93-6.6 6.53-6.6s6.6 3 6.6 6.6z" fill="#2188b4"/><path d="M938.46-682.3c2.02 1.8 3.15 5.28 3 8.88-.15 3.6-2.48 7.08-2.48 7.08s-1.72 1.68-.3-1.08c1.5-2.76 1.8-3.84 2.03-4.8.16-.96.3-.72.23-2.76-.07-2.04-.97-4.2-1.27-4.44-.3-.24-1.58-2.28-1.58-2.28l.38-.6zM911.83-682.54c-1.87 1.92-2.92 5.4-2.77 9 .15 3.6 2.32 7.08 2.32 7.08s1.65 1.56.23-1.2c-1.34-2.64-1.64-3.84-1.8-4.8-.22-.96-.3-.72-.3-2.76.08-1.92.98-4.08 1.2-4.32.3-.36 1.5-2.4 1.5-2.4l-.37-.6zM946.33-688.66c4.43 3.24 6.9 9.48 6.6 15.84-.37 6.36-5.55 12.48-5.55 12.48s-3.75 2.88-.52-1.92c3.15-4.8 3.9-6.84 4.35-8.52.46-1.68.68-1.32.53-4.92-.15-3.48-2.1-7.32-2.77-7.8-.68-.48-3.53-4.08-3.53-4.08l.9-1.08zM905.08-689.98c-4.57 3.48-7.05 10.08-6.67 16.8.38 6.72 5.63 13.2 5.63 13.2s3.75 3 .53-2.04c-3.23-5.16-4.05-7.32-4.43-9.12-.45-1.8-.75-1.32-.6-5.16.23-3.72 2.18-7.68 2.85-8.28.68-.48 3.53-4.2 3.53-4.2l-.82-1.2z" fill="#54bbe7"/><path d="M952.56-695.26c6.67 4.56 10.35 13.2 9.82 22.08-.52 8.76-8.25 17.28-8.25 17.28s-5.55 4.08-.75-2.64c4.73-6.72 5.85-9.6 6.53-11.88.6-2.4.98-1.8.76-6.84-.23-4.92-3.15-10.08-4.13-10.92-.97-.72-5.25-5.64-5.25-5.64l1.28-1.44zM898.63-696.22c-6.97 4.68-10.8 13.44-10.27 22.56.52 9 8.62 17.76 8.62 17.76s5.78 4.08.83-2.76c-4.94-6.96-6.14-9.84-6.82-12.24-.67-2.4-1.05-1.8-.82-6.84.22-5.16 3.3-10.44 4.35-11.16 1.06-.72 5.48-5.76 5.48-5.76l-1.35-1.56z" fill="#54bbe7"/><use xlink:href="#v" transform="matrix(1,0,0,1,857.8333333333335,-576.2166666666667) translate(25.030864197530867 18.111111111111114)"/><use xlink:href="#w" transform="matrix(1,0,0,1,857.8333333333335,-576.2166666666667) translate(3.333333333333343 44.777777777777786)"/><use xlink:href="#x" transform="matrix(1,0,0,1,857.8333333333335,-576.2166666666667) translate(81.11111111111111 44.777777777777786)"/><path d="M1328.55-681.22h13.56c12.9 0 23.3 1.98 23.3 4.5v81c0 2.52-10.4 4.5-23.3 4.5h-13.55c-12.84 0-23.22-1.98-23.22-4.5v-81c0-2.52 10.38-4.5 23.22-4.5z" fill="#29aae1"/><path d="M1309.53-674.02h51.66v73.53h-51.67V-674zM1326.7-678.16h16.73c.42 0 .78.27.78.54s-.35.54-.77.54h-16.74c-.43 0-.8-.27-.8-.54s.37-.54.8-.54zM1328.85-595.54c0 .63-.48 1.08-1.14 1.08-.6 0-1.13-.45-1.13-1.08 0-.54.54-1.08 1.14-1.08.67 0 1.15.54 1.15 1.08zM1337.13-595.54c0 .63-.48 1.08-1.14 1.08-.6 0-1.1-.45-1.1-1.08 0-.54.5-1.08 1.1-1.08.65 0 1.13.54 1.13 1.08zM1345-595.54c0 .63-.55 1.08-1.15 1.08-.66 0-1.14-.45-1.14-1.08 0-.54.5-1.08 1.15-1.08.6 0 1.14.54 1.14 1.08z" fill="#fff"/><path d="M1310.97-672.76h48.72v70.92h-48.73v-70.92z" fill="gray"/><use xlink:href="#y" transform="matrix(1,0,0,1,1275.3333333333335,-591.2166666666667) translate(30.4320987654321 18.111111111111114)"/><use xlink:href="#z" transform="matrix(1,0,0,1,1275.3333333333335,-591.2166666666667) translate(27.901234567901234 44.777777777777786)"/><path d="M1116.37-483.23h97.44c1.33 0 1.33 0 1.33 1.33v66.78c0 1.33 0 1.33-1.32 1.33h-97.43c-1.32 0-1.32 0-1.32-1.32v-66.78c0-1.33 0-1.33 1.32-1.33z" fill="#999"/><path d="M1107.5-483.16h5.4v69.3h-5.4v-69.3z" fill="#29aae1"/><path d="M1109.65-448.58c0 19.1-.96 34.5-2.16 34.5-1.2 0-2.17-15.4-2.17-34.5s.96-34.5 2.16-34.5c1.2 0 2.15 15.4 2.15 34.5zM1216.45-483.65h6.36v69.5h-6.35v-69.5z" fill="#29aae1"/><path d="M1225.33-448.93c0 19.25-1.08 34.8-2.52 34.8-1.43 0-2.63-15.55-2.63-34.8 0-19.18 1.2-34.8 2.64-34.8 1.45 0 2.53 15.62 2.53 34.8z" fill="#29aae1"/><path d="M1221.85-477.42c0 .63-.6 1.2-1.44 1.2-.7 0-1.43-.57-1.43-1.2s.72-1.2 1.44-1.2c.85 0 1.45.57 1.45 1.2zM1221.85-473.3c0 .64-.6 1.2-1.44 1.2-.7 0-1.43-.56-1.43-1.2 0-.62.72-1.18 1.44-1.18.85 0 1.45.56 1.45 1.2zM1222.2-469.16c0 .7-.7 1.2-1.43 1.2-.84 0-1.44-.5-1.44-1.2 0-.63.6-1.2 1.44-1.2.72 0 1.44.57 1.44 1.2z" fill="#fff"/><path d="M1127.65-476.86h36v15.4h-36v-15.4z" fill="#29aae1"/><path d="M1167.97-476.86h36v15.4h-36v-15.4z" fill="#fff"/><path d="M1168.1-457.68h36v15.4h-36v-15.4z" fill="#29aae1"/><path d="M1167.97-437.94h36v15.4h-36v-15.4zM1127.4-437.94h36v15.4h-36v-15.4zM1129.1-457.54h12.83c1.44 0 1.44 0 1.44 1.4v12.53c0 1.4 0 1.4-1.44 1.4h-12.84c-1.33 0-1.33 0-1.33-1.4v-12.54c0-1.4 0-1.4 1.32-1.4zM1149.13-457.75h12.72c1.44 0 1.44 0 1.44 1.4v12.8c0 1.34 0 1.34-1.45 1.34h-12.72c-1.44 0-1.44 0-1.44-1.34v-12.8c0-1.4 0-1.4 1.43-1.4z" fill="#fff"/><path d="M1159.93-422.75l55.92-25.06c3.72-1.62 3.72-1.62 4.92 1.25 1.2 2.87 1.2 2.87-2.52 4.55l-55.8 25.06c-3.72 1.6-3.72 1.6-4.92-1.26-1.2-2.87-1.2-2.87 2.4-4.55z" fill="#fff"/><path d="M1159.7-421.9l56.15-25.42c2.76-1.26 2.76-1.26 4.32.9 1.44 2.18 1.44 2.18-1.44 3.44l-56.04 25.34c-2.9 1.33-2.9 1.33-4.33-.84-1.44-2.17-1.44-2.17 1.32-3.43z" fill="#29aae1"/><path d="M1213.2-446.06l-3.35 1.6c1.92-.9 1.92-.9 2.88 1.13l.36.9c.95 1.97.95 1.97-.97 2.95l3.36-1.68c-1.93.9-1.93.9-2.9-1.05l-.35-.92c-.96-2.03-.96-2.03.96-2.94z" fill="#fff"/><path d="M1214.65-447.04l-3.48 1.68c2.04-.9 2.04-.9 2.88 1.05l.48.9c.96 2.03.96 2.03-1.08 2.94l3.48-1.6c-1.92.9-1.92.9-2.88-1.13l-.48-.9c-.84-1.96-.84-1.96 1.08-2.94zM1135.93-417.7h22.92c.12 0 .12 0 .12.13v.5c0 .13 0 .13-.12.13h-22.92c-.12 0-.12 0-.12-.14v-.5c0-.13 0-.13.13-.13z" fill="#fff"/><path d="M1120.1-420.5l15.7 2.8c.13 0 .13 0 .13.13l-.12.56c0 .06 0 .06-.1.06l-15.73-2.8c-.12 0-.12 0-.12-.14l.12-.56c0-.07 0-.07.12-.07z" fill="#fff"/><use xlink:href="#A" transform="matrix(1,0,0,1,1075.3333333333335,-413.7166666666667) translate(23.456790123456784 19.444444444444443)"/><use xlink:href="#s" transform="matrix(1,0,0,1,1075.3333333333335,-413.7166666666667) translate(88.76543209876543 19.444444444444443)"/><path d="M315.33 516.28h200v145h-200z" fill="none"/><path d="M315.33 516.28h46.8v17.84h-46.8v-17.84zM366.13 516.28h46.6v17.84h-46.6v-17.84zM417.53 516.28h46.6v17.84h-46.6v-17.84zM468.33 516.28h46.8v17.84h-46.8v-17.84zM315.73 537.3h22.8v18.57h-22.8V537.3zM343.33 537.3h46.8v17.84h-46.8V537.3zM395.53 537.3h46.6v17.84h-46.6V537.3zM447.93 537.3h46.8v17.84h-46.8V537.3zM498.53 537.3h16.2v18.57h-16.2V537.3zM315.33 559.5h46.8v17.68h-46.8v-17.7zM366.13 559.5h46.8v17.68h-46.8v-17.7zM417.53 559.5h46.8v17.68h-46.8v-17.7zM468.53 559.5h46.8v17.68h-46.8v-17.7zM315.73 580.8h22.8v18.57h-22.8V580.8zM343.33 580.8h46.8v17.84h-46.8V580.8zM395.53 580.8h46.8v17.84h-46.8V580.8zM448.13 580.8h46.6v17.84h-46.6V580.8zM498.73 580.8h16.2v18.57h-16.2V580.8zM315.33 602.27h46.8v17.83h-46.8v-17.83zM366.13 602.27h46.8v17.83h-46.8v-17.83zM417.53 602.27h46.8v17.83h-46.8v-17.83zM468.53 602.27h46.8v17.83h-46.8v-17.83zM315.73 622.13h22.8v18.56h-22.8v-18.57zM343.33 622.13h46.8v17.84h-46.8v-17.84zM395.53 622.13h46.8v17.84h-46.8v-17.84zM448.13 622.13h46.6v17.84h-46.6v-17.84zM498.73 622.13h16.2v18.56h-16.2v-18.57zM315.33 643.6h46.8v17.83h-46.8V643.6zM366.13 643.6h46.8v17.83h-46.8V643.6zM417.53 643.6h46.8v17.83h-46.8V643.6zM468.53 643.6h46.8v17.83h-46.8V643.6z" fill="#29aae1"/><use xlink:href="#B" transform="matrix(1,0,0,1,285.3333333333335,661.2833333333333) translate(24.074074074074076 19.444444444444443)"/><use xlink:href="#f" transform="matrix(1,0,0,1,285.3333333333335,661.2833333333333) translate(159.7530864197531 19.444444444444443)"/><path d="M595.33 553.78h150v65.45h-150v-65.45z" fill="#29aae1"/><path d="M612.43 622.45h119.25c.6 0 .6 0 .6.63s0 .63-.6.63H612.43c-.6 0-.6 0-.6-.62 0-.63 0-.63.6-.63z" fill="#2188b4"/><path d="M640.63 560.85c29.4 0 29.4 0 29.4 7.14v36.88c0 7.07 0 7.07-29.4 7.07-29.55 0-29.55 0-29.55-7.07v-36.9c0-7.13 0-7.13 29.55-7.13zM685.48 566.8h43.35v39.97h-43.35V566.8z" fill="#fff"/><path d="M724.78 571.9c0 1.27-1.05 2.32-2.25 2.32-1.35 0-2.4-1.05-2.4-2.3 0-1.27 1.05-2.32 2.4-2.32 1.2 0 2.25 1.05 2.25 2.3z" fill="#54bbe7"/><use xlink:href="#t" transform="matrix(1,0,0,1,565.3333333333335,623.7833333333333) translate(6.450617283950606 18.111111111111114)"/><use xlink:href="#C" transform="matrix(1,0,0,1,565.3333333333335,623.7833333333333) translate(93.91975308641973 18.111111111111114)"/><use xlink:href="#D" transform="matrix(1,0,0,1,565.3333333333335,623.7833333333333) translate(34.90740740740742 44.777777777777786)"/><use xlink:href="#E" transform="matrix(1,0,0,1,565.3333333333335,623.7833333333333) translate(108.48765432098764 44.777777777777786)"/><path d="M-223.17-636.22h62.12" stroke="#3a414a" fill="none"/><path d="M-223.15-635.74h-.52v-.95h.52z" stroke="#3a414a" stroke-width=".05" fill="#3a414a"/><path d="M-146.28-636.22l-14.27 4.64v-9.27z" stroke="#3a414a" fill="#3a414a"/><path d="M5.83-636.22H83.3" stroke="#3a414a" fill="none"/><path d="M5.85-635.74h-.52v-.95h.52z" stroke="#3a414a" stroke-width=".05" fill="#3a414a"/><path d="M98.06-636.22l-14.27 4.64v-9.27z" stroke="#3a414a" fill="#3a414a"/><path d="M221.5-636.22h77.85" stroke="#3a414a" fill="none"/><path d="M221.53-635.74h-.6l.18-.95h.43z" stroke="#3a414a" stroke-width=".05" fill="#3a414a"/><path d="M314.1-636.22l-14.25 4.64v-9.27z" stroke="#3a414a" fill="#3a414a"/><path d="M415.33-584.53v954.8a6 6 0 0 0 6 6h170.12" stroke="#3a414a" fill="none"/><path d="M415.8-585.03h-.94v-3h.95z" stroke="#3a414a" stroke-width=".05" fill="#3a414a"/><path d="M606.2 376.28l-14.25 4.64v-9.27z" stroke="#3a414a" fill="#3a414a"/><path d="M515.43-636.22h76.02" stroke="#3a414a" fill="none"/><path d="M515.45-635.74h-.52v-.95h.52z" stroke="#3a414a" stroke-width=".05" fill="#3a414a"/><path d="M606.2-636.22l-14.25 4.64v-9.27z" stroke="#3a414a" fill="#3a414a"/><path d="M733.2 387.53H766a6 6 0 0 1 6 6v401.75a6 6 0 0 0 6 6h95.95" stroke="#3a414a" fill="none"/><path d="M733.22 388h-.5v-.94h.5z" stroke="#3a414a" stroke-width=".05" fill="#3a414a"/><path d="M888.7 801.28l-14.25 4.64v-9.27z" stroke="#3a414a" fill="#3a414a"/><path d="M733.2 365.03h140.75" stroke="#3a414a" fill="none"/><path d="M733.22 365.5h-.5v-.94h.5z" stroke="#3a414a" stroke-width=".05" fill="#3a414a"/><path d="M888.7 365.03l-14.25 4.64v-9.27z" stroke="#3a414a" fill="#3a414a"/><path d="M670.33 353.28v-71a6 6 0 0 1 6-6h383a6 6 0 0 1 6 6v718a6 6 0 0 1-6 6h-77.77" stroke="#3a414a" fill="none"/><path d="M670.8 353.78h-.94v-.5h.95z" stroke="#3a414a" stroke-width=".05" fill="#3a414a"/><path d="M966.8 1006.28l14.26-4.63v9.27z" stroke="#3a414a" fill="#3a414a"/><path d="M733.2 376.28h59.47a6 6 0 0 1 6 6v200.5a6 6 0 0 0 6 6h64.28" stroke="#3a414a" fill="none"/><path d="M733.22 376.76h-.5v-.95h.5z" stroke="#3a414a" stroke-width=".05" fill="#3a414a"/><path d="M883.7 588.78l-14.25 4.64v-9.27z" stroke="#3a414a" fill="#3a414a"/><path d="M691.17-613.26v233.54a6 6 0 0 0 6 6h222.16a6 6 0 0 1 6 6v43.46" stroke="#3a414a" fill="none"/><path d="M691.64-613.25h-.95v-.5h.94zm0-3.44h-.95v-.06h.94z" stroke="#3a414a" stroke-width=".05" fill="#3a414a"/><path d="M925.33-309.5l-4.63-14.26h9.27z" stroke="#3a414a" fill="#3a414a"/><path d="M670.33-659.22v-83.5a6 6 0 0 1 6-6h383a6 6 0 0 1 6 6v713a6 6 0 0 1-6 6h-50.26" stroke="#3a414a" fill="none"/><path d="M670.8-658.72h-.94v-.5h.95z" stroke="#3a414a" stroke-width=".05" fill="#3a414a"/><path d="M994.3-23.72l14.27-4.63v9.27z" stroke="#3a414a" fill="#3a414a"/><path d="M649.5-613.26v783.54a6 6 0 0 0 6 6h178.96" stroke="#3a414a" fill="none"/><path d="M649.98-613.25H649v-.5h.96zm0-3.44H649v-.06h.96z" stroke="#3a414a" stroke-width=".05" fill="#3a414a"/><path d="M849.22 176.28l-14.26 4.64v-9.27z" stroke="#3a414a" fill="#3a414a"/><path d="M733.2-636.22h165.1" stroke="#3a414a" fill="none"/><path d="M733.22-635.74h-.5v-.95h.5z" stroke="#3a414a" stroke-width=".05" fill="#3a414a"/><path d="M913.05-636.22l-14.26 4.64v-9.27z" stroke="#3a414a" fill="#3a414a"/><path d="M937.44-636.22h122.9c0-2.76 2.23-5 5-5 2.76 0 5 2.24 5 5h218.6" stroke="#3a414a" fill="none"/><path d="M937.45-635.74h-.38l-.26-.95h.65z" stroke="#3a414a" stroke-width=".05" fill="#3a414a"/><path d="M1303.72-636.22l-14.27 4.64v-9.27z" stroke="#3a414a" fill="#3a414a"/><path d="M925.33-575.84v121.12a6 6 0 0 0 6 6h129c0-2.76 2.24-5 5-5 2.77 0 5 2.24 5 5h18.63" stroke="#3a414a" fill="none"/><path d="M925.8-575.82h-.94v-.52h.95z" stroke="#3a414a" stroke-width=".05" fill="#3a414a"/><path d="M1103.72-448.72l-14.27 4.64v-9.27z" stroke="#3a414a" fill="#3a414a"/><path d="M160.8 470.26l.08.9.2.83.33.8.47.73.56.66.66.55.73.45.8.34.84.2.88.07h243l1 .1.98.22.94.4.87.52.77.66.67.78.53.86.4.94.23 1 .08 1v38.64h-.94V482.3l-.07-.88-.2-.84-.35-.8-.45-.74-.56-.66-.66-.56-.74-.46-.8-.33-.84-.2-.88-.07h-243l-1-.08-1-.24-.93-.4-.87-.52-.78-.66-.66-.77-.54-.88-.4-.94-.22-.98-.08-1V118.65h.95zm0-372.94h-.94v-673.16h.95z" stroke="#3a414a" stroke-width=".05" fill="#3a414a"/><path d="M160.8-575.82h-.94v-.52h.95z" fill="#3a414a"/><path stroke="#3a414a" stroke-width=".05" fill="#3a414a"/><path d="M415.33 535.7l-4.63-14.28h9.27z" fill="#3a414a"/><path d="M415.33 537.23l-5.3-16.28h10.6zm-3.98-15.33l3.98 12.25 4-12.25z" stroke="#3a414a" stroke-width=".05" fill="#3a414a"/><g><use xlink:href="#F" transform="matrix(1,0,0,1,66.70370370370384,97.31916666666662) translate(0 14.222222222222223)"/><use xlink:href="#G" transform="matrix(1,0,0,1,66.70370370370384,97.31916666666662) translate(113.33333333333334 14.222222222222223)"/></g><path d="M515.43 588.78h63.52" stroke="#3a414a" fill="none"/><path d="M515.45 589.26h-.52v-.95h.52z" stroke="#3a414a" stroke-width=".05" fill="#3a414a"/><path d="M593.7 588.78l-14.25 4.64v-9.27z" stroke="#3a414a" fill="#3a414a"/><defs><path d="M266 0h-40l-56-210L115 0H75L2-248h35L96-30l15-64 43-154h32l59 218 59-218h35" id="H"/><path d="M205 0l-28-72H64L36 0H1l101-248h38L239 0h-34zm-38-99l-47-123c-12 45-31 82-46 123h93" id="I"/><path d="M190 0L58-211 59 0H30v-248h39L202-35l-2-213h31V0h-41" id="J"/><g id="a"><use transform="matrix(0.06172839506172839,0,0,0.06172839506172839,0,0)" xlink:href="#H"/><use transform="matrix(0.06172839506172839,0,0,0.06172839506172839,20.123456790123456,0)" xlink:href="#I"/><use transform="matrix(0.06172839506172839,0,0,0.06172839506172839,34.938271604938265,0)" xlink:href="#J"/></g><path d="M212-179c-10-28-35-45-73-45-59 0-87 40-87 99 0 60 29 101 89 101 43 0 62-24 78-52l27 14C228-24 195 4 139 4 59 4 22-46 18-125c-6-104 99-153 187-111 19 9 31 26 39 46" id="K"/><path d="M100-194c62-1 85 37 85 99 1 63-27 99-86 99S16-35 15-95c0-66 28-99 85-99zM99-20c44 1 53-31 53-75 0-43-8-75-51-75s-53 32-53 75 10 74 51 75" id="L"/><path d="M117-194c89-4 53 116 60 194h-32v-121c0-31-8-49-39-48C34-167 62-67 57 0H25l-1-190h30c1 10-1 24 2 32 11-22 29-35 61-36" id="M"/><path d="M100-194c63 0 86 42 84 106H49c0 40 14 67 53 68 26 1 43-12 49-29l28 8c-11 28-37 45-77 45C44 4 14-33 15-96c1-61 26-98 85-98zm52 81c6-60-76-77-97-28-3 7-6 17-6 28h103" id="N"/><path d="M96-169c-40 0-48 33-48 73s9 75 48 75c24 0 41-14 43-38l32 2c-6 37-31 61-74 61-59 0-76-41-82-99-10-93 101-131 147-64 4 7 5 14 7 22l-32 3c-4-21-16-35-41-35" id="O"/><path d="M59-47c-2 24 18 29 38 22v24C64 9 27 4 27-40v-127H5v-23h24l9-43h21v43h35v23H59v120" id="P"/><path d="M24-231v-30h32v30H24zM24 0v-190h32V0H24" id="Q"/><g id="b"><use transform="matrix(0.06172839506172839,0,0,0.06172839506172839,0,0)" xlink:href="#K"/><use transform="matrix(0.06172839506172839,0,0,0.06172839506172839,15.987654320987653,0)" xlink:href="#L"/><use transform="matrix(0.06172839506172839,0,0,0.06172839506172839,28.333333333333332,0)" xlink:href="#M"/><use transform="matrix(0.06172839506172839,0,0,0.06172839506172839,40.67901234567901,0)" xlink:href="#M"/><use transform="matrix(0.06172839506172839,0,0,0.06172839506172839,53.02469135802469,0)" xlink:href="#N"/><use transform="matrix(0.06172839506172839,0,0,0.06172839506172839,65.37037037037037,0)" xlink:href="#O"/><use transform="matrix(0.06172839506172839,0,0,0.06172839506172839,76.48148148148148,0)" xlink:href="#P"/><use transform="matrix(0.06172839506172839,0,0,0.06172839506172839,82.65432098765432,0)" xlink:href="#Q"/><use transform="matrix(0.06172839506172839,0,0,0.06172839506172839,87.53086419753086,0)" xlink:href="#L"/><use transform="matrix(0.06172839506172839,0,0,0.06172839506172839,99.87654320987654,0)" xlink:href="#M"/></g><path d="M240 0l2-218c-23 76-54 145-80 218h-23L58-218 59 0H30v-248h44l77 211c21-75 51-140 76-211h43V0h-30" id="R"/><path d="M85-194c31 0 48 13 60 33l-1-100h32l1 261h-30c-2-10 0-23-3-31C134-8 116 4 85 4 32 4 16-35 15-94c0-66 23-100 70-100zm9 24c-40 0-46 34-46 75 0 40 6 74 45 74 42 0 51-32 51-76 0-42-9-74-50-73" id="S"/><path d="M210-169c-67 3-38 105-44 169h-31v-121c0-29-5-50-35-48C34-165 62-65 56 0H25l-1-190h30c1 10-1 24 2 32 10-44 99-50 107 0 11-21 27-35 58-36 85-2 47 119 55 194h-31v-121c0-29-5-49-35-48" id="T"/><g id="c"><use transform="matrix(0.06172839506172839,0,0,0.06172839506172839,0,0)" xlink:href="#R"/><use transform="matrix(0.06172839506172839,0,0,0.06172839506172839,18.456790123456788,0)" xlink:href="#L"/><use transform="matrix(0.06172839506172839,0,0,0.06172839506172839,30.80246913580247,0)" xlink:href="#S"/><use transform="matrix(0.06172839506172839,0,0,0.06172839506172839,43.148148148148145,0)" xlink:href="#N"/><use transform="matrix(0.06172839506172839,0,0,0.06172839506172839,55.49382716049382,0)" xlink:href="#T"/></g><path d="M233-177c-1 41-23 64-60 70L243 0h-38l-65-103H63V0H30v-248c88 3 205-21 203 71zM63-129c60-2 137 13 137-47 0-61-80-42-137-45v92" id="U"/><path d="M84 4C-5 8 30-112 23-190h32v120c0 31 7 50 39 49 72-2 45-101 50-169h31l1 190h-30c-1-10 1-25-2-33-11 22-28 36-60 37" id="V"/><path d="M114-163C36-179 61-72 57 0H25l-1-190h30c1 12-1 29 2 39 6-27 23-49 58-41v29" id="W"/><g id="d"><use transform="matrix(0.06172839506172839,0,0,0.06172839506172839,0,0)" xlink:href="#U"/><use transform="matrix(0.06172839506172839,0,0,0.06172839506172839,15.987654320987653,0)" xlink:href="#L"/><use transform="matrix(0.06172839506172839,0,0,0.06172839506172839,28.333333333333332,0)" xlink:href="#V"/><use transform="matrix(0.06172839506172839,0,0,0.06172839506172839,40.67901234567901,0)" xlink:href="#P"/><use transform="matrix(0.06172839506172839,0,0,0.06172839506172839,46.851851851851855,0)" xlink:href="#N"/><use transform="matrix(0.06172839506172839,0,0,0.06172839506172839,59.19753086419753,0)" xlink:href="#W"/></g><path d="M115-194c55 1 70 41 70 98S169 2 115 4C84 4 66-9 55-30l1 105H24l-1-265h31l2 30c10-21 28-34 59-34zm-8 174c40 0 45-34 45-75s-6-73-45-74c-42 0-51 32-51 76 0 43 10 73 51 73" id="X"/><path d="M101-234c-31-9-42 10-38 44h38v23H63V0H32v-167H5v-23h27c-7-52 17-82 69-68v24" id="Y"/><path d="M185-189c-5-48-123-54-124 2 14 75 158 14 163 119 3 78-121 87-175 55-17-10-28-26-33-46l33-7c5 56 141 63 141-1 0-78-155-14-162-118-5-82 145-84 179-34 5 7 8 16 11 25" id="Z"/><path d="M135-143c-3-34-86-38-87 0 15 53 115 12 119 90S17 21 10-45l28-5c4 36 97 45 98 0-10-56-113-15-118-90-4-57 82-63 122-42 12 7 21 19 24 35" id="aa"/><g id="e"><use transform="matrix(0.06172839506172839,0,0,0.06172839506172839,0,0)" xlink:href="#X"/><use transform="matrix(0.06172839506172839,0,0,0.06172839506172839,12.345679012345679,0)" xlink:href="#Y"/><use transform="matrix(0.06172839506172839,0,0,0.06172839506172839,18.51851851851852,0)" xlink:href="#Z"/><use transform="matrix(0.06172839506172839,0,0,0.06172839506172839,33.33333333333333,0)" xlink:href="#N"/><use transform="matrix(0.06172839506172839,0,0,0.06172839506172839,45.679012345679006,0)" xlink:href="#M"/><use transform="matrix(0.06172839506172839,0,0,0.06172839506172839,58.02469135802468,0)" xlink:href="#aa"/><use transform="matrix(0.06172839506172839,0,0,0.06172839506172839,69.1358024691358,0)" xlink:href="#N"/></g><path d="M63-220v92h138v28H63V0H30v-248h175v28H63" id="ab"/><path d="M206 0h-36l-40-164L89 0H53L-1-190h32L70-26l43-164h34l41 164 42-164h31" id="ac"/><path d="M141-36C126-15 110 5 73 4 37 3 15-17 15-53c-1-64 63-63 125-63 3-35-9-54-41-54-24 1-41 7-42 31l-33-3c5-37 33-52 76-52 45 0 72 20 72 64v82c-1 20 7 32 28 27v20c-31 9-61-2-59-35zM48-53c0 20 12 33 32 33 41-3 63-29 60-74-43 2-92-5-92 41" id="ad"/><path d="M24 0v-261h32V0H24" id="ae"/><g id="f"><use transform="matrix(0.06172839506172839,0,0,0.06172839506172839,0,0)" xlink:href="#ab"/><use transform="matrix(0.06172839506172839,0,0,0.06172839506172839,13.518518518518517,0)" xlink:href="#Q"/><use transform="matrix(0.06172839506172839,0,0,0.06172839506172839,18.39506172839506,0)" xlink:href="#W"/><use transform="matrix(0.06172839506172839,0,0,0.06172839506172839,25.74074074074074,0)" xlink:href="#N"/><use transform="matrix(0.06172839506172839,0,0,0.06172839506172839,38.08641975308642,0)" xlink:href="#ac"/><use transform="matrix(0.06172839506172839,0,0,0.06172839506172839,54.07407407407407,0)" xlink:href="#ad"/><use transform="matrix(0.06172839506172839,0,0,0.06172839506172839,66.41975308641975,0)" xlink:href="#ae"/><use transform="matrix(0.06172839506172839,0,0,0.06172839506172839,71.29629629629629,0)" xlink:href="#ae"/></g><path d="M106-169C34-169 62-67 57 0H25v-261h32l-1 103c12-21 28-36 61-36 89 0 53 116 60 194h-32v-121c2-32-8-49-39-48" id="af"/><g id="g"><use transform="matrix(0.06172839506172839,0,0,0.06172839506172839,0,0)" xlink:href="#Z"/><use transform="matrix(0.06172839506172839,0,0,0.06172839506172839,14.814814814814813,0)" xlink:href="#ac"/><use transform="matrix(0.06172839506172839,0,0,0.06172839506172839,30.80246913580247,0)" xlink:href="#Q"/><use transform="matrix(0.06172839506172839,0,0,0.06172839506172839,35.67901234567901,0)" xlink:href="#P"/><use transform="matrix(0.06172839506172839,0,0,0.06172839506172839,41.851851851851855,0)" xlink:href="#O"/><use transform="matrix(0.06172839506172839,0,0,0.06172839506172839,52.96296296296296,0)" xlink:href="#af"/></g><path d="M115-194c53 0 69 39 70 98 0 66-23 100-70 100C84 3 66-7 56-30L54 0H23l1-261h32v101c10-23 28-34 59-34zm-8 174c40 0 45-34 45-75 0-40-5-75-45-74-42 0-51 32-51 76 0 43 10 73 51 73" id="ag"/><g id="h"><use transform="matrix(0.06172839506172839,0,0,0.06172839506172839,0,0)" xlink:href="#H"/><use transform="matrix(0.06172839506172839,0,0,0.06172839506172839,20.493827160493826,0)" xlink:href="#N"/><use transform="matrix(0.06172839506172839,0,0,0.06172839506172839,32.839506172839506,0)" xlink:href="#ag"/></g><path d="M108 0H70L1-190h34L89-25l56-165h34" id="ah"/><g id="i"><use transform="matrix(0.06172839506172839,0,0,0.06172839506172839,0,0)" xlink:href="#Z"/><use transform="matrix(0.06172839506172839,0,0,0.06172839506172839,14.814814814814813,0)" xlink:href="#N"/><use transform="matrix(0.06172839506172839,0,0,0.06172839506172839,27.160493827160494,0)" xlink:href="#W"/><use transform="matrix(0.06172839506172839,0,0,0.06172839506172839,34.50617283950617,0)" xlink:href="#ah"/><use transform="matrix(0.06172839506172839,0,0,0.06172839506172839,45.61728395061728,0)" xlink:href="#N"/><use transform="matrix(0.06172839506172839,0,0,0.06172839506172839,57.962962962962955,0)" xlink:href="#W"/></g><path d="M30-248c118-7 216 8 213 122C240-48 200 0 122 0H30v-248zM63-27c89 8 146-16 146-99s-60-101-146-95v194" id="ai"/><g id="j"><use transform="matrix(0.06172839506172839,0,0,0.06172839506172839,0,0)" xlink:href="#ai"/><use transform="matrix(0.06172839506172839,0,0,0.06172839506172839,15.987654320987653,0)" xlink:href="#ad"/><use transform="matrix(0.06172839506172839,0,0,0.06172839506172839,28.333333333333332,0)" xlink:href="#P"/><use transform="matrix(0.06172839506172839,0,0,0.06172839506172839,34.50617283950617,0)" xlink:href="#ad"/><use transform="matrix(0.06172839506172839,0,0,0.06172839506172839,46.85185185185185,0)" xlink:href="#ag"/><use transform="matrix(0.06172839506172839,0,0,0.06172839506172839,59.197530864197525,0)" xlink:href="#ad"/><use transform="matrix(0.06172839506172839,0,0,0.06172839506172839,71.5432098765432,0)" xlink:href="#aa"/><use transform="matrix(0.06172839506172839,0,0,0.06172839506172839,82.65432098765432,0)" xlink:href="#N"/></g><path d="M137 0h-34L2-248h35l83 218 83-218h36" id="aj"/><g id="k"><use transform="matrix(0.06172839506172839,0,0,0.06172839506172839,0,0)" xlink:href="#aj"/><use transform="matrix(0.06172839506172839,0,0,0.06172839506172839,14.382716049382715,0)" xlink:href="#Q"/><use transform="matrix(0.06172839506172839,0,0,0.06172839506172839,19.25925925925926,0)" xlink:href="#W"/><use transform="matrix(0.06172839506172839,0,0,0.06172839506172839,26.604938271604937,0)" xlink:href="#P"/><use transform="matrix(0.06172839506172839,0,0,0.06172839506172839,32.77777777777778,0)" xlink:href="#V"/><use transform="matrix(0.06172839506172839,0,0,0.06172839506172839,45.123456790123456,0)" xlink:href="#ad"/><use transform="matrix(0.06172839506172839,0,0,0.06172839506172839,57.46913580246913,0)" xlink:href="#ae"/></g><path d="M33-154v-36h34v36H33zM33 0v-36h34V0H33" id="ak"/><g id="l"><use transform="matrix(0.06172839506172839,0,0,0.06172839506172839,0,0)" xlink:href="#Z"/><use transform="matrix(0.06172839506172839,0,0,0.06172839506172839,14.814814814814813,0)" xlink:href="#N"/><use transform="matrix(0.06172839506172839,0,0,0.06172839506172839,27.160493827160494,0)" xlink:href="#W"/><use transform="matrix(0.06172839506172839,0,0,0.06172839506172839,34.50617283950617,0)" xlink:href="#ah"/><use transform="matrix(0.06172839506172839,0,0,0.06172839506172839,45.61728395061728,0)" xlink:href="#N"/><use transform="matrix(0.06172839506172839,0,0,0.06172839506172839,57.962962962962955,0)" xlink:href="#W"/><use transform="matrix(0.06172839506172839,0,0,0.06172839506172839,65.30864197530863,0)" xlink:href="#ak"/></g><g id="m"><use transform="matrix(0.06172839506172839,0,0,0.06172839506172839,0,0)" xlink:href="#ai"/><use transform="matrix(0.06172839506172839,0,0,0.06172839506172839,15.987654320987653,0)" xlink:href="#N"/><use transform="matrix(0.06172839506172839,0,0,0.06172839506172839,28.333333333333332,0)" xlink:href="#ah"/></g><path d="M30 0v-248h187v28H63v79h144v27H63v87h162V0H30" id="al"/><g id="n"><use transform="matrix(0.06172839506172839,0,0,0.06172839506172839,0,0)" xlink:href="#al"/><use transform="matrix(0.06172839506172839,0,0,0.06172839506172839,14.814814814814813,0)" xlink:href="#M"/><use transform="matrix(0.06172839506172839,0,0,0.06172839506172839,27.160493827160494,0)" xlink:href="#ah"/><use transform="matrix(0.06172839506172839,0,0,0.06172839506172839,38.27160493827161,0)" xlink:href="#Q"/><use transform="matrix(0.06172839506172839,0,0,0.06172839506172839,43.14814814814815,0)" xlink:href="#W"/><use transform="matrix(0.06172839506172839,0,0,0.06172839506172839,50.49382716049383,0)" xlink:href="#L"/><use transform="matrix(0.06172839506172839,0,0,0.06172839506172839,62.839506172839506,0)" xlink:href="#M"/><use transform="matrix(0.06172839506172839,0,0,0.06172839506172839,75.18518518518519,0)" xlink:href="#T"/><use transform="matrix(0.06172839506172839,0,0,0.06172839506172839,93.64197530864197,0)" xlink:href="#N"/><use transform="matrix(0.06172839506172839,0,0,0.06172839506172839,105.98765432098766,0)" xlink:href="#M"/><use transform="matrix(0.06172839506172839,0,0,0.06172839506172839,118.33333333333334,0)" xlink:href="#P"/></g><path d="M127-220V0H93v-220H8v-28h204v28h-85" id="am"/><g id="o"><use transform="matrix(0.06172839506172839,0,0,0.06172839506172839,0,0)" xlink:href="#am"/><use transform="matrix(0.06172839506172839,0,0,0.06172839506172839,11.049382716049381,0)" xlink:href="#N"/><use transform="matrix(0.06172839506172839,0,0,0.06172839506172839,23.39506172839506,0)" xlink:href="#aa"/><use transform="matrix(0.06172839506172839,0,0,0.06172839506172839,34.50617283950617,0)" xlink:href="#P"/></g><path d="M143 0L79-87 56-68V0H24v-261h32v163l83-92h37l-77 82L181 0h-38" id="an"/><g id="p"><use transform="matrix(0.06172839506172839,0,0,0.06172839506172839,0,0)" xlink:href="#ai"/><use transform="matrix(0.06172839506172839,0,0,0.06172839506172839,15.987654320987653,0)" xlink:href="#N"/><use transform="matrix(0.06172839506172839,0,0,0.06172839506172839,28.333333333333332,0)" xlink:href="#aa"/><use transform="matrix(0.06172839506172839,0,0,0.06172839506172839,39.44444444444444,0)" xlink:href="#an"/><use transform="matrix(0.06172839506172839,0,0,0.06172839506172839,50.55555555555556,0)" xlink:href="#P"/><use transform="matrix(0.06172839506172839,0,0,0.06172839506172839,56.7283950617284,0)" xlink:href="#L"/><use transform="matrix(0.06172839506172839,0,0,0.06172839506172839,69.07407407407408,0)" xlink:href="#X"/></g><path d="M30-248c87 1 191-15 191 75 0 78-77 80-158 76V0H30v-248zm33 125c57 0 124 11 124-50 0-59-68-47-124-48v98" id="ao"/><g id="q"><use transform="matrix(0.06172839506172839,0,0,0.06172839506172839,0,0)" xlink:href="#ao"/><use transform="matrix(0.06172839506172839,0,0,0.06172839506172839,14.814814814814813,0)" xlink:href="#K"/></g><path d="M30 0v-248h33v221h125V0H30" id="ap"/><g id="r"><use transform="matrix(0.06172839506172839,0,0,0.06172839506172839,0,0)" xlink:href="#ap"/><use transform="matrix(0.06172839506172839,0,0,0.06172839506172839,12.345679012345679,0)" xlink:href="#ad"/><use transform="matrix(0.06172839506172839,0,0,0.06172839506172839,24.691358024691358,0)" xlink:href="#X"/><use transform="matrix(0.06172839506172839,0,0,0.06172839506172839,37.03703703703704,0)" xlink:href="#P"/><use transform="matrix(0.06172839506172839,0,0,0.06172839506172839,43.20987654320988,0)" xlink:href="#L"/><use transform="matrix(0.06172839506172839,0,0,0.06172839506172839,55.55555555555556,0)" xlink:href="#X"/></g><g id="s"><use transform="matrix(0.06172839506172839,0,0,0.06172839506172839,0,0)" xlink:href="#ai"/><use transform="matrix(0.06172839506172839,0,0,0.06172839506172839,15.987654320987653,0)" xlink:href="#N"/><use transform="matrix(0.06172839506172839,0,0,0.06172839506172839,28.333333333333332,0)" xlink:href="#ah"/><use transform="matrix(0.06172839506172839,0,0,0.06172839506172839,39.44444444444444,0)" xlink:href="#Q"/><use transform="matrix(0.06172839506172839,0,0,0.06172839506172839,44.32098765432099,0)" xlink:href="#O"/><use transform="matrix(0.06172839506172839,0,0,0.06172839506172839,55.4320987654321,0)" xlink:href="#N"/></g><g id="t"><use transform="matrix(0.06172839506172839,0,0,0.06172839506172839,0,0)" xlink:href="#J"/><use transform="matrix(0.06172839506172839,0,0,0.06172839506172839,15.987654320987653,0)" xlink:href="#N"/><use transform="matrix(0.06172839506172839,0,0,0.06172839506172839,28.333333333333332,0)" xlink:href="#P"/><use transform="matrix(0.06172839506172839,0,0,0.06172839506172839,34.50617283950617,0)" xlink:href="#ac"/><use transform="matrix(0.06172839506172839,0,0,0.06172839506172839,50.49382716049382,0)" xlink:href="#L"/><use transform="matrix(0.06172839506172839,0,0,0.06172839506172839,62.8395061728395,0)" xlink:href="#W"/><use transform="matrix(0.06172839506172839,0,0,0.06172839506172839,70.18518518518518,0)" xlink:href="#an"/></g><g id="u"><use transform="matrix(0.06172839506172839,0,0,0.06172839506172839,0,0)" xlink:href="#ao"/><use transform="matrix(0.06172839506172839,0,0,0.06172839506172839,14.814814814814813,0)" xlink:href="#W"/><use transform="matrix(0.06172839506172839,0,0,0.06172839506172839,22.160493827160494,0)" xlink:href="#Q"/><use transform="matrix(0.06172839506172839,0,0,0.06172839506172839,27.037037037037038,0)" xlink:href="#M"/><use transform="matrix(0.06172839506172839,0,0,0.06172839506172839,39.382716049382715,0)" xlink:href="#P"/><use transform="matrix(0.06172839506172839,0,0,0.06172839506172839,45.55555555555556,0)" xlink:href="#N"/><use transform="matrix(0.06172839506172839,0,0,0.06172839506172839,57.901234567901234,0)" xlink:href="#W"/></g><g id="v"><use transform="matrix(0.06172839506172839,0,0,0.06172839506172839,0,0)" xlink:href="#H"/><use transform="matrix(0.06172839506172839,0,0,0.06172839506172839,20.925925925925924,0)" xlink:href="#Q"/><use transform="matrix(0.06172839506172839,0,0,0.06172839506172839,25.80246913580247,0)" xlink:href="#W"/><use transform="matrix(0.06172839506172839,0,0,0.06172839506172839,33.148148148148145,0)" xlink:href="#N"/><use transform="matrix(0.06172839506172839,0,0,0.06172839506172839,45.49382716049382,0)" xlink:href="#ae"/><use transform="matrix(0.06172839506172839,0,0,0.06172839506172839,50.37037037037037,0)" xlink:href="#N"/><use transform="matrix(0.06172839506172839,0,0,0.06172839506172839,62.716049382716044,0)" xlink:href="#aa"/><use transform="matrix(0.06172839506172839,0,0,0.06172839506172839,73.82716049382715,0)" xlink:href="#aa"/></g><g id="w"><use transform="matrix(0.06172839506172839,0,0,0.06172839506172839,0,0)" xlink:href="#I"/><use transform="matrix(0.06172839506172839,0,0,0.06172839506172839,14.814814814814813,0)" xlink:href="#O"/><use transform="matrix(0.06172839506172839,0,0,0.06172839506172839,25.925925925925924,0)" xlink:href="#O"/><use transform="matrix(0.06172839506172839,0,0,0.06172839506172839,37.03703703703704,0)" xlink:href="#N"/><use transform="matrix(0.06172839506172839,0,0,0.06172839506172839,49.382716049382715,0)" xlink:href="#aa"/><use transform="matrix(0.06172839506172839,0,0,0.06172839506172839,60.49382716049382,0)" xlink:href="#aa"/></g><g id="x"><use transform="matrix(0.06172839506172839,0,0,0.06172839506172839,0,0)" xlink:href="#ao"/><use transform="matrix(0.06172839506172839,0,0,0.06172839506172839,14.814814814814813,0)" xlink:href="#L"/><use transform="matrix(0.06172839506172839,0,0,0.06172839506172839,27.160493827160494,0)" xlink:href="#Q"/><use transform="matrix(0.06172839506172839,0,0,0.06172839506172839,32.03703703703704,0)" xlink:href="#M"/><use transform="matrix(0.06172839506172839,0,0,0.06172839506172839,44.382716049382715,0)" xlink:href="#P"/></g><g id="y"><use transform="matrix(0.06172839506172839,0,0,0.06172839506172839,0,0)" xlink:href="#Z"/><use transform="matrix(0.06172839506172839,0,0,0.06172839506172839,14.814814814814813,0)" xlink:href="#T"/><use transform="matrix(0.06172839506172839,0,0,0.06172839506172839,33.2716049382716,0)" xlink:href="#ad"/><use transform="matrix(0.06172839506172839,0,0,0.06172839506172839,45.61728395061728,0)" xlink:href="#W"/><use transform="matrix(0.06172839506172839,0,0,0.06172839506172839,52.962962962962955,0)" xlink:href="#P"/></g><g id="z"><use transform="matrix(0.06172839506172839,0,0,0.06172839506172839,0,0)" xlink:href="#ao"/><use transform="matrix(0.06172839506172839,0,0,0.06172839506172839,14.814814814814813,0)" xlink:href="#af"/><use transform="matrix(0.06172839506172839,0,0,0.06172839506172839,27.160493827160494,0)" xlink:href="#L"/><use transform="matrix(0.06172839506172839,0,0,0.06172839506172839,39.50617283950617,0)" xlink:href="#M"/><use transform="matrix(0.06172839506172839,0,0,0.06172839506172839,51.85185185185185,0)" xlink:href="#N"/></g><g id="A"><use transform="matrix(0.06172839506172839,0,0,0.06172839506172839,0,0)" xlink:href="#am"/><use transform="matrix(0.06172839506172839,0,0,0.06172839506172839,11.049382716049381,0)" xlink:href="#ad"/><use transform="matrix(0.06172839506172839,0,0,0.06172839506172839,23.39506172839506,0)" xlink:href="#ag"/><use transform="matrix(0.06172839506172839,0,0,0.06172839506172839,35.74074074074074,0)" xlink:href="#ae"/><use transform="matrix(0.06172839506172839,0,0,0.06172839506172839,40.617283950617285,0)" xlink:href="#N"/><use transform="matrix(0.06172839506172839,0,0,0.06172839506172839,52.96296296296296,0)" xlink:href="#P"/></g><path d="M177-190C167-65 218 103 67 71c-23-6-38-20-44-43l32-5c15 47 100 32 89-28v-30C133-14 115 1 83 1 29 1 15-40 15-95c0-56 16-97 71-98 29-1 48 16 59 35 1-10 0-23 2-32h30zM94-22c36 0 50-32 50-73 0-42-14-75-50-75-39 0-46 34-46 75s6 73 46 73" id="aq"/><g id="B"><use transform="matrix(0.06172839506172839,0,0,0.06172839506172839,0,0)" xlink:href="#R"/><use transform="matrix(0.06172839506172839,0,0,0.06172839506172839,18.456790123456788,0)" xlink:href="#ad"/><use transform="matrix(0.06172839506172839,0,0,0.06172839506172839,30.80246913580247,0)" xlink:href="#M"/><use transform="matrix(0.06172839506172839,0,0,0.06172839506172839,43.148148148148145,0)" xlink:href="#ad"/><use transform="matrix(0.06172839506172839,0,0,0.06172839506172839,55.49382716049382,0)" xlink:href="#aq"/><use transform="matrix(0.06172839506172839,0,0,0.06172839506172839,67.8395061728395,0)" xlink:href="#N"/><use transform="matrix(0.06172839506172839,0,0,0.06172839506172839,80.18518518518519,0)" xlink:href="#T"/><use transform="matrix(0.06172839506172839,0,0,0.06172839506172839,98.64197530864197,0)" xlink:href="#N"/><use transform="matrix(0.06172839506172839,0,0,0.06172839506172839,110.98765432098766,0)" xlink:href="#M"/><use transform="matrix(0.06172839506172839,0,0,0.06172839506172839,123.33333333333334,0)" xlink:href="#P"/></g><g id="C"><use transform="matrix(0.06172839506172839,0,0,0.06172839506172839,0,0)" xlink:href="#R"/><use transform="matrix(0.06172839506172839,0,0,0.06172839506172839,18.456790123456788,0)" xlink:href="#L"/><use transform="matrix(0.06172839506172839,0,0,0.06172839506172839,30.80246913580247,0)" xlink:href="#M"/><use transform="matrix(0.06172839506172839,0,0,0.06172839506172839,43.148148148148145,0)" xlink:href="#Q"/><use transform="matrix(0.06172839506172839,0,0,0.06172839506172839,48.02469135802469,0)" xlink:href="#P"/><use transform="matrix(0.06172839506172839,0,0,0.06172839506172839,54.19753086419753,0)" xlink:href="#L"/><use transform="matrix(0.06172839506172839,0,0,0.06172839506172839,66.54320987654322,0)" xlink:href="#W"/><use transform="matrix(0.06172839506172839,0,0,0.06172839506172839,73.8888888888889,0)" xlink:href="#Q"/><use transform="matrix(0.06172839506172839,0,0,0.06172839506172839,78.76543209876544,0)" xlink:href="#M"/><use transform="matrix(0.06172839506172839,0,0,0.06172839506172839,91.11111111111113,0)" xlink:href="#aq"/><use transform="matrix(0.06172839506172839,0,0,0.06172839506172839,103.45679012345681,0)" xlink:href="#ak"/></g><path d="M68-38c1 34 0 65-14 84H32c9-13 17-26 17-46H33v-38h35" id="ar"/><g id="D"><use transform="matrix(0.06172839506172839,0,0,0.06172839506172839,0,0)" xlink:href="#Z"/><use transform="matrix(0.06172839506172839,0,0,0.06172839506172839,14.814814814814813,0)" xlink:href="#J"/><use transform="matrix(0.06172839506172839,0,0,0.06172839506172839,30.80246913580247,0)" xlink:href="#R"/><use transform="matrix(0.06172839506172839,0,0,0.06172839506172839,49.25925925925925,0)" xlink:href="#ao"/><use transform="matrix(0.06172839506172839,0,0,0.06172839506172839,61.234567901234556,0)" xlink:href="#ar"/></g><path d="M179-190L93 31C79 59 56 82 12 73V49c39 6 53-20 64-50L1-190h34L92-34l54-156h33" id="as"/><g id="E"><use transform="matrix(0.06172839506172839,0,0,0.06172839506172839,0,0)" xlink:href="#Z"/><use transform="matrix(0.06172839506172839,0,0,0.06172839506172839,14.814814814814813,0)" xlink:href="#as"/><use transform="matrix(0.06172839506172839,0,0,0.06172839506172839,25.925925925925924,0)" xlink:href="#aa"/><use transform="matrix(0.06172839506172839,0,0,0.06172839506172839,37.03703703703704,0)" xlink:href="#ae"/><use transform="matrix(0.06172839506172839,0,0,0.06172839506172839,41.91358024691358,0)" xlink:href="#L"/><use transform="matrix(0.06172839506172839,0,0,0.06172839506172839,54.25925925925926,0)" xlink:href="#aq"/></g><path fill="#3a414a" d="M230 0l2-204L168 0h-37L68-204 70 0H24v-248h70l56 185 57-185h69V0h-46" id="at"/><path fill="#3a414a" d="M133-34C117-15 103 5 69 4 32 3 11-16 11-54c-1-60 55-63 116-61 1-26-3-47-28-47-18 1-26 9-28 27l-52-2c7-38 36-58 82-57s74 22 75 68l1 82c-1 14 12 18 25 15v27c-30 8-71 5-69-32zm-48 3c29 0 43-24 42-57-32 0-66-3-65 30 0 17 8 27 23 27" id="au"/><path fill="#3a414a" d="M135-194c87-1 58 113 63 194h-50c-7-57 23-157-34-157-59 0-34 97-39 157H25l-1-190h47c2 12-1 28 3 38 12-26 28-41 61-42" id="av"/><path fill="#3a414a" d="M195-6C206 82 75 100 31 46c-4-6-6-13-8-21l49-6c3 16 16 24 34 25 40 0 42-37 40-79-11 22-30 35-61 35-53 0-70-43-70-97 0-56 18-96 73-97 30 0 46 14 59 34l2-30h47zm-90-29c32 0 41-27 41-63 0-35-9-62-40-62-32 0-39 29-40 63 0 36 9 62 39 62" id="aw"/><path fill="#3a414a" d="M185-48c-13 30-37 53-82 52C43 2 14-33 14-96s30-98 90-98c62 0 83 45 84 108H66c0 31 8 55 39 56 18 0 30-7 34-22zm-45-69c5-46-57-63-70-21-2 6-4 13-4 21h74" id="ax"/><path fill="#3a414a" d="M220-157c-53 9-28 100-34 157h-49v-107c1-27-5-49-29-50C55-147 81-57 75 0H25l-1-190h47c2 12-1 28 3 38 10-53 101-56 108 0 13-22 24-43 59-42 82 1 51 116 57 194h-49v-107c-1-25-5-48-29-50" id="ay"/><path fill="#3a414a" d="M115-3C79 11 28 4 28-45v-112H4v-33h27l15-45h31v45h36v33H77v99c-1 23 16 31 38 25v30" id="az"/><g id="F"><use transform="matrix(0.04938271604938272,0,0,0.04938271604938272,0,0)" xlink:href="#at"/><use transform="matrix(0.04938271604938272,0,0,0.04938271604938272,14.765432098765434,0)" xlink:href="#au"/><use transform="matrix(0.04938271604938272,0,0,0.04938271604938272,24.641975308641978,0)" xlink:href="#av"/><use transform="matrix(0.04938271604938272,0,0,0.04938271604938272,35.45679012345679,0)" xlink:href="#au"/><use transform="matrix(0.04938271604938272,0,0,0.04938271604938272,45.333333333333336,0)" xlink:href="#aw"/><use transform="matrix(0.04938271604938272,0,0,0.04938271604938272,56.14814814814815,0)" xlink:href="#ax"/><use transform="matrix(0.04938271604938272,0,0,0.04938271604938272,66.0246913580247,0)" xlink:href="#ay"/><use transform="matrix(0.04938271604938272,0,0,0.04938271604938272,81.82716049382717,0)" xlink:href="#ax"/><use transform="matrix(0.04938271604938272,0,0,0.04938271604938272,91.70370370370371,0)" xlink:href="#av"/><use transform="matrix(0.04938271604938272,0,0,0.04938271604938272,102.51851851851853,0)" xlink:href="#az"/></g><path fill="#3a414a" d="M24 0v-248h52V0H24" id="aA"/><path fill="#3a414a" d="M135-150c-39-12-60 13-60 57V0H25l-1-190h47c2 13-1 29 3 40 6-28 27-53 61-41v41" id="aB"/><path fill="#3a414a" d="M121-226c-27-7-43 5-38 36h38v33H83V0H34v-157H6v-33h28c-9-59 32-81 87-68v32" id="aC"/><path fill="#3a414a" d="M190-63c-7 42-38 67-86 67-59 0-84-38-90-98-12-110 154-137 174-36l-49 2c-2-19-15-32-35-32-30 0-35 28-38 64-6 74 65 87 74 30" id="aD"/><g id="G"><use transform="matrix(0.04938271604938272,0,0,0.04938271604938272,0,0)" xlink:href="#aA"/><use transform="matrix(0.04938271604938272,0,0,0.04938271604938272,4.938271604938272,0)" xlink:href="#av"/><use transform="matrix(0.04938271604938272,0,0,0.04938271604938272,15.753086419753087,0)" xlink:href="#az"/><use transform="matrix(0.04938271604938272,0,0,0.04938271604938272,21.62962962962963,0)" xlink:href="#ax"/><use transform="matrix(0.04938271604938272,0,0,0.04938271604938272,31.506172839506174,0)" xlink:href="#aB"/><use transform="matrix(0.04938271604938272,0,0,0.04938271604938272,38.41975308641975,0)" xlink:href="#aC"/><use transform="matrix(0.04938271604938272,0,0,0.04938271604938272,44.2962962962963,0)" xlink:href="#au"/><use transform="matrix(0.04938271604938272,0,0,0.04938271604938272,54.17283950617284,0)" xlink:href="#aD"/><use transform="matrix(0.04938271604938272,0,0,0.04938271604938272,64.0493827160494,0)" xlink:href="#ax"/></g></defs></g></svg>