<svg xmlns="http://www.w3.org/2000/svg" viewBox="0 0 24 24" width="24" height="24"><path fill="currentColor" d="M12 0C5.37 0 0 5.37 0 12c0 5.3 3.438 9.8 8.207 11.387.6.113.793-.262.793-.583 0-.288-.012-1.243-.017-2.252-3.338.726-4.042-1.61-4.042-1.61-.546-1.387-1.333-1.756-1.333-1.756-1.09-.745.083-.729.083-.729 1.205.085 1.84 1.237 1.84 1.237 1.07 1.834 2.809 1.304 3.495.997.108-.775.418-1.305.762-1.605-2.665-.304-5.467-1.332-5.467-5.931 0-1.31.469-2.381 1.236-3.221-.124-.303-.535-1.523.117-3.176 0 0 1.008-.322 3.301 1.23.957-.266 1.984-.399 3.003-.404 1.018.005 2.045.138 3.003.404 2.291-1.552 3.297-1.23 3.297-1.23.653 1.653.242 2.873.119 3.176.77.84 1.235 1.911 1.235 3.221 0 4.61-2.807 5.625-5.479 5.921.43.371.823 1.102.823 2.222 0 1.606-.014 2.899-.014 3.293 0 .323.192.699.801.581C20.565 21.796 24 17.297 24 12c0-6.63-5.373-12-12-12z"/></svg>