<svg xmlns="http://www.w3.org/2000/svg" width="1200" height="760" viewBox="0 0 1200 760">
  <rect width="1200" height="760" fill="#0F172A"/>
  <defs>
    <linearGradient id="g" x1="0" x2="1"><stop stop-color="#38BDF8"/><stop offset="1" stop-color="#D946EF"/></linearGradient>
    <filter id="glow"><feGaussianBlur stdDeviation="5" result="b"/><feMerge><feMergeNode in="b"/><feMergeNode in="SourceGraphic"/></feMerge></filter>
  </defs>
  <text x="70" y="70" fill="#F1F5F9" font-size="34" font-family="Segoe UI" font-weight="800">Jeremy Fontenot Home Lab Infrastructure</text>
  <text x="70" y="110" fill="#94A3B8" font-size="18" font-family="Segoe UI">pfSense • Proxmox • VLANs • Active Directory • DNS/DHCP • VPN • Monitoring</text>

  <rect x="70" y="175" width="220" height="90" rx="18" fill="#1E293B" stroke="#38BDF8"/>
  <text x="110" y="213" fill="#F1F5F9" font-size="20" font-family="Segoe UI" font-weight="700">Internet / ISP</text>
  <text x="110" y="242" fill="#94A3B8" font-size="15" font-family="Segoe UI">Cox router uplink</text>

  <rect x="385" y="160" width="240" height="120" rx="20" fill="#1E293B" stroke="#D946EF"/>
  <text x="445" y="205" fill="#F1F5F9" font-size="22" font-family="Segoe UI" font-weight="800">pfSense</text>
  <text x="420" y="238" fill="#94A3B8" font-size="15" font-family="Segoe UI">Firewall / VLAN gateway</text>

  <rect x="750" y="150" width="300" height="140" rx="22" fill="#1E293B" stroke="#38BDF8"/>
  <text x="810" y="198" fill="#F1F5F9" font-size="22" font-family="Segoe UI" font-weight="800">Dell R710 Proxmox</text>
  <text x="800" y="232" fill="#94A3B8" font-size="15" font-family="Segoe UI">VM host / lab services</text>

  <line x1="290" y1="220" x2="385" y2="220" stroke="url(#g)" stroke-width="4" filter="url(#glow)"/>
  <line x1="625" y1="220" x2="750" y2="220" stroke="url(#g)" stroke-width="4" filter="url(#glow)"/>

  <g font-family="Segoe UI">
    <rect x="135" y="420" width="170" height="80" rx="16" fill="#111827" stroke="#38BDF8"/>
    <text x="172" y="452" fill="#F1F5F9" font-size="18" font-weight="700">VLAN 10</text>
    <text x="155" y="480" fill="#94A3B8" font-size="14">Management</text>

    <rect x="355" y="420" width="170" height="80" rx="16" fill="#111827" stroke="#38BDF8"/>
    <text x="392" y="452" fill="#F1F5F9" font-size="18" font-weight="700">VLAN 20</text>
    <text x="390" y="480" fill="#94A3B8" font-size="14">Servers</text>

    <rect x="575" y="420" width="170" height="80" rx="16" fill="#111827" stroke="#38BDF8"/>
    <text x="612" y="452" fill="#F1F5F9" font-size="18" font-weight="700">VLAN 30</text>
    <text x="620" y="480" fill="#94A3B8" font-size="14">Clients</text>

    <rect x="795" y="420" width="170" height="80" rx="16" fill="#111827" stroke="#38BDF8"/>
    <text x="832" y="452" fill="#F1F5F9" font-size="18" font-weight="700">VLAN 40</text>
    <text x="842" y="480" fill="#94A3B8" font-size="14">Lab DMZ</text>
  </g>

  <line x1="505" y1="280" x2="220" y2="420" stroke="url(#g)" stroke-width="3"/>
  <line x1="505" y1="280" x2="440" y2="420" stroke="url(#g)" stroke-width="3"/>
  <line x1="505" y1="280" x2="660" y2="420" stroke="url(#g)" stroke-width="3"/>
  <line x1="505" y1="280" x2="880" y2="420" stroke="url(#g)" stroke-width="3"/>

  <rect x="230" y="585" width="740" height="80" rx="22" fill="#1E293B" stroke="#D946EF"/>
  <text x="292" y="618" fill="#F1F5F9" font-size="20" font-family="Segoe UI" font-weight="800">Validation Evidence</text>
  <text x="292" y="648" fill="#94A3B8" font-size="16" font-family="Segoe UI">Runbooks, diagrams, RCA records, backup validation workflows, and monitoring notes.</text>
</svg>
