<svg xmlns="http://www.w3.org/2000/svg" width="1200" height="760" viewBox="0 0 1200 760">
  <rect width="1200" height="760" fill="#0F172A"/>
  <defs>
    <linearGradient id="g" x1="0" x2="1"><stop stop-color="#0EA5E9"/><stop offset="1" stop-color="#D946EF"/></linearGradient>
  </defs>
  <text x="70" y="72" fill="#F1F5F9" font-size="34" font-family="Segoe UI" font-weight="800">Troubleshooting RCA Validation Flow</text>
  <text x="70" y="112" fill="#94A3B8" font-size="18" font-family="Segoe UI">Incident intake → triage → remediation → validation → post-incident review</text>

  <g font-family="Segoe UI">
    <rect x="90" y="260" width="175" height="120" rx="20" fill="#1E293B" stroke="#38BDF8"/>
    <text x="132" y="307" fill="#F1F5F9" font-size="20" font-weight="800">Intake</text>
    <text x="118" y="340" fill="#94A3B8" font-size="15">Impact / scope</text>

    <rect x="315" y="260" width="175" height="120" rx="20" fill="#1E293B" stroke="#38BDF8"/>
    <text x="363" y="307" fill="#F1F5F9" font-size="20" font-weight="800">Triage</text>
    <text x="340" y="340" fill="#94A3B8" font-size="15">Logs / config</text>

    <rect x="540" y="260" width="175" height="120" rx="20" fill="#1E293B" stroke="#D946EF"/>
    <text x="573" y="307" fill="#F1F5F9" font-size="20" font-weight="800">Remediate</text>
    <text x="573" y="340" fill="#94A3B8" font-size="15">Controlled fix</text>

    <rect x="765" y="260" width="175" height="120" rx="20" fill="#1E293B" stroke="#38BDF8"/>
    <text x="807" y="307" fill="#F1F5F9" font-size="20" font-weight="800">Validate</text>
    <text x="795" y="340" fill="#94A3B8" font-size="15">Confirm restore</text>

    <rect x="990" y="260" width="145" height="120" rx="20" fill="#1E293B" stroke="#D946EF"/>
    <text x="1017" y="307" fill="#F1F5F9" font-size="20" font-weight="800">Review</text>
    <text x="1010" y="340" fill="#94A3B8" font-size="15">Lessons learned</text>
  </g>

  <g stroke="url(#g)" stroke-width="5">
    <line x1="265" y1="320" x2="315" y2="320"/>
    <line x1="490" y1="320" x2="540" y2="320"/>
    <line x1="715" y1="320" x2="765" y2="320"/>
    <line x1="940" y1="320" x2="990" y2="320"/>
  </g>

  <rect x="125" y="520" width="950" height="95" rx="22" fill="#111827" stroke="#38BDF8"/>
  <text x="175" y="558" fill="#F1F5F9" font-size="22" font-family="Segoe UI" font-weight="800">Evidence Chain</text>
  <text x="175" y="590" fill="#94A3B8" font-size="16" font-family="Segoe UI">incident-summary.md • rca-report.md • remediation-plan.md • validation-checklist.md • post-incident-review.md</text>
</svg>
