<svg xmlns="http://www.w3.org/2000/svg" width="960" height="540" aria-labelledby="title desc" viewBox="0 0 960 540"><title>Active Directory OU migration diagram</title><desc>A dark enterprise diagram showing the ad.jeremyfontenot domain organized into Corp and Service organizational units.</desc><path fill="#071226" d="M0 0h960v540H0z"/><rect width="896" height="476" x="32" y="32" fill="#0d1b34" stroke="#3fe0e8" stroke-opacity=".35" rx="24"/><text x="60" y="82" fill="#6af7ff" font-family="Segoe UI, Arial" font-size="24" font-weight="700">Active Directory Migration Plan</text><text x="60" y="112" fill="#b8c2d1" font-family="Segoe UI, Arial" font-size="14">Target OU structure for ad.jeremyfontenot</text><g fill="#f5f7fa" font-family="Segoe UI, Arial" font-size="15"><rect width="240" height="54" x="360" y="72" fill="#132543" stroke="#3fe0e8" rx="12"/><text x="412" y="105">ad.jeremyfontenot</text><path stroke="#3fe0e8" stroke-width="2" d="M480 126v42m-220 0h440m-440 0v42m440-42v42"/><rect width="180" height="54" x="170" y="210" fill="#132543" stroke="#d65be8" rx="12"/><text x="232" y="243">OU=Corp</text><rect width="180" height="54" x="610" y="210" fill="#132543" stroke="#d65be8" rx="12"/><text x="676" y="243">OU=Service</text><path stroke="#3fe0e8" stroke-width="2" d="M260 264v48m-90 0h180m-180 0v38m90-38v38m90-38v38"/><rect width="130" height="46" x="92" y="350" fill="#071226" stroke="#3fe0e8" rx="10"/><text x="127" y="379">Users</text><rect width="130" height="46" x="235" y="350" fill="#071226" stroke="#3fe0e8" rx="10"/><text x="262" y="379">Computers</text><rect width="130" height="46" x="378" y="350" fill="#071226" stroke="#3fe0e8" rx="10"/><text x="410" y="379">Groups</text><path stroke="#3fe0e8" stroke-width="2" d="M700 264v48m-70 0h140m-140 0v38m140-38v38"/><rect width="160" height="46" x="552" y="350" fill="#071226" stroke="#3fe0e8" rx="10"/><text x="581" y="379">ServiceAccounts</text><rect width="130" height="46" x="735" y="350" fill="#071226" stroke="#3fe0e8" rx="10"/><text x="779" y="379">Admin</text></g><text x="60" y="468" fill="#7d8ca3" font-family="Segoe UI, Arial" font-size="13">Validation: staged moves, GPO link review, group membership export, rollback checkpoint</text></svg>
