<svg xmlns="http://www.w3.org/2000/svg" width="1200" height="760" viewBox="0 0 1200 760" role="img" aria-labelledby="title desc">
  <title id="title">Microsoft 365 Lab Architecture Overview 2026</title>
  <desc id="desc">Conceptual Microsoft 365 lab architecture showing identity, endpoint management, automation, validation, and documentation workflows.</desc>
  <defs>
    <style>
      .bg { fill: #0f172a; }
      .card { fill: #111827; stroke: #38bdf8; stroke-width: 2; rx: 14; }
      .identity { fill: #172554; stroke: #60a5fa; }
      .endpoint { fill: #312e81; stroke: #a78bfa; }
      .ops { fill: #123524; stroke: #22c55e; }
      .doc { fill: #3b1f2b; stroke: #f472b6; }
      .text { fill: #e5e7eb; font-family: Arial, sans-serif; font-size: 18px; font-weight: 700; }
      .small { fill: #cbd5e1; font-family: Arial, sans-serif; font-size: 14px; }
      .title { fill: #ffffff; font-family: Arial, sans-serif; font-size: 26px; font-weight: 700; }
      .line { stroke: #38bdf8; stroke-width: 2.5; fill: none; marker-end: url(#arrow); }
    </style>
    <marker id="arrow" markerWidth="10" markerHeight="10" refX="7" refY="3" orient="auto">
      <path d="M0,0 L0,6 L8,3 z" fill="#38bdf8"/>
    </marker>
  </defs>
  <rect class="bg" width="1200" height="760"/>
  <text x="52" y="52" class="title">Microsoft 365 Lab Architecture Overview</text>
  <text x="52" y="82" class="small">Conceptual lab model for identity, endpoint management, automation, security baselines, and validation evidence.</text>

  <rect x="90" y="150" width="240" height="125" class="identity"/>
  <text x="153" y="190" class="text">Identity</text>
  <text x="118" y="220" class="small">Entra ID concepts</text>
  <text x="118" y="244" class="small">MFA and conditional access planning</text>

  <rect x="480" y="150" width="240" height="125" class="endpoint"/>
  <text x="600" y="184" class="text" text-anchor="middle">
    <tspan x="600">Endpoint</tspan>
    <tspan x="600" dy="24">Management</tspan>
  </text>
  <text x="508" y="220" class="small">Intune baseline concepts</text>
  <text x="508" y="244" class="small">Compliance and deployment review</text>

  <rect x="870" y="150" width="240" height="125" class="card"/>
  <text x="926" y="190" class="text">Home Lab</text>
  <text x="898" y="220" class="small">Windows, AD, DNS, DHCP</text>
  <text x="898" y="244" class="small">Hybrid administration context</text>

  <rect x="285" y="390" width="260" height="125" class="ops"/>
  <text x="360" y="430" class="text">Automation</text>
  <text x="312" y="460" class="small">PowerShell and repeatable checks</text>
  <text x="312" y="484" class="small">Safe evidence collection</text>

  <rect x="655" y="390" width="260" height="125" class="doc"/>
  <text x="724" y="430" class="text">Validation</text>
  <text x="682" y="460" class="small">Checklists, reports, review notes</text>
  <text x="682" y="484" class="small">Migration-ready documentation</text>

  <rect x="380" y="610" width="440" height="78" class="card"/>
  <text x="502" y="642" class="text">Portfolio Evidence Package</text>
  <text x="425" y="668" class="small">Source docs, scripts, diagrams, validation notes, and archive support</text>

  <path d="M330 212 H480" class="line"/>
  <path d="M720 212 H870" class="line"/>
  <path d="M600 275 C570 330 500 345 425 390" class="line"/>
  <path d="M600 275 C635 330 710 345 785 390" class="line"/>
  <path d="M415 515 C460 565 520 590 600 610" class="line"/>
  <path d="M785 515 C740 565 680 590 600 610" class="line"/>
</svg>
