<svg xmlns="http://www.w3.org/2000/svg" width="960" height="540" aria-labelledby="title desc" viewBox="0 0 960 540"><title>Microsoft 365 lab architecture</title><desc>Architecture view showing Entra ID connected to Microsoft 365 services and Intune endpoint management.</desc><path fill="#071226" d="M0 0h960v540H0z"/><rect width="892" height="472" x="34" y="34" fill="#0d1b34" stroke="#3fe0e8" stroke-opacity=".35" rx="24"/><text x="62" y="84" fill="#6af7ff" font-family="Segoe UI, Arial" font-size="24" font-weight="700">Microsoft 365 Personal Cloud Lab</text><g font-family="Segoe UI, Arial" text-anchor="middle"><rect width="220" height="70" x="370" y="130" fill="#132543" stroke="#3fe0e8" rx="16"/><text x="480" y="172" fill="#f5f7fa" font-size="18" font-weight="700">Entra ID</text><path stroke="#3fe0e8" stroke-width="2" d="M480 200v60m-230 0h460m-460 0v52m153-52v52m154-52v52m153-52v52"/><g fill="#132543" stroke="#d65be8"><rect width="180" height="72" x="160" y="312" rx="14"/><rect width="180" height="72" x="313" y="312" rx="14"/><rect width="180" height="72" x="467" y="312" rx="14"/><rect width="180" height="72" x="620" y="312" rx="14"/></g><g fill="#f5f7fa" font-size="15" font-weight="700"><text x="250" y="354">Exchange Online</text><text x="403" y="354">SharePoint</text><text x="557" y="354">Teams</text><text x="710" y="354">Intune</text></g><path stroke="#3fe0e8" stroke-width="2" d="M710 384v46"/><rect width="180" height="42" x="620" y="430" fill="#071226" stroke="#3fe0e8" rx="12"/><text x="710" y="456" fill="#b8c2d1" font-size="14">Windows 11 endpoints</text></g><text x="62" y="462" fill="#7d8ca3" font-family="Segoe UI, Arial" font-size="13">Controls: MFA, security groups, role review, device compliance, service documentation</text></svg>