<svg xmlns="http://www.w3.org/2000/svg" width="1200" height="900" aria-labelledby="title desc" viewBox="0 0 1200 900">
  <title id="title">Service Desk Network Troubleshooting Flow 2026</title>
  <desc id="desc">Layered service desk troubleshooting workflow for endpoint, DNS, DHCP, VPN, and firewall network issues.</desc>
  <defs>
    <marker id="arrow" markerHeight="10" markerWidth="10" orient="auto" refX="7" refY="3"><path fill="#38bdf8" d="M0 0v6l8-3z"/></marker>
    <style>
      .decision,.done,.node{stroke-width:2;rx:12}
      .node{fill:#111827;stroke:#38bdf8}
      .decision{fill:#172554;stroke:#a78bfa}
      .done{fill:#123524;stroke:#22c55e}
      .small,.text{font-family:Arial,sans-serif}
      .text{fill:#e5e7eb;font-size:17px;font-weight:700}
      .small{fill:#cbd5e1;font-size:13px}
      .line{stroke:#38bdf8;stroke-width:2.5;fill:none;marker-end:url(#arrow)}
    </style>
  </defs>
  <path d="M0 0h1200v900H0z" style="fill:#0f172a"/>
  <text x="60" y="52" style="fill:#fff;font-family:Arial,sans-serif;font-size:26px;font-weight:700">Service Desk Network Troubleshooting Flow</text>
  <text x="60" y="80" class="small">
    <tspan x="60" y="80">Use for real ticket triage, lab validation, and escalation documentation.</tspan>
    <tspan x="60" dy="18">Results must be captured from actual systems.</tspan>
  </text>

  <path d="M460 120h280v70H460z" class="node"/>
  <text x="507" y="150" class="text">Capture User Impact</text>
  <text x="492" y="172" class="small">Affected system, time, scope, symptoms</text>

  <path d="M460 230h280v70H460z" class="decision"/>
  <text x="504" y="260" class="text">Single Device or Wider?</text>
  <text x="496" y="282" class="small">Compare endpoint, VLAN, and service scope</text>

  <path d="M110 350h250v78H110z" class="node"/>
  <text x="160" y="380" class="text">Endpoint Path</text>
  <text x="138" y="404" class="small">Adapter, IP config, local firewall</text>

  <path d="M475 350h250v78H475z" class="node"/>
  <text x="537" y="380" class="text">Network Path</text>
  <text x="500" y="404" class="small">Gateway, VLAN, DNS, DHCP</text>

  <path d="M840 350h250v78H840z" class="node"/>
  <text x="909" y="380" class="text">Service Path</text>
  <text x="868" y="404" class="small">AD, VPN, firewall, application</text>

  <path d="M110 470h250v78H110z" class="decision"/>
  <text x="157" y="500" class="text">DNS/DHCP Issue?</text>
  <text x="135" y="524" class="small">Check resolver, scope, lease, options</text>

  <path d="M475 470h250v78H475z" class="decision"/>
  <text x="536" y="500" class="text">VPN/Firewall?</text>
  <text x="505" y="524" class="small">Check routes, rules, logs, allowed zones</text>

  <path d="M840 470h250v78H840z" class="decision"/>
  <text x="894" y="500" class="text">Service Healthy?</text>
  <text x="866" y="524" class="small">Check status, logs, dependencies</text>

  <path d="M110 650h250v78H110z" class="done"/>
  <text x="149" y="680" class="text">Document Resolution</text>
  <text x="135" y="704" class="small">Commands, evidence, fix, validation</text>

  <path d="M475 650h250v78H475z" style="fill:#3b1f2b;stroke:#f472b6;stroke-width:2;rx:12"/>
  <text x="538" y="680" class="text">Escalate With Evidence</text>
  <text x="500" y="704" class="small">Scope, logs, suspected boundary, risk</text>

  <path d="M840 650h250v78H840z" class="done"/>
  <text x="894" y="680" class="text">RCA Trigger?</text>
  <text x="860" y="704" class="small">Recurring, change-caused, multi-user</text>
</svg>
